<svg width="109" height="24" viewBox="0 0 109 24" fill="none" xmlns="http://www.w3.org/2000/svg">
<path fill-rule="evenodd" clip-rule="evenodd" d="M34.0632 2.07582C32.4488 2.7413 30.6695 4.61676 30.1096 6.97242C29.4002 9.95575 32.3568 11.2187 32.6022 10.8065C32.8821 10.3187 32.0692 10.1524 31.9004 8.60588C31.6819 6.60565 32.6329 4.37098 33.8255 3.39166C34.0479 3.21016 34.0364 3.4635 34.0364 3.93237C34.0364 4.77178 33.9904 12.3001 33.9904 13.8693C33.9904 15.9943 33.9022 16.6673 33.7411 17.329C33.5762 18.0021 33.3155 18.4558 33.5149 18.6297C33.7373 18.8264 34.6845 18.3613 35.229 17.6088C35.8847 16.7089 36.1148 15.6275 36.157 14.4553C36.2068 13.0374 36.203 10.7952 36.2068 9.51336C36.2068 8.33742 36.226 4.90034 36.1877 2.83205C36.1723 2.32915 34.742 1.79979 34.0632 2.07582ZM108.637 13.2416C108.403 13.2416 108.296 13.4798 108.208 13.8768C107.901 15.2645 107.579 15.5783 107.161 15.5783C106.697 15.5783 106.279 14.8902 106.171 13.5138C106.087 12.4324 106.099 10.4397 106.206 8.45841C106.229 8.05005 106.114 7.64925 105.002 7.25222C104.523 7.08207 103.825 6.82873 103.479 7.65303C102.502 9.97088 102.118 11.8123 102.026 12.561C102.022 12.5988 101.972 12.6063 101.965 12.5194C101.907 11.9182 101.781 10.8292 101.762 8.5416C101.758 8.09542 101.662 7.71353 101.159 7.40347C100.834 7.20307 99.8442 6.84386 99.4875 7.27113C99.1808 7.619 98.8203 8.55294 98.4483 9.66082C98.1454 10.5607 97.9383 11.1695 97.9383 11.1695C97.9383 11.1695 97.9421 8.73822 97.946 7.8194C97.946 7.47153 97.7044 7.3581 97.6315 7.33541C97.3017 7.24088 96.6498 7.08585 96.3737 7.08585C96.0325 7.08585 95.9519 7.27113 95.9519 7.54337C95.9519 7.5774 95.8982 10.7422 95.8982 12.9542V13.2681C95.7103 14.2852 95.1006 15.6653 94.4372 15.6653C93.77 15.6653 93.4594 15.0906 93.4594 12.4513C93.4594 10.9124 93.5054 10.2431 93.5284 9.13146C93.5399 8.49245 93.5667 7.99711 93.5667 7.88746C93.5629 7.54337 92.957 7.37322 92.6771 7.30894C92.3933 7.24466 92.1479 7.21819 91.9561 7.22954C91.6839 7.24466 91.4921 7.4186 91.4921 7.66059C91.4921 7.78915 91.4921 8.03492 91.4921 8.03492C91.1432 7.498 90.5833 7.12367 90.2075 7.01401C89.2028 6.72286 88.1521 6.97998 87.3583 8.06895C86.7294 8.93106 86.3498 9.91038 86.2002 11.317C86.089 12.3454 86.1273 13.389 86.3191 14.2701C86.0852 15.2645 85.648 15.6729 85.1725 15.6729C84.4822 15.6729 83.9799 14.565 84.0374 12.6479C84.0758 11.3888 84.3327 10.504 84.6126 9.22221C84.7315 8.67772 84.6356 8.39035 84.3902 8.11811C84.1678 7.86855 83.6885 7.73999 83.002 7.89502C82.515 8.00846 81.8133 8.12945 81.1767 8.2202C81.1767 8.2202 81.2151 8.06896 81.2457 7.80427C81.4106 6.40903 79.8652 6.52246 79.3706 6.96864C79.0753 7.2371 78.8759 7.55094 78.7992 8.11433C78.6803 9.01046 79.4242 9.43395 79.4242 9.43395C79.1788 10.5305 78.5806 11.9636 77.9632 12.9996C77.6334 13.5554 77.3765 13.9676 77.0505 14.4024C77.0505 14.2398 77.0505 14.0772 77.0467 13.9146C77.039 11.6081 77.0697 9.79316 77.0851 9.13902C77.0966 8.50001 77.1234 8.0198 77.1234 7.90637C77.1196 7.65681 76.97 7.56228 76.6594 7.44128C76.3833 7.33541 76.0612 7.26357 75.7237 7.2371C75.3019 7.20307 75.045 7.42616 75.0526 7.68706C75.0526 7.73621 75.0526 8.03871 75.0526 8.03871C74.7037 7.50178 74.1438 7.12745 73.768 7.01779C72.7633 6.72664 71.7126 6.98376 70.9188 8.07274C70.2899 8.93484 69.8796 10.1486 69.7607 11.3094C69.6534 12.3908 69.6725 13.3096 69.8221 14.0848C69.661 14.8599 69.2009 15.6729 68.6832 15.6729C68.0198 15.6729 67.6401 15.0981 67.6401 12.4589C67.6401 10.92 67.6861 10.2507 67.7091 9.13902C67.7245 8.50001 67.7475 8.00468 67.7475 7.89502C67.7437 7.55094 67.1378 7.38078 66.8578 7.3165C66.5626 7.24844 66.3095 7.22576 66.1139 7.24088C65.857 7.25979 65.6767 7.48666 65.6767 7.65303V8.04249C65.3278 7.50556 64.7641 7.13123 64.3921 7.02157C63.3874 6.73042 62.3444 6.99511 61.5467 8.07652C61.0252 8.78359 60.6034 9.56629 60.3886 11.2981C60.3235 11.7972 60.2966 12.266 60.3004 12.7047C60.0934 13.9524 59.1769 15.3855 58.4291 15.3855C57.9919 15.3855 57.574 14.5499 57.574 12.7727C57.574 10.4019 57.7235 7.02914 57.7504 6.70396C57.7504 6.70396 58.6975 6.68883 58.8816 6.68505C59.3533 6.68127 59.7828 6.69261 60.4116 6.65858C60.7261 6.64346 61.029 5.5318 60.7069 5.39567C60.5574 5.3314 59.5143 5.27846 59.1002 5.2709C58.7704 5.25199 57.8002 5.18015 57.8002 5.18015C57.8002 5.18015 57.8884 2.9417 57.9076 2.70349C57.9229 2.50687 57.6622 2.40478 57.5164 2.34428C57.1521 2.19303 56.83 2.12119 56.4465 2.04557C55.9135 1.93591 55.6758 2.04179 55.6259 2.48418C55.553 3.14967 55.5185 5.10831 55.5185 5.10831C55.1274 5.10831 53.7967 5.03268 53.4094 5.03268C53.0451 5.03268 52.6578 6.56027 53.1563 6.57918C53.7316 6.60186 54.7363 6.62077 55.4035 6.63968C55.4035 6.63968 55.3728 10.0692 55.3728 11.1279C55.3728 11.2376 55.3728 11.3472 55.3728 11.4531C55.0085 13.3285 53.7162 14.3381 53.7162 14.3381C53.9923 13.0979 53.4286 12.1677 52.4086 11.3813C52.0328 11.0901 51.2927 10.5418 50.4605 9.93685C50.4605 9.93685 50.9399 9.47177 51.3694 8.53782C51.6723 7.87612 51.6838 7.1161 50.9437 6.94973C49.7204 6.67371 48.7081 7.55472 48.409 8.50001C48.175 9.22977 48.3016 9.77048 48.7579 10.3339C48.7886 10.3755 48.8269 10.4171 48.8653 10.4586C48.5892 10.9842 48.2095 11.6875 47.8874 12.232C46.9939 13.7483 46.319 14.9469 45.809 14.9469C45.4025 14.9469 45.4064 13.7294 45.4064 12.5912C45.4064 11.6081 45.4792 10.1335 45.5406 8.6021C45.5597 8.09542 45.3028 7.80806 44.8695 7.54716C44.6087 7.38835 44.0489 7.07451 43.7229 7.07451C43.2359 7.07451 41.8362 7.13879 40.5132 10.8973C40.3484 11.3699 40.0186 12.2358 40.0186 12.2358L40.0454 7.71731C40.0454 7.61144 39.9879 7.50934 39.8575 7.4375C39.6351 7.3165 39.0369 7.07451 38.5077 7.07451C38.2546 7.07451 38.128 7.19173 38.128 7.42238L38.082 14.4931C38.082 15.0301 38.0974 15.6577 38.1511 15.93C38.2047 16.2022 38.2929 16.4291 38.4003 16.5614C38.5077 16.6938 38.6342 16.7959 38.8375 16.8375C39.0292 16.8753 40.0799 17.0076 40.1336 16.6144C40.1988 16.1417 40.2026 15.6313 40.7548 13.7294C41.6138 10.7649 42.7336 9.32052 43.2589 8.80628C43.3509 8.71553 43.4583 8.71175 43.4506 8.85922C43.4276 9.50958 43.3509 11.1355 43.2973 12.5118C43.1554 16.2022 43.838 16.8866 44.8158 16.8866C45.5636 16.8866 46.6181 16.1569 47.7494 14.3117C48.455 13.1622 49.1375 12.0316 49.6322 11.2187C49.9735 11.5287 50.3608 11.8652 50.7443 12.2207C51.6378 13.0525 51.9292 13.8428 51.7375 14.5915C51.5879 15.1662 51.0281 15.7561 50.031 15.1813C49.7396 15.0149 49.6169 14.8864 49.3255 14.6935C49.1682 14.5915 48.9266 14.5612 48.7848 14.6709C48.4128 14.9469 48.198 15.2985 48.0753 15.7334C47.9565 16.1569 48.3898 16.3799 48.8346 16.5766C49.2219 16.7467 50.0502 16.898 50.5794 16.9169C52.6387 16.9849 54.2876 15.9413 55.438 13.2491C55.6451 15.5746 56.5194 16.8904 58.038 16.8904C59.0542 16.8904 60.0742 15.601 60.519 14.3343C60.6456 14.8524 60.8373 15.3023 61.0789 15.6804C62.2523 17.5029 64.5225 17.1097 65.6652 15.5632C66.018 15.0868 66.0717 14.9129 66.0717 14.9129C66.2366 16.3724 67.4369 16.8828 68.1233 16.8828C68.8902 16.8828 69.684 16.5274 70.2401 15.2985C70.3053 15.4309 70.3781 15.5594 70.4548 15.6804C71.6244 17.5029 73.8984 17.1097 75.0373 15.5632C75.091 15.4914 75.137 15.4271 75.1792 15.3666L75.2137 16.327C75.2137 16.327 74.5618 16.9131 74.163 17.2723C72.4028 18.8566 71.0645 20.059 70.9648 21.458C70.8383 23.2427 72.3147 23.9045 73.4306 23.9914C74.6155 24.0822 75.6317 23.4432 76.2529 22.5432C76.8013 21.753 77.1617 20.0477 77.1349 18.3688C77.1234 17.6958 77.1081 16.8412 77.0927 15.9224C77.7101 15.2191 78.408 14.3268 79.0484 13.287C79.7464 12.1488 80.498 10.625 80.8814 9.43774C80.8814 9.43774 81.5333 9.44152 82.2274 9.39992C82.4498 9.38858 82.5112 9.43017 82.4728 9.58898C82.423 9.78182 81.5947 12.9164 82.3501 15.0036C82.8678 16.4329 84.0336 16.8942 84.7238 16.8942C85.533 16.8942 86.3076 16.2968 86.7217 15.4044C86.7716 15.5027 86.8253 15.5972 86.8828 15.688C88.0524 17.5105 90.3187 17.1135 91.4691 15.5708C91.7299 15.2229 91.8756 14.9204 91.8756 14.9204C92.121 16.4329 93.3213 16.898 94.0077 16.898C94.721 16.898 95.3997 16.6106 95.9519 15.3326C95.9749 15.896 96.0133 16.3573 96.067 16.5009C96.1015 16.5879 96.3047 16.7013 96.4543 16.7543C97.11 16.9925 97.7734 16.8791 98.0227 16.8299C98.1952 16.7959 98.3256 16.6598 98.3448 16.3157C98.3908 15.4044 98.364 13.8693 98.6439 12.7311C99.1156 10.8179 99.5566 10.0768 99.7675 9.70998C99.8825 9.5058 100.017 9.47177 100.021 9.68729C100.032 10.1297 100.055 11.4191 100.235 13.1584C100.37 14.4364 100.55 15.1927 100.688 15.4309C101.083 16.1153 101.57 16.1455 101.965 16.1455C102.218 16.1455 102.743 16.0775 102.697 15.6426C102.674 15.4309 102.716 14.1226 103.18 12.2358C103.487 11.0069 103.993 9.89526 104.177 9.49067C104.246 9.33942 104.277 9.46042 104.277 9.48311C104.239 10.3301 104.151 13.0979 104.503 14.6141C104.979 16.6673 106.359 16.8942 106.839 16.8942C107.863 16.8942 108.702 16.1304 108.986 14.115C109.04 13.6197 108.94 13.2416 108.637 13.2416ZM65.6767 11.9976C65.6192 13.0639 65.4045 13.9562 65.067 14.6028C64.4496 15.775 63.234 16.1455 62.6971 14.4516C62.3098 13.2302 62.4402 11.5665 62.6013 10.6666C62.839 9.33186 63.4373 8.38657 64.3729 8.47732C65.3354 8.57185 65.7994 9.78182 65.6767 11.9976ZM75.0526 12.0127C74.999 13.0185 74.7305 14.0318 74.4429 14.6028C73.8447 15.7825 72.5908 16.1531 72.0731 14.4516C71.7203 13.2907 71.8046 11.7896 71.9772 10.8443C72.2034 9.61545 72.7556 8.47732 73.7488 8.47732C74.7152 8.47732 75.1907 9.51714 75.0526 12.0127ZM75.2981 18.8831C75.2866 20.7207 74.9913 22.3277 74.3586 22.7966C73.4612 23.4583 72.2571 22.9629 72.5064 21.6244C72.7288 20.4371 73.768 19.2272 75.2981 17.7487C75.3019 17.7449 75.3019 18.0815 75.2981 18.8831ZM91.4806 12.024C91.4269 13.1281 91.1777 13.994 90.8709 14.6028C90.2727 15.7825 89.0264 16.1493 88.501 14.4516C88.2134 13.529 88.2019 11.9825 88.409 10.6931C88.6199 9.38102 89.2066 8.38657 90.1807 8.47732C91.1355 8.56807 91.5842 9.78182 91.4806 12.024Z" fill="#231F20"/>
<path fill-rule="evenodd" clip-rule="evenodd" d="M5.00135 21.9892C4.51071 21.9717 3.87838 21.9334 3.59097 21.8754V21.8754C3.15224 21.7868 2.73793 21.6524 2.39337 21.4768V21.4768C1.98855 21.2705 1.62573 21.0073 1.31244 20.6945V20.6945C0.998438 20.3811 0.734157 20.0179 0.527019 19.6125V19.6125C0.351898 19.2698 0.217648 18.858 0.128675 18.4218V18.4218C0.0694982 18.1315 0.0303607 17.4944 0.0126189 17.0006V17.0006C0.00542425 16.7988 0.00173275 16.5376 0.00173275 16.4171V16.4171L0 5.5846C0 5.46463 0.00365383 5.20336 0.0108108 5.00131V5.00131C0.0282513 4.51071 0.0666354 3.87838 0.124682 3.59097V3.59097C0.213241 3.15228 0.347604 2.73793 0.523176 2.39337V2.39337C0.729524 1.98851 0.992713 1.62577 1.30551 1.31244V1.31244C1.61891 0.998476 1.98211 0.734195 2.3875 0.527019V0.527019C2.73024 0.351936 3.14203 0.217648 3.57823 0.128675V0.128675C3.86854 0.0694982 4.50563 0.0303607 4.99942 0.0126566V0.0126566C5.20118 0.00542425 5.46241 0.00173275 5.58287 0.00173275V0.00173275L16.4154 0C16.5354 0 16.7967 0.00361617 16.9987 0.0108108V0.0108108C17.4893 0.028289 18.1217 0.0666354 18.409 0.124682V0.124682C18.8478 0.213278 19.2621 0.347642 19.6066 0.523176V0.523176C20.0114 0.729524 20.3743 0.992751 20.6876 1.30551V1.30551C21.0015 1.61895 21.2658 1.98207 21.473 2.3875V2.3875C21.6481 2.73024 21.7824 3.142 21.8713 3.57823V3.57823C21.9305 3.86854 21.9696 4.50567 21.9874 4.99942V4.99942C21.9946 5.20121 21.9983 5.46241 21.9983 5.58287V5.58287L22 16.4154C22 16.5354 21.9964 16.7967 21.9892 16.9987V16.9987C21.9717 17.4893 21.9334 18.1216 21.8753 18.409V18.409C21.7868 18.8478 21.6524 19.2621 21.4768 19.6066V19.6066C21.2705 20.0115 21.0072 20.3743 20.6945 20.6876V20.6876C20.3811 21.0015 20.0179 21.2658 19.6125 21.473V21.473C19.2698 21.6481 18.858 21.7824 18.4218 21.8713V21.8713C18.1315 21.9305 17.4944 21.9696 17.0006 21.9873V21.9873C16.7988 21.9946 16.5376 21.9983 16.4171 21.9983V21.9983L5.5846 22C5.46459 22 5.20332 21.9964 5.00135 21.9892" fill="url(#paint0_radial_423_29)"/>
<mask id="mask0_423_29" style="mask-type:alpha" maskUnits="userSpaceOnUse" x="0" y="0" width="22" height="22">
<path fill-rule="evenodd" clip-rule="evenodd" d="M5.00135 21.9892C4.51071 21.9717 3.87838 21.9334 3.59097 21.8754V21.8754C3.15224 21.7868 2.73793 21.6524 2.39337 21.4768V21.4768C1.98855 21.2705 1.62573 21.0073 1.31244 20.6945V20.6945C0.998438 20.3811 0.734157 20.0179 0.527019 19.6125V19.6125C0.351898 19.2698 0.217648 18.858 0.128675 18.4218V18.4218C0.0694982 18.1315 0.0303607 17.4944 0.0126189 17.0006V17.0006C0.00542425 16.7988 0.00173275 16.5376 0.00173275 16.4171V16.4171L0 5.5846C0 5.46463 0.00365383 5.20336 0.0108108 5.00131V5.00131C0.0282513 4.51071 0.0666354 3.87838 0.124682 3.59097V3.59097C0.213241 3.15228 0.347604 2.73793 0.523176 2.39337V2.39337C0.729524 1.98851 0.992713 1.62577 1.30551 1.31244V1.31244C1.61891 0.998476 1.98211 0.734195 2.3875 0.527019V0.527019C2.73024 0.351936 3.14203 0.217648 3.57823 0.128675V0.128675C3.86854 0.0694982 4.50563 0.0303607 4.99942 0.0126566V0.0126566C5.20118 0.00542425 5.46241 0.00173275 5.58287 0.00173275V0.00173275L16.4154 0C16.5354 0 16.7967 0.00361617 16.9987 0.0108108V0.0108108C17.4893 0.028289 18.1217 0.0666354 18.409 0.124682V0.124682C18.8478 0.213278 19.2621 0.347642 19.6066 0.523176V0.523176C20.0114 0.729524 20.3743 0.992751 20.6876 1.30551V1.30551C21.0015 1.61895 21.2658 1.98207 21.473 2.3875V2.3875C21.6481 2.73024 21.7824 3.142 21.8713 3.57823V3.57823C21.9305 3.86854 21.9696 4.50567 21.9874 4.99942V4.99942C21.9946 5.20121 21.9983 5.46241 21.9983 5.58287V5.58287L22 16.4154C22 16.5354 21.9964 16.7967 21.9892 16.9987V16.9987C21.9717 17.4893 21.9334 18.1216 21.8753 18.409V18.409C21.7868 18.8478 21.6524 19.2621 21.4768 19.6066V19.6066C21.2705 20.0115 21.0072 20.3743 20.6945 20.6876V20.6876C20.3811 21.0015 20.0179 21.2658 19.6125 21.473V21.473C19.2698 21.6481 18.858 21.7824 18.4218 21.8713V21.8713C18.1315 21.9305 17.4944 21.9696 17.0006 21.9873V21.9873C16.7988 21.9946 16.5376 21.9983 16.4171 21.9983V21.9983L5.5846 22C5.46459 22 5.20332 21.9964 5.00135 21.9892" fill="white"/>
</mask>
<g mask="url(#mask0_423_29)">
<path fill-rule="evenodd" clip-rule="evenodd" d="M11.0456 2.83008C8.83554 2.83008 8.55817 2.8398 7.69013 2.87952C6.82379 2.91941 6.23244 3.05734 5.71501 3.25971C5.17977 3.46873 4.72575 3.74833 4.27342 4.20337C3.82075 4.65824 3.54271 5.11481 3.33417 5.65287C3.13242 6.17338 2.9951 6.76822 2.9561 7.63908C2.91728 8.51198 2.9071 8.79107 2.9071 11.0136C2.9071 13.2361 2.91694 13.5141 2.95627 14.3871C2.99611 15.2583 3.13327 15.8529 3.33434 16.3733C3.54237 16.9115 3.82041 17.3681 4.27291 17.8229C4.72507 18.2781 5.17909 18.5584 5.71399 18.7674C6.23176 18.9698 6.82328 19.1077 7.68946 19.1476C8.5575 19.1874 8.83469 19.1971 11.0446 19.1971C13.2549 19.1971 13.5314 19.1874 14.3995 19.1476C15.2658 19.1077 15.8578 18.9698 16.3756 18.7674C16.9107 18.5584 17.364 18.2781 17.8162 17.8229C18.2689 17.3681 18.5469 16.9115 18.7554 16.3734C18.9555 15.8529 19.0928 15.2581 19.1335 14.3872C19.1725 13.5143 19.1827 13.2361 19.1827 11.0136C19.1827 8.79107 19.1725 8.51215 19.1335 7.63925C19.0928 6.76805 18.9555 6.17338 18.7554 5.65304C18.5469 5.11481 18.2689 4.65824 17.8162 4.20337C17.3635 3.74816 16.9108 3.46856 16.3751 3.25971C15.8563 3.05734 15.2646 2.91941 14.3983 2.87952C13.5302 2.8398 13.2539 2.83008 11.0431 2.83008H11.0456ZM10.3156 4.30477C10.4574 4.30455 10.6099 4.30462 10.7744 4.30469L11.0457 4.30477C13.2185 4.30477 13.476 4.31262 14.334 4.35183C15.1275 4.38831 15.5581 4.52164 15.845 4.63365C16.2247 4.78197 16.4955 4.95928 16.7801 5.24571C17.065 5.53213 17.2413 5.80491 17.3891 6.18681C17.5005 6.47494 17.6333 6.90798 17.6694 7.70587C17.7084 8.56855 17.7168 8.82769 17.7168 11.0117C17.7168 13.1956 17.7084 13.4548 17.6694 14.3175C17.6331 15.1153 17.5005 15.5484 17.3891 15.8365C17.2416 16.2184 17.065 16.4903 16.7801 16.7766C16.4953 17.063 16.2249 17.2403 15.845 17.3887C15.5584 17.5012 15.1275 17.6342 14.334 17.6706C13.4762 17.7099 13.2185 17.7184 11.0457 17.7184C8.87268 17.7184 8.61515 17.7099 7.75728 17.6706C6.96384 17.6338 6.53321 17.5005 6.24618 17.3885C5.86641 17.2402 5.59515 17.0628 5.31033 16.7764C5.0255 16.49 4.84918 16.2179 4.70134 15.8358C4.58995 15.5477 4.45721 15.1147 4.42109 14.3168C4.3821 13.4541 4.3743 13.195 4.3743 11.0096C4.3743 8.82428 4.3821 8.5665 4.42109 7.70382C4.45738 6.90593 4.58995 6.47289 4.70134 6.18442C4.84884 5.80253 5.0255 5.52974 5.31033 5.24332C5.59515 4.9569 5.86641 4.77959 6.24618 4.63092C6.53304 4.5184 6.96384 4.38542 7.75728 4.34876C8.508 4.31466 8.79893 4.30443 10.3156 4.30273V4.30477ZM14.413 6.64533C14.413 6.103 14.8505 5.66365 15.3896 5.66365V5.66331C15.9287 5.66331 16.3661 6.10317 16.3661 6.64533C16.3661 7.18749 15.9287 7.62735 15.3896 7.62735C14.8505 7.62735 14.413 7.18749 14.413 6.64533ZM11.0455 6.81101C8.73762 6.8111 6.86652 8.69276 6.86652 11.0136C6.86652 13.3344 8.73772 15.2153 11.0456 15.2153C13.3536 15.2153 15.2241 13.3344 15.2241 11.0136C15.2241 8.6927 13.3534 6.81101 11.0455 6.81101ZM13.7583 11.0136C13.7583 9.50696 12.5437 8.28574 11.0457 8.28574C9.54744 8.28574 8.33304 9.50696 8.33304 11.0136C8.33304 12.52 9.54744 13.7414 11.0457 13.7414C12.5437 13.7414 13.7583 12.52 13.7583 11.0136Z" fill="white"/>
</g>
<defs>
<radialGradient id="paint0_radial_423_29" cx="0" cy="0" r="1" gradientUnits="userSpaceOnUse" gradientTransform="translate(5.84379 23.6945) rotate(-90) scale(21.8036)">
<stop stop-color="#FFDD55"/>
<stop offset="0.1" stop-color="#FFDD55"/>
<stop offset="0.5" stop-color="#FF543E"/>
<stop offset="1" stop-color="#803DDE"/>
</radialGradient>
</defs>
</svg>
