<?xml version="1.0" encoding="UTF-8" standalone="no"?>
<!DOCTYPE svg PUBLIC "-//W3C//DTD SVG 1.1//EN" "http://www.w3.org/Graphics/SVG/1.1/DTD/svg11.dtd">
<svg width="100%" height="100%" viewBox="0 0 2198 814" version="1.1" xmlns="http://www.w3.org/2000/svg" xmlns:xlink="http://www.w3.org/1999/xlink" xml:space="preserve" xmlns:serif="http://www.serif.com/" style="fill-rule:evenodd;clip-rule:evenodd;stroke-linecap:round;stroke-linejoin:round;stroke-miterlimit:1.5;">
    <g transform="matrix(1,0,0,1,-2587.1,-3392.98)">
        <g transform="matrix(1.13382,0,0,1.13382,-3881.76,1081.28)">
            <g transform="matrix(1.15442,-1.4687,1.4687,1.15442,4037.77,3125.95)">
                <path d="M912.538,516.722C910.047,511.938 909.257,506.448 910.3,501.155C911.578,494.669 913.445,485.194 915.259,475.988C916.702,468.667 914.955,461.078 910.457,455.124C905.959,449.17 899.136,445.417 891.699,444.804C891.698,444.804 891.698,444.804 891.697,444.804C883.321,444.114 875.035,446.939 868.826,452.602C862.616,458.265 859.041,466.255 858.958,474.659C858.624,497.302 862.161,518.174 869.196,537.465C871.551,544.024 876.609,549.255 883.085,551.828C889.562,554.401 896.831,554.068 903.045,550.913C903.07,550.962 903.07,550.962 903.07,550.962C908.775,548.065 913.085,543.007 915.04,536.914C916.995,530.821 916.432,524.199 913.476,518.524C913.154,517.906 912.841,517.303 912.538,516.722Z" style="fill:rgb(112,181,0);"/>
            </g>
            <g transform="matrix(-1.15442,-1.4687,-1.4687,1.15442,8036.55,3125.95)">
                <path d="M912.538,516.722C910.047,511.938 909.257,506.448 910.3,501.155C911.578,494.669 913.445,485.194 915.259,475.988C916.702,468.667 914.955,461.078 910.457,455.124C905.959,449.17 899.136,445.417 891.699,444.804C891.698,444.804 891.698,444.804 891.697,444.804C883.321,444.114 875.035,446.939 868.826,452.602C862.616,458.265 859.041,466.255 858.958,474.659C858.624,497.302 862.161,518.174 869.196,537.465C871.551,544.024 876.609,549.255 883.085,551.828C889.562,554.401 896.831,554.068 903.045,550.913C903.07,550.962 903.07,550.962 903.07,550.962C908.775,548.065 913.085,543.007 915.04,536.914C916.995,530.821 916.432,524.199 913.476,518.524C913.154,517.906 912.841,517.303 912.538,516.722Z" style="fill:rgb(112,181,0);"/>
            </g>
            <g transform="matrix(4.42126,0,0,4.42126,3440.78,346.729)">
                <path d="M617.803,505.709L556.696,505.709C522.429,427.472 535.136,390.994 581.837,384.733C585.429,384.25 589.07,384.25 592.662,384.733C639.363,390.994 652.07,427.472 617.803,505.709Z" style="fill:rgb(112,181,0);"/>
                <clipPath id="_clip1">
                    <path d="M617.803,505.709L556.696,505.709C522.429,427.472 535.136,390.994 581.837,384.733C585.429,384.25 589.07,384.25 592.662,384.733C639.363,390.994 652.07,427.472 617.803,505.709Z"/>
                </clipPath>
                <g clip-path="url(#_clip1)">
                    <g transform="matrix(1,0,0,1,-13.6867,3.03083)">
                        <path d="M617.803,505.709L556.696,505.709C522.429,427.472 535.136,390.994 581.837,384.733C585.429,384.25 589.07,384.25 592.662,384.733C639.363,390.994 652.07,427.472 617.803,505.709Z" style="fill:rgb(150,203,25);"/>
                    </g>
                </g>
            </g>
            <g transform="matrix(1,0,0,1,3676.71,2005.03)">
                <g transform="matrix(1,0,0,1,28.3508,0)">
                    <g transform="matrix(0.776249,0,0,0.776249,151.265,562.586)">
                        <ellipse cx="2692.95" cy="-275.74" rx="31.721" ry="21.106" style="fill:rgb(255,92,153);"/>
                    </g>
                    <g>
                        <path d="M2200.28,297.071C2209.36,302.388 2217.94,304.658 2225.54,302.843C2230.86,301.572 2235.83,298.358 2240.2,292.501C2241.69,290.511 2241.28,287.689 2239.29,286.203C2237.3,284.717 2234.48,285.126 2232.99,287.117C2230.11,290.974 2226.96,293.252 2223.45,294.089C2217.81,295.436 2211.57,293.25 2204.83,289.304C2202.69,288.05 2199.93,288.771 2198.67,290.914C2197.42,293.057 2198.14,295.816 2200.28,297.071ZM2203.05,258.368C2204.69,268.761 2208.37,276.833 2214.59,281.563C2218.95,284.875 2224.59,286.681 2231.89,286.351C2234.37,286.239 2236.29,284.134 2236.18,281.653C2236.07,279.172 2233.96,277.248 2231.48,277.36C2226.67,277.578 2222.91,276.58 2220.04,274.398C2215.42,270.888 2213.16,264.675 2211.94,256.963C2211.55,254.509 2209.24,252.833 2206.79,253.22C2204.34,253.608 2202.66,255.915 2203.05,258.368Z"/>
                        <g transform="matrix(0.475891,0,0,0.475891,1254.01,450.802)">
                            <ellipse cx="2087" cy="-327.85" rx="45.287" ry="65.644"/>
                        </g>
                    </g>
                    <g transform="matrix(0.21088,0,0,0.161306,1797.53,337.076)">
                        <ellipse cx="2087" cy="-327.85" rx="45.287" ry="65.644" style="fill:white;"/>
                    </g>
                </g>
                <g transform="matrix(-1,0,0,1,4692.54,0)">
                    <g transform="matrix(0.776249,0,0,0.776249,151.265,562.586)">
                        <ellipse cx="2692.95" cy="-275.74" rx="31.721" ry="21.106" style="fill:rgb(255,92,153);"/>
                    </g>
                    <g>
                        <path d="M2200.28,297.071C2209.36,302.388 2217.94,304.658 2225.54,302.843C2230.86,301.572 2235.83,298.358 2240.2,292.501C2241.69,290.511 2241.28,287.689 2239.29,286.203C2237.3,284.717 2234.48,285.126 2232.99,287.117C2230.11,290.974 2226.96,293.252 2223.45,294.089C2217.81,295.436 2211.57,293.25 2204.83,289.304C2202.69,288.05 2199.93,288.771 2198.67,290.914C2197.42,293.057 2198.14,295.816 2200.28,297.071ZM2203.05,258.368C2204.69,268.761 2208.37,276.833 2214.59,281.563C2218.95,284.875 2224.59,286.681 2231.89,286.351C2234.37,286.239 2236.29,284.134 2236.18,281.653C2236.07,279.172 2233.96,277.248 2231.48,277.36C2226.67,277.578 2222.91,276.58 2220.04,274.398C2215.42,270.888 2213.16,264.675 2211.94,256.963C2211.55,254.509 2209.24,252.833 2206.79,253.22C2204.34,253.608 2202.66,255.915 2203.05,258.368Z"/>
                        <g transform="matrix(0.475891,0,0,0.475891,1254.01,450.802)">
                            <ellipse cx="2087" cy="-327.85" rx="45.287" ry="65.644"/>
                        </g>
                    </g>
                    <g transform="matrix(0.21088,0,0,0.161306,1816.63,337.076)">
                        <ellipse cx="2087" cy="-327.85" rx="45.287" ry="65.644" style="fill:white;"/>
                    </g>
                </g>
            </g>
            <g transform="matrix(1,0,0,1,3680.19,1631.04)">
                <path d="M2316.47,1125.68C2298.95,1125.68 2281.72,1121.19 2266.43,1112.63C2210.26,1080.89 2172.27,1020.63 2172.27,951.564L2541.67,951.564L2541.66,952.161C2541.44,1020.98 2503.51,1080.98 2447.48,1112.57C2432.2,1121.12 2414.98,1125.61 2397.47,1125.61C2374.82,1125.68 2339.12,1125.68 2316.47,1125.68Z" style="fill:rgb(255,41,115);"/>
                <clipPath id="_clip2">
                    <path d="M2316.47,1125.68C2298.95,1125.68 2281.72,1121.19 2266.43,1112.63C2210.26,1080.89 2172.27,1020.63 2172.27,951.564L2541.67,951.564L2541.66,952.161C2541.44,1020.98 2503.51,1080.98 2447.48,1112.57C2432.2,1121.12 2414.98,1125.61 2397.47,1125.61C2374.82,1125.68 2339.12,1125.68 2316.47,1125.68Z"/>
                </clipPath>
                <g clip-path="url(#_clip2)">
                    <g transform="matrix(1,0,0,1,-60.5124,-10.0645)">
                        <path d="M2295.25,1125.68C2223.62,1100.26 2172.27,1031.86 2172.27,951.564L2541.67,951.564L2541.66,952.161C2541.41,1032.21 2490.13,1100.33 2418.68,1125.68L2295.25,1125.68Z" style="fill:rgb(254,67,136);"/>
                    </g>
                </g>
            </g>
            <g transform="matrix(0.139338,-0.166362,0.166362,0.139338,5942.79,2048.04)">
                <path d="M0,0.01C0,24.06 -4.78,47.61 -13.81,69.4C-22.84,91.19 -36.12,111.22 -53.12,128.23C-87.12,162.24 -133.25,181.34 -181.34,181.34C-229.43,181.34 -275.56,162.24 -309.56,128.23C-275.56,162.24 -256.45,208.36 -256.45,256.45C-256.45,304.54 -275.56,350.67 -309.56,384.67C-326.56,401.68 -346.6,414.96 -368.39,423.98C-390.18,433.01 -413.74,437.79 -437.79,437.79C-485.88,437.79 -532,418.68 -566.01,384.67C-583.02,367.67 -596.29,347.64 -605.32,325.84C-614.34,304.05 -619.12,280.5 -619.12,256.45C-619.12,208.36 -600.02,162.24 -566.01,128.23C-600.02,162.24 -646.14,181.34 -694.23,181.34C-742.32,181.34 -788.45,162.24 -822.45,128.23C-839.46,111.22 -852.74,91.19 -861.76,69.4C-870.79,47.61 -875.57,24.06 -875.57,0.01C-875.57,-48.09 -856.46,-94.21 -822.45,-128.22C-805.45,-145.22 -785.42,-158.5 -763.62,-167.52C-741.83,-176.55 -718.28,-181.33 -694.23,-181.33C-646.14,-181.33 -600.02,-162.22 -566.01,-128.22C-600.02,-162.22 -619.12,-208.35 -619.12,-256.44C-619.12,-304.53 -600.02,-350.66 -566.01,-384.66C-549,-401.66 -528.97,-414.94 -507.18,-423.97C-485.39,-433 -461.84,-437.78 -437.79,-437.78C-389.69,-437.78 -343.57,-418.67 -309.56,-384.66C-292.56,-367.66 -279.28,-347.63 -270.26,-325.83C-261.23,-304.04 -256.45,-280.48 -256.45,-256.44C-256.45,-208.35 -275.56,-162.22 -309.56,-128.22C-275.56,-162.22 -229.43,-181.33 -181.34,-181.33C-157.3,-181.33 -133.74,-176.55 -111.95,-167.52C-90.15,-158.5 -70.12,-145.22 -53.12,-128.22C-19.11,-94.21 0,-48.09 0,0.01" style="fill:rgb(254,67,136);"/>
            </g>
            <g transform="matrix(1,0,0,1,3667.46,2009.06)">
                <circle cx="2214.34" cy="111.815" r="25.332" style="fill:rgb(255,192,0);"/>
            </g>
            <g transform="matrix(1,0,0,1,3689.55,2013.21)">
                <path d="M2287.09,385.285C2326.9,417.075 2367.22,418.544 2408.12,385.285" style="fill:none;stroke:rgb(137,177,0);stroke-width:7.94px;"/>
            </g>
        </g>
        <g transform="matrix(1.9764,0,0,1.9764,-1758.88,-5004.29)">
            <g transform="matrix(1,0,0,1,-920.669,1529.19)">
                <path d="M4093.75,2797.68C4094.12,2797.35 4094.5,2797.03 4094.88,2796.7C4103.56,2788.79 4115.38,2782.69 4130.33,2778.4C4145.29,2774.11 4162.93,2771.97 4183.27,2771.97C4192.94,2771.97 4201.27,2772.11 4208.25,2772.38C4215.23,2772.66 4219.61,2772.9 4221.36,2773.12L4226.97,2817.48C4224.22,2817.37 4219.88,2817.07 4213.94,2816.58C4208.01,2816.08 4200.59,2815.83 4191.68,2815.83C4185.52,2815.83 4179.61,2816.27 4173.95,2817.15C4168.29,2818.03 4162.88,2819.35 4157.71,2821.11C4152.87,2822.65 4149.05,2824.96 4146.25,2828.04C4143.44,2831.12 4142.04,2834.85 4142.04,2839.25C4142.04,2843.32 4143.58,2847.14 4146.66,2850.71C4149.74,2854.28 4155.12,2858.11 4162.82,2862.17C4167.88,2864.7 4173.79,2867.51 4180.55,2870.58C4187.31,2873.66 4193.93,2877.07 4200.42,2880.81C4210.86,2887.08 4218.67,2894.3 4223.84,2902.49C4229.01,2910.68 4231.59,2920.11 4231.59,2930.78C4231.59,2942.87 4228.43,2953.29 4222.11,2962.03C4215.78,2970.77 4207.18,2977.99 4196.3,2983.71C4186.73,2988.77 4174.94,2992.51 4160.93,2994.93C4146.91,2997.34 4132.75,2998.55 4118.46,2998.55C4108.13,2998.55 4098.86,2998.36 4090.67,2997.98C4082.48,2997.59 4077.07,2997.29 4074.43,2997.07L4069.48,2952.71C4070.8,2952.93 4075.83,2953.29 4084.57,2953.78C4093.31,2954.28 4101.15,2954.52 4108.07,2954.52C4113.24,2954.52 4119.67,2954.08 4127.37,2953.2C4135.06,2952.32 4141.49,2951.11 4146.66,2949.58C4153.59,2947.49 4158.45,2944.82 4161.26,2941.58C4164.06,2938.33 4165.46,2934.35 4165.46,2929.62C4165.46,2924.34 4163.92,2919.92 4160.84,2916.35C4157.76,2912.77 4152.49,2909.06 4145.01,2905.22C4140.39,2902.91 4134.15,2899.99 4126.29,2896.47C4118.43,2892.96 4111.7,2889.44 4106.09,2885.92C4095.32,2879.43 4087.6,2872.12 4082.92,2863.99C4078.25,2855.85 4075.91,2846.84 4075.91,2836.94C4075.91,2830.74 4076.84,2825 4078.7,2819.72C4075.36,2819.69 4071.59,2819.66 4067.37,2819.63C4054.39,2819.52 4038.73,2819.46 4020.37,2819.46C4020.15,2836.72 4019.98,2850.58 4019.87,2861.02C4019.76,2871.46 4019.71,2884.99 4019.71,2901.59C4019.71,2920.39 4019.79,2938.55 4019.95,2956.09C4020.12,2973.62 4020.26,2986.68 4020.37,2995.26L3965.78,2995.26C3965.89,2987.01 3966.03,2974.45 3966.19,2957.57C3966.36,2940.7 3966.44,2921.98 3966.44,2901.42C3966.44,2886.25 3966.41,2873.33 3966.36,2862.67C3966.3,2852 3966.17,2837.6 3965.95,2819.46C3947.92,2819.46 3931.81,2819.52 3917.63,2819.63C3903.45,2819.74 3895.04,2819.79 3892.4,2819.79L3892.4,2774.77C3900.97,2774.77 3914.99,2774.8 3934.45,2774.85C3953.91,2774.91 3973.31,2774.94 3992.66,2774.94C4014.98,2774.94 4036.34,2774.91 4056.73,2774.85C4077.12,2774.8 4089.46,2774.77 4093.75,2774.77L4093.75,2797.68ZM3910.26,2930.12C3910.26,2942.43 3906.47,2953.37 3898.88,2962.93C3891.3,2972.5 3880.47,2979.86 3866.4,2985.03C3854.96,2989.21 3841.74,2992.07 3826.74,2993.61C3811.73,2995.14 3795.27,2995.91 3777.35,2995.91C3767.67,2995.91 3757.56,2995.78 3747,2995.5C3736.45,2995.23 3728.64,2994.98 3723.59,2994.76C3723.81,2976.73 3723.97,2958.34 3724.08,2939.6C3724.19,2920.85 3724.24,2900.71 3724.24,2879.16C3724.24,2855.63 3724.14,2832.63 3723.91,2810.14C3723.7,2787.66 3723.59,2775.82 3723.59,2774.61C3725.45,2774.61 3731.56,2774.39 3741.89,2773.95C3752.22,2773.51 3763.33,2773.29 3775.2,2773.29C3793.12,2773.29 3808.02,2773.78 3819.89,2774.77C3831.77,2775.76 3842.54,2777.74 3852.21,2780.71C3864.42,2784.45 3874.09,2790.24 3881.24,2798.11C3888.39,2805.97 3891.96,2815.61 3891.96,2827.05C3891.96,2837.49 3888.91,2847 3882.81,2855.58C3876.7,2864.15 3868.6,2870.47 3858.48,2874.54L3858.48,2875.7C3864.86,2876.58 3870.82,2878.14 3876.37,2880.4C3881.93,2882.65 3886.9,2885.7 3891.3,2889.55C3897.78,2894.5 3902.57,2900.3 3905.64,2906.95C3908.72,2913.6 3910.26,2921.32 3910.26,2930.12ZM3704.41,2995.09C3700.23,2995.09 3689.43,2995.03 3672,2994.93C3654.58,2994.82 3637.73,2994.76 3621.46,2994.76C3608.48,2994.76 3595.81,2994.82 3583.44,2994.93C3571.08,2995.03 3559.07,2995.09 3547.41,2995.09C3547.52,2976.62 3547.66,2956.72 3547.82,2935.39C3547.99,2914.07 3548.07,2895.38 3548.07,2879.32C3548.07,2850.41 3547.99,2827.3 3547.82,2809.98C3547.66,2792.66 3547.52,2780.82 3547.41,2774.44L3602,2774.44C3601.89,2787.74 3601.78,2802.61 3601.67,2819.05C3601.56,2835.49 3601.5,2850.74 3601.5,2864.81C3601.5,2885.92 3601.56,2904.8 3601.67,2921.46C3601.78,2938.11 3601.83,2947.71 3601.83,2950.24C3606.78,2950.24 3612.44,2950.26 3618.82,2950.32C3625.19,2950.37 3630.91,2950.4 3635.97,2950.4C3650.48,2950.4 3664.72,2950.35 3678.68,2950.24C3692.64,2950.12 3701.22,2950.07 3704.41,2950.07L3704.41,2995.09ZM3854.36,2924.01C3854.36,2918.96 3853.37,2914.56 3851.39,2910.82C3849.41,2907.08 3846.72,2903.68 3843.31,2900.6C3840.34,2898.07 3836.38,2895.98 3831.44,2894.33C3826.49,2892.68 3821.16,2891.86 3815.44,2891.86C3811.04,2891.86 3807.41,2891.91 3804.56,2892.02C3801.7,2892.13 3799.94,2892.19 3799.28,2892.19L3794.66,2871.24C3800.49,2871.02 3805.93,2870.17 3810.99,2868.69C3816.04,2867.2 3820.28,2865.25 3823.68,2862.83C3827.31,2860.08 3830.31,2856.7 3832.67,2852.69C3835.04,2848.68 3836.22,2843.76 3836.22,2837.93C3836.22,2832.98 3834.93,2828.42 3832.34,2824.24C3829.76,2820.07 3826.21,2816.77 3821.71,2814.35C3817.86,2812.48 3813.32,2811.11 3808.1,2810.23C3802.88,2809.35 3797.36,2808.91 3791.53,2808.91C3788.56,2808.91 3785.51,2808.96 3782.38,2809.07C3779.24,2809.18 3777.13,2809.24 3776.03,2809.24C3775.81,2820.34 3775.67,2832.65 3775.61,2846.18C3775.56,2859.7 3775.53,2871.68 3775.53,2882.13C3775.53,2892.9 3775.59,2907.77 3775.7,2926.74C3775.81,2945.7 3775.86,2955.95 3775.86,2957.49C3777.4,2957.49 3779.74,2957.57 3782.87,2957.74C3786,2957.9 3789.55,2957.99 3793.51,2957.99C3802.08,2957.99 3810.36,2957.52 3818.33,2956.58C3826.3,2955.65 3832.92,2953.7 3838.2,2950.73C3843.25,2948.09 3847.21,2944.46 3850.07,2939.85C3852.93,2935.23 3854.36,2929.95 3854.36,2924.01Z" style="fill:rgb(255,58,130);fill-rule:nonzero;"/>
                <clipPath id="_clip3">
                    <path d="M4093.75,2797.68C4094.12,2797.35 4094.5,2797.03 4094.88,2796.7C4103.56,2788.79 4115.38,2782.69 4130.33,2778.4C4145.29,2774.11 4162.93,2771.97 4183.27,2771.97C4192.94,2771.97 4201.27,2772.11 4208.25,2772.38C4215.23,2772.66 4219.61,2772.9 4221.36,2773.12L4226.97,2817.48C4224.22,2817.37 4219.88,2817.07 4213.94,2816.58C4208.01,2816.08 4200.59,2815.83 4191.68,2815.83C4185.52,2815.83 4179.61,2816.27 4173.95,2817.15C4168.29,2818.03 4162.88,2819.35 4157.71,2821.11C4152.87,2822.65 4149.05,2824.96 4146.25,2828.04C4143.44,2831.12 4142.04,2834.85 4142.04,2839.25C4142.04,2843.32 4143.58,2847.14 4146.66,2850.71C4149.74,2854.28 4155.12,2858.11 4162.82,2862.17C4167.88,2864.7 4173.79,2867.51 4180.55,2870.58C4187.31,2873.66 4193.93,2877.07 4200.42,2880.81C4210.86,2887.08 4218.67,2894.3 4223.84,2902.49C4229.01,2910.68 4231.59,2920.11 4231.59,2930.78C4231.59,2942.87 4228.43,2953.29 4222.11,2962.03C4215.78,2970.77 4207.18,2977.99 4196.3,2983.71C4186.73,2988.77 4174.94,2992.51 4160.93,2994.93C4146.91,2997.34 4132.75,2998.55 4118.46,2998.55C4108.13,2998.55 4098.86,2998.36 4090.67,2997.98C4082.48,2997.59 4077.07,2997.29 4074.43,2997.07L4069.48,2952.71C4070.8,2952.93 4075.83,2953.29 4084.57,2953.78C4093.31,2954.28 4101.15,2954.52 4108.07,2954.52C4113.24,2954.52 4119.67,2954.08 4127.37,2953.2C4135.06,2952.32 4141.49,2951.11 4146.66,2949.58C4153.59,2947.49 4158.45,2944.82 4161.26,2941.58C4164.06,2938.33 4165.46,2934.35 4165.46,2929.62C4165.46,2924.34 4163.92,2919.92 4160.84,2916.35C4157.76,2912.77 4152.49,2909.06 4145.01,2905.22C4140.39,2902.91 4134.15,2899.99 4126.29,2896.47C4118.43,2892.96 4111.7,2889.44 4106.09,2885.92C4095.32,2879.43 4087.6,2872.12 4082.92,2863.99C4078.25,2855.85 4075.91,2846.84 4075.91,2836.94C4075.91,2830.74 4076.84,2825 4078.7,2819.72C4075.36,2819.69 4071.59,2819.66 4067.37,2819.63C4054.39,2819.52 4038.73,2819.46 4020.37,2819.46C4020.15,2836.72 4019.98,2850.58 4019.87,2861.02C4019.76,2871.46 4019.71,2884.99 4019.71,2901.59C4019.71,2920.39 4019.79,2938.55 4019.95,2956.09C4020.12,2973.62 4020.26,2986.68 4020.37,2995.26L3965.78,2995.26C3965.89,2987.01 3966.03,2974.45 3966.19,2957.57C3966.36,2940.7 3966.44,2921.98 3966.44,2901.42C3966.44,2886.25 3966.41,2873.33 3966.36,2862.67C3966.3,2852 3966.17,2837.6 3965.95,2819.46C3947.92,2819.46 3931.81,2819.52 3917.63,2819.63C3903.45,2819.74 3895.04,2819.79 3892.4,2819.79L3892.4,2774.77C3900.97,2774.77 3914.99,2774.8 3934.45,2774.85C3953.91,2774.91 3973.31,2774.94 3992.66,2774.94C4014.98,2774.94 4036.34,2774.91 4056.73,2774.85C4077.12,2774.8 4089.46,2774.77 4093.75,2774.77L4093.75,2797.68ZM3910.26,2930.12C3910.26,2942.43 3906.47,2953.37 3898.88,2962.93C3891.3,2972.5 3880.47,2979.86 3866.4,2985.03C3854.96,2989.21 3841.74,2992.07 3826.74,2993.61C3811.73,2995.14 3795.27,2995.91 3777.35,2995.91C3767.67,2995.91 3757.56,2995.78 3747,2995.5C3736.45,2995.23 3728.64,2994.98 3723.59,2994.76C3723.81,2976.73 3723.97,2958.34 3724.08,2939.6C3724.19,2920.85 3724.24,2900.71 3724.24,2879.16C3724.24,2855.63 3724.14,2832.63 3723.91,2810.14C3723.7,2787.66 3723.59,2775.82 3723.59,2774.61C3725.45,2774.61 3731.56,2774.39 3741.89,2773.95C3752.22,2773.51 3763.33,2773.29 3775.2,2773.29C3793.12,2773.29 3808.02,2773.78 3819.89,2774.77C3831.77,2775.76 3842.54,2777.74 3852.21,2780.71C3864.42,2784.45 3874.09,2790.24 3881.24,2798.11C3888.39,2805.97 3891.96,2815.61 3891.96,2827.05C3891.96,2837.49 3888.91,2847 3882.81,2855.58C3876.7,2864.15 3868.6,2870.47 3858.48,2874.54L3858.48,2875.7C3864.86,2876.58 3870.82,2878.14 3876.37,2880.4C3881.93,2882.65 3886.9,2885.7 3891.3,2889.55C3897.78,2894.5 3902.57,2900.3 3905.64,2906.95C3908.72,2913.6 3910.26,2921.32 3910.26,2930.12ZM3704.41,2995.09C3700.23,2995.09 3689.43,2995.03 3672,2994.93C3654.58,2994.82 3637.73,2994.76 3621.46,2994.76C3608.48,2994.76 3595.81,2994.82 3583.44,2994.93C3571.08,2995.03 3559.07,2995.09 3547.41,2995.09C3547.52,2976.62 3547.66,2956.72 3547.82,2935.39C3547.99,2914.07 3548.07,2895.38 3548.07,2879.32C3548.07,2850.41 3547.99,2827.3 3547.82,2809.98C3547.66,2792.66 3547.52,2780.82 3547.41,2774.44L3602,2774.44C3601.89,2787.74 3601.78,2802.61 3601.67,2819.05C3601.56,2835.49 3601.5,2850.74 3601.5,2864.81C3601.5,2885.92 3601.56,2904.8 3601.67,2921.46C3601.78,2938.11 3601.83,2947.71 3601.83,2950.24C3606.78,2950.24 3612.44,2950.26 3618.82,2950.32C3625.19,2950.37 3630.91,2950.4 3635.97,2950.4C3650.48,2950.4 3664.72,2950.35 3678.68,2950.24C3692.64,2950.12 3701.22,2950.07 3704.41,2950.07L3704.41,2995.09ZM3854.36,2924.01C3854.36,2918.96 3853.37,2914.56 3851.39,2910.82C3849.41,2907.08 3846.72,2903.68 3843.31,2900.6C3840.34,2898.07 3836.38,2895.98 3831.44,2894.33C3826.49,2892.68 3821.16,2891.86 3815.44,2891.86C3811.04,2891.86 3807.41,2891.91 3804.56,2892.02C3801.7,2892.13 3799.94,2892.19 3799.28,2892.19L3794.66,2871.24C3800.49,2871.02 3805.93,2870.17 3810.99,2868.69C3816.04,2867.2 3820.28,2865.25 3823.68,2862.83C3827.31,2860.08 3830.31,2856.7 3832.67,2852.69C3835.04,2848.68 3836.22,2843.76 3836.22,2837.93C3836.22,2832.98 3834.93,2828.42 3832.34,2824.24C3829.76,2820.07 3826.21,2816.77 3821.71,2814.35C3817.86,2812.48 3813.32,2811.11 3808.1,2810.23C3802.88,2809.35 3797.36,2808.91 3791.53,2808.91C3788.56,2808.91 3785.51,2808.96 3782.38,2809.07C3779.24,2809.18 3777.13,2809.24 3776.03,2809.24C3775.81,2820.34 3775.67,2832.65 3775.61,2846.18C3775.56,2859.7 3775.53,2871.68 3775.53,2882.13C3775.53,2892.9 3775.59,2907.77 3775.7,2926.74C3775.81,2945.7 3775.86,2955.95 3775.86,2957.49C3777.4,2957.49 3779.74,2957.57 3782.87,2957.74C3786,2957.9 3789.55,2957.99 3793.51,2957.99C3802.08,2957.99 3810.36,2957.52 3818.33,2956.58C3826.3,2955.65 3832.92,2953.7 3838.2,2950.73C3843.25,2948.09 3847.21,2944.46 3850.07,2939.85C3852.93,2935.23 3854.36,2929.95 3854.36,2924.01Z" clip-rule="nonzero"/>
                </clipPath>
                <g clip-path="url(#_clip3)">
                    <g transform="matrix(1.10412,0,0,1,-392.815,52.3452)">
                        <ellipse cx="3878.5" cy="3110.5" rx="619.5" ry="322.5" style="fill:rgb(229,53,118);"/>
                    </g>
                </g>
            </g>
            <g transform="matrix(1,0,0,1,-920.669,1529.19)">
                <g transform="matrix(37.1695,0,0,37.1695,3622.18,3078.31)">
                    <path d="M0.085,-0.7L0.381,-0.7C0.456,-0.7 0.514,-0.685 0.557,-0.655C0.6,-0.625 0.621,-0.581 0.621,-0.523C0.621,-0.483 0.611,-0.45 0.59,-0.424C0.569,-0.397 0.543,-0.379 0.511,-0.369C0.549,-0.358 0.582,-0.339 0.609,-0.311C0.636,-0.282 0.649,-0.243 0.649,-0.194C0.649,-0.157 0.641,-0.125 0.624,-0.098C0.607,-0.071 0.585,-0.05 0.557,-0.037C0.529,-0.024 0.501,-0.014 0.473,-0.009C0.444,-0.003 0.414,-0 0.383,-0L0.085,-0L0.085,-0.7ZM0.533,-0.206C0.533,-0.277 0.485,-0.313 0.388,-0.313L0.199,-0.313L0.199,-0.1L0.372,-0.1C0.395,-0.1 0.415,-0.101 0.431,-0.103C0.447,-0.105 0.464,-0.109 0.481,-0.116C0.498,-0.123 0.51,-0.133 0.52,-0.149C0.529,-0.164 0.533,-0.183 0.533,-0.206ZM0.505,-0.505C0.505,-0.569 0.46,-0.601 0.369,-0.601L0.199,-0.601L0.199,-0.41L0.385,-0.409C0.42,-0.409 0.449,-0.417 0.472,-0.433C0.494,-0.449 0.505,-0.473 0.505,-0.505Z" style="fill-rule:nonzero;"/>
                </g>
                <g transform="matrix(37.1695,0,0,37.1695,3673.32,3078.31)">
                    <path d="M0.085,-0.7L0.567,-0.7L0.567,-0.596L0.199,-0.596L0.199,-0.405L0.537,-0.405L0.537,-0.301L0.199,-0.301L0.199,-0.104L0.573,-0.104L0.573,-0L0.085,-0L0.085,-0.7Z" style="fill-rule:nonzero;"/>
                </g>
                <g transform="matrix(37.1695,0,0,37.1695,3724.57,3078.31)">
                    <path d="M0.127,-0L0.006,-0L0.302,-0.7L0.427,-0.7L0.722,-0L0.602,-0L0.54,-0.151L0.189,-0.151L0.127,-0ZM0.351,-0.55L0.228,-0.251L0.5,-0.251L0.377,-0.55C0.372,-0.565 0.367,-0.578 0.364,-0.589C0.361,-0.578 0.356,-0.565 0.351,-0.55Z" style="fill-rule:nonzero;"/>
                </g>
                <g transform="matrix(37.1695,0,0,37.1695,3774.99,3078.31)">
                    <path d="M0.562,-0.7L0.676,-0.7L0.676,-0.259C0.676,-0.21 0.668,-0.168 0.652,-0.132C0.635,-0.095 0.613,-0.067 0.585,-0.047C0.556,-0.026 0.525,-0.011 0.491,-0.002C0.456,0.008 0.419,0.013 0.378,0.013C0.337,0.013 0.3,0.008 0.265,-0.002C0.23,-0.011 0.199,-0.026 0.17,-0.047C0.141,-0.067 0.119,-0.095 0.103,-0.132C0.086,-0.168 0.078,-0.21 0.078,-0.259L0.078,-0.7L0.192,-0.7L0.192,-0.265C0.192,-0.15 0.254,-0.093 0.378,-0.093C0.501,-0.093 0.562,-0.15 0.562,-0.265L0.562,-0.7Z" style="fill-rule:nonzero;"/>
                </g>
                <g transform="matrix(37.1695,0,0,37.1695,3829.77,3078.31)">
                    <path d="M0.014,-0.7L0.591,-0.7L0.591,-0.595L0.36,-0.595L0.36,-0L0.246,-0L0.246,-0.595L0.014,-0.595L0.014,-0.7Z" style="fill-rule:nonzero;"/>
                </g>
                <g transform="matrix(37.1695,0,0,37.1695,3877.95,3078.31)">
                    <path d="M0.395,-0L0.281,-0L0.281,-0.257L0.007,-0.7L0.135,-0.7L0.338,-0.361L0.542,-0.7L0.67,-0.7L0.395,-0.257L0.395,-0Z" style="fill-rule:nonzero;"/>
                </g>
                <g transform="matrix(37.1695,0,0,37.1695,3964.23,3078.55)">
                    <path d="M0.048,-0.522C0.048,-0.583 0.072,-0.63 0.119,-0.664C0.166,-0.697 0.224,-0.713 0.294,-0.713C0.379,-0.713 0.452,-0.695 0.513,-0.66L0.513,-0.551C0.454,-0.591 0.384,-0.61 0.303,-0.609C0.21,-0.609 0.164,-0.581 0.164,-0.524C0.164,-0.497 0.178,-0.474 0.205,-0.456C0.232,-0.437 0.266,-0.422 0.305,-0.41C0.344,-0.398 0.384,-0.384 0.423,-0.369C0.462,-0.354 0.496,-0.331 0.523,-0.3C0.55,-0.269 0.564,-0.23 0.564,-0.184C0.564,-0.115 0.539,-0.065 0.49,-0.034C0.44,-0.002 0.376,0.014 0.299,0.013C0.206,0.013 0.123,-0.007 0.051,-0.048L0.051,-0.16C0.122,-0.114 0.202,-0.091 0.291,-0.091C0.396,-0.091 0.448,-0.12 0.448,-0.178C0.448,-0.203 0.438,-0.225 0.419,-0.243C0.399,-0.261 0.374,-0.275 0.345,-0.284C0.315,-0.293 0.283,-0.305 0.248,-0.318C0.213,-0.331 0.181,-0.344 0.152,-0.359C0.122,-0.373 0.097,-0.394 0.078,-0.422C0.058,-0.45 0.048,-0.483 0.048,-0.522Z" style="fill-rule:nonzero;"/>
                </g>
                <g transform="matrix(37.1695,0,0,37.1695,4012.21,3078.31)">
                    <path d="M0.568,-0.7L0.682,-0.7L0.682,-0L0.568,-0L0.568,-0.298L0.199,-0.298L0.199,-0L0.085,-0L0.085,-0.7L0.199,-0.7L0.199,-0.403L0.568,-0.403L0.568,-0.7Z" style="fill-rule:nonzero;"/>
                </g>
                <g transform="matrix(37.1695,0,0,37.1695,4068.42,3078.31)">
                    <path d="M0.063,-0.215C0.048,-0.258 0.04,-0.303 0.04,-0.35C0.04,-0.397 0.048,-0.442 0.064,-0.485C0.079,-0.528 0.102,-0.566 0.131,-0.601C0.16,-0.635 0.199,-0.662 0.247,-0.683C0.295,-0.703 0.349,-0.713 0.408,-0.713C0.467,-0.713 0.521,-0.703 0.569,-0.683C0.616,-0.662 0.655,-0.635 0.685,-0.601C0.714,-0.566 0.737,-0.528 0.753,-0.485C0.768,-0.442 0.776,-0.397 0.776,-0.35C0.776,-0.303 0.768,-0.258 0.753,-0.215C0.737,-0.172 0.714,-0.134 0.685,-0.1C0.655,-0.065 0.616,-0.038 0.569,-0.018C0.521,0.003 0.467,0.013 0.408,0.013C0.349,0.013 0.295,0.003 0.247,-0.018C0.199,-0.038 0.16,-0.065 0.131,-0.1C0.102,-0.134 0.079,-0.172 0.063,-0.215ZM0.594,-0.168C0.638,-0.217 0.66,-0.278 0.66,-0.35C0.66,-0.422 0.638,-0.483 0.595,-0.532C0.551,-0.581 0.489,-0.606 0.408,-0.606C0.328,-0.606 0.266,-0.581 0.222,-0.532C0.178,-0.483 0.156,-0.422 0.156,-0.35C0.156,-0.278 0.178,-0.217 0.222,-0.168C0.266,-0.119 0.328,-0.094 0.408,-0.094C0.489,-0.094 0.551,-0.119 0.594,-0.168Z" style="fill-rule:nonzero;"/>
                </g>
                <g transform="matrix(37.1695,0,0,37.1695,4123.05,3078.31)">
                    <path d="M0.085,-0.7L0.335,-0.7C0.534,-0.7 0.634,-0.623 0.634,-0.47C0.634,-0.317 0.534,-0.24 0.335,-0.24L0.199,-0.24L0.199,-0L0.085,-0L0.085,-0.7ZM0.47,-0.371C0.502,-0.39 0.518,-0.423 0.518,-0.47C0.518,-0.517 0.502,-0.55 0.471,-0.569C0.439,-0.587 0.396,-0.596 0.341,-0.596L0.199,-0.596L0.199,-0.344L0.341,-0.344C0.396,-0.344 0.439,-0.353 0.47,-0.371Z" style="fill-rule:nonzero;"/>
                </g>
            </g>
        </g>
    </g>
</svg>
