<svg width="384" height="33" viewBox="0 0 384 33" fill="none" xmlns="http://www.w3.org/2000/svg">
<path d="M317.181 22.19C317.229 21.464 317.272 20.282 317.272 19.19V6.63196H319.969V12.986H320.017C320.39 12.4283 320.901 11.9772 321.501 11.6774C322.096 11.3774 322.769 11.2391 323.436 11.276C326.05 11.276 327.912 13.448 327.888 16.676C327.888 20.51 325.455 22.418 323.04 22.418C322.367 22.4546 321.694 22.3043 321.093 21.9835C320.498 21.6627 320.005 21.184 319.663 20.6H319.621L319.489 22.202L317.181 22.19ZM319.969 17.786C319.969 17.9996 319.993 18.2127 320.035 18.422C320.174 18.9566 320.48 19.4311 320.919 19.771C321.351 20.1108 321.886 20.2969 322.439 20.3C324.127 20.3 325.161 18.944 325.161 16.796C325.161 14.912 324.259 13.382 322.463 13.382C321.898 13.3951 321.357 13.596 320.925 13.9526C320.486 14.3093 320.186 14.8011 320.059 15.35C320.005 15.5801 319.975 15.8154 319.969 16.052V17.786Z" fill="white" fill-opacity="0.75"/>
<path d="M332.791 17.5999C332.857 19.5319 334.371 20.3599 336.084 20.3599C337.093 20.3867 338.096 20.2239 339.046 19.8799L339.436 21.7459C338.247 22.1972 336.985 22.4191 335.711 22.3999C332.244 22.3999 330.202 20.2759 330.202 16.9999C330.202 14.0419 332.004 11.2579 335.423 11.2579C338.841 11.2579 340.031 14.1079 340.031 16.4479C340.037 16.8299 340.007 17.2116 339.941 17.5879L332.791 17.5999ZM337.484 15.7159C337.484 14.7319 337.069 13.1119 335.273 13.1119C333.602 13.1119 332.869 14.6239 332.791 15.7159H337.484Z" fill="white" fill-opacity="0.75"/>
<path d="M343.083 7.61596C344.447 7.39342 345.829 7.291 347.211 7.30996C349.188 7.30996 350.636 7.72996 351.579 8.50996C352.048 8.91442 352.42 9.41656 352.667 9.98068C352.919 10.5448 353.039 11.1571 353.027 11.774C353.057 12.3905 352.961 13.0067 352.739 13.584C352.522 14.1612 352.186 14.6868 351.753 15.128C350.678 16.202 348.99 16.706 347.079 16.706C346.64 16.7145 346.196 16.6844 345.763 16.616V22.184H343.083V7.61596ZM345.763 14.498C346.196 14.5881 346.64 14.6244 347.079 14.606C349.098 14.606 350.329 13.622 350.329 11.888C350.329 10.25 349.188 9.36796 347.325 9.36796C346.803 9.35698 346.28 9.40126 345.769 9.49996L345.763 14.498Z" fill="white" fill-opacity="0.75"/>
<path d="M361.565 22.19L361.391 20.99H361.337C360.952 21.4515 360.471 21.8199 359.919 22.0674C359.372 22.3148 358.777 22.4346 358.176 22.418C357.744 22.4426 357.311 22.3784 356.903 22.2295C356.5 22.0806 356.127 21.8501 355.809 21.5521C355.497 21.2541 355.25 20.8951 355.076 20.4971C354.908 20.0991 354.824 19.6706 354.824 19.238C354.824 16.544 357.227 15.188 361.162 15.206V15.032C361.162 14.33 360.88 13.172 358.987 13.172C357.972 13.1859 356.975 13.4718 356.103 14L355.581 12.2C356.764 11.5542 358.092 11.2293 359.438 11.258C362.863 11.258 363.848 13.43 363.848 15.752V19.604C363.836 20.4627 363.884 21.3213 364.004 22.172L361.565 22.19ZM361.217 17C359.306 16.958 357.485 17.378 357.485 18.998C357.467 19.2041 357.491 19.4117 357.563 19.6061C357.636 19.8006 357.75 19.977 357.894 20.1231C358.044 20.2691 358.218 20.3811 358.417 20.451C358.609 20.521 358.819 20.5473 359.023 20.528C359.486 20.5378 359.937 20.4014 360.315 20.1382C360.694 19.8751 360.976 19.499 361.126 19.064C361.186 18.8699 361.217 18.6674 361.217 18.464V17Z" fill="white" fill-opacity="0.75"/>
<path d="M370.349 8.54002C370.355 8.84068 370.277 9.13708 370.115 9.39118C369.953 9.64528 369.718 9.84562 369.442 9.96652C369.165 10.0874 368.865 10.1234 368.565 10.0699C368.27 10.0164 367.994 9.87579 367.778 9.66609C367.561 9.45639 367.417 9.18718 367.351 8.89276C367.291 8.5984 367.321 8.29227 367.435 8.01351C367.543 7.73475 367.741 7.49614 367.988 7.32802C368.24 7.15996 368.535 7.07014 368.835 7.07002C369.033 7.05826 369.232 7.0879 369.418 7.15702C369.604 7.2262 369.772 7.3333 369.917 7.47166C370.061 7.60996 370.169 7.7764 370.247 7.9603C370.319 8.14426 370.355 8.34172 370.349 8.54002ZM367.477 22.19V11.516H370.193V22.19H367.477Z" fill="white" fill-opacity="0.75"/>
<path d="M383.712 6.63196V19.184C383.712 20.282 383.76 21.464 383.802 22.184H381.398L381.29 20.492H381.248C380.9 21.1022 380.389 21.605 379.776 21.9456C379.157 22.2863 378.46 22.4517 377.757 22.424C375.216 22.424 373.197 20.252 373.197 16.964C373.197 13.364 375.414 11.27 378.004 11.27C378.581 11.2278 379.163 11.3348 379.692 11.5806C380.215 11.8264 380.671 12.2028 381.008 12.674H381.05V6.63196H383.712ZM381.014 15.962C381.014 15.7283 380.996 15.4951 380.948 15.266C380.846 14.7269 380.557 14.2412 380.131 13.8927C379.704 13.5443 379.169 13.3551 378.623 13.358C376.892 13.358 375.925 14.894 375.925 16.886C375.925 18.878 376.892 20.258 378.605 20.258C379.151 20.2521 379.68 20.0605 380.101 19.7147C380.527 19.3689 380.816 18.8897 380.93 18.356C380.996 18.0968 381.02 17.8305 381.014 17.564V15.962Z" fill="white" fill-opacity="0.75"/>
<path fill-rule="evenodd" clip-rule="evenodd" d="M96.9664 0.800049H135.488C135.648 0.800049 135.808 0.800049 135.969 0.801009C136.104 0.801969 136.239 0.803469 136.374 0.807129C136.669 0.815109 136.966 0.832449 137.257 0.884649C137.552 0.937749 137.827 1.02439 138.096 1.16077C138.36 1.29475 138.601 1.46995 138.81 1.67899C139.019 1.88803 139.195 2.12875 139.329 2.39239C139.466 2.66035 139.553 2.93503 139.605 3.23035C139.658 3.52093 139.675 3.81757 139.683 4.11139C139.687 4.24627 139.689 4.38115 139.689 4.51597C139.69 4.67623 139.69 4.83643 139.69 4.99699V26.6035C139.69 26.764 139.69 26.9239 139.689 27.0845C139.689 27.2193 139.687 27.3542 139.683 27.4891C139.675 27.7826 139.658 28.0792 139.605 28.3698C139.553 28.6652 139.466 28.9398 139.329 29.2077C139.195 29.4713 139.019 29.7124 138.81 29.9212C138.601 30.1306 138.36 30.3057 138.096 30.4393C137.827 30.5761 137.552 30.6628 137.257 30.7158C136.966 30.7677 136.669 30.7854 136.374 30.7933C136.239 30.7964 136.104 30.7982 135.969 30.7988C135.808 30.8001 135.648 30.8001 135.488 30.8001H96.9664C96.806 30.8001 96.6455 30.8001 96.4851 30.7988C96.3499 30.7982 96.2148 30.7964 96.0796 30.7933C95.7852 30.7854 95.4883 30.7677 95.1975 30.7158C94.9019 30.6628 94.6267 30.5761 94.3588 30.4393C94.095 30.3057 93.8535 30.1306 93.6438 29.9212C93.4347 29.7124 93.2593 29.4713 93.1253 29.2077C92.9883 28.9398 92.9017 28.6652 92.8489 28.3698C92.7966 28.0792 92.7786 27.7826 92.7708 27.4891C92.7672 27.3542 92.7659 27.2193 92.7647 27.0845C92.7641 26.956 92.7642 26.828 92.7642 26.6998C92.7642 26.6677 92.7642 26.6356 92.7642 26.6035V4.99699C92.7642 4.96483 92.7642 4.93273 92.7642 4.90063C92.7642 4.77229 92.7641 4.64419 92.7647 4.51597C92.7659 4.38115 92.7672 4.24627 92.7708 4.11139C92.7786 3.81757 92.7966 3.52093 92.8489 3.23035C92.9017 2.93503 92.9883 2.66035 93.1253 2.39239C93.2593 2.12875 93.4347 1.88803 93.6438 1.67899C93.8535 1.46995 94.095 1.29475 94.3588 1.16077C94.6267 1.02439 94.9019 0.937749 95.1975 0.884649C95.4883 0.832449 95.7852 0.815109 96.0796 0.807129C96.2148 0.803469 96.3499 0.801969 96.4851 0.801009C96.6455 0.800049 96.806 0.800049 96.9664 0.800049ZM135.962 1.80097L135.488 1.80007H96.9664L96.4911 1.80103C96.3638 1.80187 96.2352 1.80331 96.1072 1.80679C95.8819 1.81285 95.6193 1.82497 95.3742 1.86889C95.1615 1.90711 94.983 1.96525 94.813 2.05195C94.6423 2.13859 94.4874 2.25091 94.3522 2.38597C94.2164 2.52151 94.104 2.67607 94.0181 2.84533C93.9304 3.01657 93.8727 3.19453 93.8348 3.40627C93.7898 3.65257 93.7778 3.91447 93.7718 4.13845C93.7682 4.26643 93.767 4.39453 93.7664 4.52263L93.7657 4.89781V4.99705V26.6035V26.7028L93.7664 27.0787C93.767 27.2061 93.7682 27.3341 93.7718 27.4622C93.7778 27.686 93.7898 27.9478 93.8342 28.192C93.8727 28.4057 93.9304 28.5837 94.0175 28.7541C94.104 28.9246 94.2164 29.079 94.3516 29.2137C94.4874 29.3498 94.6418 29.4617 94.8112 29.5476C94.9836 29.6354 95.1621 29.6936 95.3742 29.7317C95.6223 29.7759 95.8957 29.7881 96.1066 29.7938C96.2316 29.7967 96.3607 29.7983 96.4899 29.7989C96.6485 29.8002 96.8048 29.8002 96.9604 29.8002H96.9664H135.488H135.498C135.652 29.8002 135.807 29.8002 135.961 29.799C136.093 29.7983 136.222 29.7966 136.352 29.7937C136.558 29.7881 136.832 29.7759 137.082 29.7315C137.293 29.6936 137.47 29.6354 137.64 29.5487C137.812 29.4622 137.966 29.35 138.102 29.2141C138.237 29.0792 138.35 28.9244 138.437 28.754C138.524 28.5835 138.582 28.406 138.619 28.1949C138.664 27.9502 138.676 27.6874 138.682 27.4621C138.685 27.3345 138.687 27.2071 138.688 27.0799C138.689 26.9222 138.689 26.7682 138.689 26.6136V26.6035V4.99705V4.98841C138.689 4.83331 138.689 4.67863 138.688 4.52383C138.687 4.39345 138.685 4.26613 138.682 4.13875C138.676 3.91315 138.664 3.65011 138.62 3.40831C138.582 3.19423 138.524 3.01681 138.437 2.84707C138.35 2.67637 138.237 2.52139 138.101 2.38555C137.966 2.25067 137.811 2.13823 137.642 2.05237C137.471 1.96531 137.293 1.90711 137.08 1.86883C136.835 1.82497 136.572 1.81285 136.347 1.80679C136.218 1.80331 136.09 1.80187 135.962 1.80097Z" fill="white" fill-opacity="0.75"/>
<path d="M105.575 10.8903C105.976 10.3884 106.249 9.71456 106.177 9.026C105.589 9.05516 104.871 9.41348 104.456 9.91574C104.083 10.3458 103.752 11.0479 103.838 11.7076C104.498 11.7648 105.158 11.3781 105.575 10.8903Z" fill="white" fill-opacity="0.75"/>
<path d="M106.17 11.8366C105.211 11.7795 104.396 12.38 103.938 12.38C103.479 12.38 102.778 11.8653 102.02 11.8792C101.033 11.8937 100.117 12.451 99.6161 13.3374C98.5857 15.1107 99.3446 17.7412 100.346 19.1855C100.833 19.8999 101.419 20.6867 102.192 20.6585C102.922 20.6298 103.208 20.1864 104.095 20.1864C104.982 20.1864 105.24 20.6585 106.013 20.6441C106.814 20.6298 107.315 19.9293 107.801 19.2141C108.359 18.3995 108.588 17.613 108.602 17.5699C108.588 17.5555 107.057 16.9691 107.043 15.2106C107.029 13.738 108.245 13.0377 108.302 12.9942C107.615 11.9797 106.542 11.8653 106.17 11.8366Z" fill="white" fill-opacity="0.75"/>
<path d="M114.519 9.84375C116.602 9.84375 118.054 11.2783 118.054 13.3669C118.054 15.4629 116.573 16.9049 114.466 16.9049H112.158V20.5693H110.492V9.84375H114.519ZM112.158 15.5075H114.072C115.523 15.5075 116.349 14.7272 116.349 13.3743C116.349 12.0216 115.523 11.2486 114.079 11.2486H112.158V15.5075Z" fill="white" fill-opacity="0.75"/>
<path d="M118.489 18.3469C118.489 16.9792 119.539 16.1393 121.399 16.0352L123.543 15.9089V15.307C123.543 14.4373 122.955 13.917 121.972 13.917C121.042 13.917 120.461 14.3629 120.32 15.0616H118.802C118.891 13.6493 120.097 12.6088 122.032 12.6088C123.93 12.6088 125.143 13.6122 125.143 15.1805V20.5693H123.603V19.2834H123.565C123.112 20.1531 122.121 20.7031 121.094 20.7031C119.561 20.7031 118.489 19.7516 118.489 18.3469ZM123.543 17.6408V17.0239L121.615 17.1428C120.655 17.2097 120.112 17.6334 120.112 18.3024C120.112 18.9861 120.678 19.4321 121.541 19.4321C122.665 19.4321 123.543 18.659 123.543 17.6408Z" fill="white" fill-opacity="0.75"/>
<path d="M126.598 23.4458V22.145C126.717 22.1747 126.985 22.1747 127.119 22.1747C127.863 22.1747 128.265 21.8626 128.511 21.0598C128.511 21.0449 128.653 20.5841 128.653 20.5767L125.824 12.7499H127.566L129.545 19.1125H129.575L131.555 12.7499H133.252L130.319 20.978C129.65 22.8734 128.875 23.4829 127.253 23.4829C127.119 23.4829 126.717 23.468 126.598 23.4458Z" fill="white" fill-opacity="0.75"/>
<path d="M199.133 2.01505C200.989 2.01505 202.792 2.38255 204.49 3.10255C206.136 3.80005 207.609 4.79755 208.887 6.06505C210.156 7.33255 211.156 8.81005 211.855 10.4525C212.576 12.1476 212.944 13.9475 212.944 15.8C212.944 17.6525 212.576 19.4525 211.855 21.1475C211.156 22.79 210.156 24.26 208.887 25.535C207.617 26.8025 206.136 27.8 204.49 28.4975C202.792 29.2175 200.989 29.585 199.133 29.585H172.683C170.827 29.585 169.023 29.2175 167.325 28.4975C165.68 27.8 164.207 26.8025 162.929 25.535C161.659 24.2675 160.66 22.79 159.961 21.1475C159.24 19.4525 158.871 17.6525 158.871 15.8C158.871 13.9475 159.24 12.1476 159.961 10.4525C160.66 8.81005 161.659 7.34005 162.929 6.06505C164.199 4.79755 165.68 3.80005 167.325 3.10255C169.023 2.38255 170.827 2.01505 172.683 2.01505H199.133ZM199.133 0.800049H172.683C164.417 0.800049 157.654 7.55005 157.654 15.8C157.654 24.05 164.417 30.8001 172.683 30.8001H199.133C207.398 30.8001 214.161 24.05 214.161 15.8C214.161 7.55005 207.398 0.800049 199.133 0.800049Z" fill="white" fill-opacity="0.75"/>
<path d="M184.6 16.865V21.4025H183.158V10.1975H186.983C187.952 10.1975 188.779 10.52 189.454 11.165C190.146 11.81 190.492 12.5975 190.492 13.5275C190.492 14.48 190.146 15.2675 189.454 15.905C188.786 16.5425 187.959 16.8575 186.983 16.8575H184.6V16.865ZM184.6 11.5775V15.485H187.013C187.583 15.485 188.064 15.29 188.44 14.9075C188.824 14.525 189.019 14.06 189.019 13.535C189.019 13.0175 188.824 12.56 188.44 12.1775C188.064 11.78 187.591 11.585 187.013 11.585H184.6V11.5775Z" fill="white" fill-opacity="0.75"/>
<path d="M194.264 13.4827C195.331 13.4827 196.172 13.7677 196.788 14.3377C197.405 14.9077 197.713 15.6877 197.713 16.6777V21.4027H196.338V20.3377H196.277C195.684 21.2152 194.887 21.6502 193.895 21.6502C193.046 21.6502 192.34 21.4027 191.769 20.9002C191.198 20.3977 190.912 19.7752 190.912 19.0252C190.912 18.2302 191.213 17.6002 191.814 17.1352C192.415 16.6627 193.219 16.4302 194.218 16.4302C195.075 16.4302 195.782 16.5877 196.33 16.9027V16.5727C196.33 16.0702 196.134 15.6502 195.736 15.2977C195.338 14.9452 194.872 14.7727 194.339 14.7727C193.535 14.7727 192.896 15.1102 192.43 15.7927L191.16 14.9977C191.859 13.9852 192.896 13.4827 194.264 13.4827ZM192.4 19.0477C192.4 19.4227 192.558 19.7377 192.881 19.9852C193.196 20.2327 193.573 20.3602 194 20.3602C194.61 20.3602 195.15 20.1352 195.624 19.6852C196.097 19.2352 196.338 18.7102 196.338 18.1027C195.887 17.7502 195.263 17.5702 194.459 17.5702C193.873 17.5702 193.384 17.7127 192.994 17.9902C192.596 18.2827 192.4 18.6352 192.4 19.0477Z" fill="white" fill-opacity="0.75"/>
<path d="M205.557 13.73L200.748 24.77H199.261L201.049 20.9075L197.878 13.73H199.449L201.733 19.235H201.763L203.987 13.73H205.557Z" fill="white" fill-opacity="0.75"/>
<path d="M178.862 15.95C178.862 15.4805 178.82 15.0312 178.742 14.5992H172.694V17.0742L176.177 17.075C176.035 17.8985 175.581 18.6005 174.884 19.0685V20.6742H176.958C178.168 19.556 178.862 17.903 178.862 15.95Z" fill="white" fill-opacity="0.75"/>
<path d="M174.885 19.0685C174.308 19.457 173.565 19.6842 172.695 19.6842C171.016 19.6842 169.592 18.5547 169.081 17.0322H166.942V18.6882C168.002 20.7867 170.18 22.2267 172.695 22.2267C174.434 22.2267 175.895 21.656 176.958 20.6735L174.885 19.0685Z" fill="white" fill-opacity="0.75"/>
<path d="M168.88 15.8037C168.88 15.3762 168.951 14.963 169.081 14.5745V12.9185H166.942C166.504 13.7862 166.258 14.7657 166.258 15.8037C166.258 16.8417 166.505 17.8212 166.942 18.689L169.081 17.033C168.951 16.6445 168.88 16.2312 168.88 15.8037Z" fill="white" fill-opacity="0.75"/>
<path d="M172.695 11.9225C173.645 11.9225 174.494 12.2488 175.165 12.8863L177.003 11.0541C175.887 10.0168 174.432 9.38 172.695 9.38C170.18 9.38 168.002 10.82 166.942 12.9185L169.081 14.5746C169.592 13.0521 171.016 11.9225 172.695 11.9225Z" fill="white" fill-opacity="0.75"/>
<path d="M257.889 18.6162H254.388V28.8236H256.292V25.9012H257.874C260.003 25.9012 261.571 24.2785 261.571 22.2502C261.573 20.2367 260.003 18.6162 257.889 18.6162ZM257.749 24.1384H256.294V20.377H257.751C258.884 20.377 259.655 21.2159 259.655 22.2502C259.655 23.2994 258.884 24.1384 257.749 24.1384Z" fill="white" fill-opacity="0.75"/>
<path d="M268.772 21.6216C268.183 20.9229 267.217 20.4747 266.139 20.4747C264.065 20.4747 262.079 22.0273 262.079 24.7395C262.079 27.4113 264.138 28.9915 266.112 28.9915C267.19 28.9915 268.17 28.5158 268.772 27.7618V28.8237H270.663V20.6425H268.772V21.6216ZM266.42 27.2585C265.021 27.2585 263.942 26.1392 263.942 24.714C263.942 23.3016 265.021 22.1972 266.42 22.1972C267.819 22.1972 268.87 23.3292 268.87 24.714C268.87 26.1243 267.819 27.2585 266.42 27.2585Z" fill="white" fill-opacity="0.75"/>
<path d="M275.719 26.1518L273.437 20.6425H271.42L274.781 28.418L273.058 32.6H274.976L279.864 20.6425H277.875L275.719 26.1518Z" fill="white" fill-opacity="0.75"/>
<path d="M287.536 10.3989H287.482L285.288 2.90369H281.738V12.355H284.091L283.959 4.60067H284.01L286.371 12.355H289.777V2.90369H287.41L287.536 10.3989Z" fill="white" fill-opacity="0.75"/>
<path d="M244.514 3.78935L244.568 3.78725L245.844 12.4527H248.411L246.65 2.90369H242.396L240.623 12.4527H243.206L244.514 3.78935Z" fill="white" fill-opacity="0.75"/>
<path d="M256.844 2.90369L255.663 10.2056H255.61L254.432 2.90369H250.532L250.321 12.4527H252.713L252.775 3.86795H252.826L254.423 12.4527H256.85L258.448 3.87005L258.5 3.86795L258.56 12.4527H260.953L260.742 2.90369H256.844Z" fill="white" fill-opacity="0.75"/>
<path d="M235.633 12.8265C237.362 12.8265 238.785 12.2382 239.012 10.6432C239.13 9.81912 239.042 9.2796 239.002 9.07788C238.598 7.07928 234.969 6.48246 234.699 5.36316C234.655 5.1699 234.665 4.96812 234.688 4.86192C234.757 4.5561 234.963 4.22052 235.562 4.22052C236.122 4.22052 236.452 4.56456 236.452 5.08494V5.6775H238.838V5.00424C238.838 2.92494 236.967 2.59998 235.613 2.59998C233.914 2.59998 232.523 3.16284 232.27 4.7196C232.2 5.1465 232.192 5.52672 232.291 6.00672C232.706 7.95858 236.105 8.52354 236.596 9.7575C236.69 9.98898 236.66 10.2842 236.615 10.4648C236.536 10.7833 236.322 11.1083 235.684 11.1083C235.086 11.1083 234.722 10.7621 234.722 10.2418L234.72 9.31572H232.157V10.0527C232.157 12.183 233.836 12.8265 235.633 12.8265Z" fill="white" fill-opacity="0.75"/>
<path d="M265.808 5.38866C265.761 5.1975 265.774 4.99998 265.796 4.89378C265.864 4.59006 266.07 4.25874 266.662 4.25874C267.218 4.25874 267.542 4.59858 267.542 5.11464V5.69874H269.905V5.03394C269.905 2.97378 268.052 2.65308 266.713 2.65308C265.03 2.65308 263.654 3.20952 263.403 4.75146C263.333 5.1741 263.324 5.55006 263.424 6.0258C263.833 7.95858 267.199 8.51712 267.687 9.74052C267.778 9.9699 267.75 10.2608 267.706 10.4393C267.629 10.7536 267.414 11.0743 266.782 11.0743C266.189 11.0743 265.829 10.7324 265.829 10.2163L265.828 9.30084H263.288V10.0294C263.288 12.1384 264.952 12.7756 266.729 12.7756C268.441 12.7756 269.851 12.1936 270.075 10.6134C270.19 9.79782 270.105 9.26262 270.064 9.063C269.666 7.08564 266.075 6.49518 265.808 5.38866Z" fill="white" fill-opacity="0.75"/>
<path d="M279.074 2.90161H276.653V9.96565C276.653 10.0888 276.651 10.2269 276.63 10.331C276.583 10.5667 276.379 11.0234 275.713 11.0234C275.047 11.0234 274.841 10.5667 274.796 10.331C274.775 10.2291 274.771 10.0888 274.773 9.96565V2.90161H272.355V9.74905C272.351 9.92533 272.368 10.2843 272.376 10.3777C272.544 12.1597 273.955 12.7374 275.713 12.7374C277.47 12.7374 278.882 12.1597 279.048 10.3777C279.057 10.2843 279.076 9.92533 279.071 9.74905V2.90161H279.074Z" fill="white" fill-opacity="0.75"/>
<path d="M295.678 7.0899V8.48316H296.657V9.87005C296.663 9.99113 296.657 10.1249 296.633 10.2332C296.591 10.4881 296.351 10.9256 295.66 10.9256C294.969 10.9256 294.722 10.4881 294.68 10.2332C294.662 10.1249 294.656 9.99113 294.656 9.87005V5.50332C294.656 5.34828 294.668 5.17625 294.698 5.05097C294.752 4.81517 294.957 4.35858 295.648 4.35858C296.381 4.35858 296.561 4.84067 296.603 5.05097C296.633 5.18897 296.633 5.41626 296.633 5.41416V5.94936H299.048V5.63076C299.042 5.63076 299.054 5.3058 299.024 5.00208C298.85 3.21168 297.366 2.64246 295.672 2.64246C293.971 2.64246 292.523 3.21594 292.313 5.00208C292.295 5.16138 292.271 5.46084 292.271 5.63076V9.64703C292.271 9.82757 292.277 9.95718 292.307 10.2757C292.469 12.0152 293.971 12.6354 295.672 12.6354C297.366 12.6354 298.874 12.0152 299.03 10.2757C299.06 9.95928 299.066 9.82757 299.066 9.64703V7.0899H295.678Z" fill="white" fill-opacity="0.75"/>
<path fill-rule="evenodd" clip-rule="evenodd" d="M14.4636 7.63391H2.31473C1.85329 7.63547 1.41105 7.81931 1.0842 8.14529C0.757948 8.47127 0.574099 8.91293 0.572296 9.37391V21.4999C0.574099 21.9609 0.757948 22.4026 1.0842 22.7285C1.41105 23.0545 1.85329 23.2384 2.31473 23.2399H14.4636C14.925 23.2384 15.3672 23.0545 15.6941 22.7285C16.0203 22.4026 16.2042 21.9609 16.206 21.4999V9.37391C16.2042 8.91293 16.0203 8.47127 15.6941 8.14529C15.3672 7.81931 14.925 7.63547 14.4636 7.63391ZM13.0396 16.1719L11.7177 17.4859C11.6991 17.5032 11.6745 17.5128 11.6487 17.5128C11.6228 17.5128 11.5982 17.5032 11.5796 17.4859L11.2551 17.1619V19.1419C11.2551 19.1674 11.2449 19.1918 11.2269 19.2098C11.2089 19.2278 11.1842 19.2379 11.159 19.2379H9.29641C9.27057 19.238 9.24534 19.228 9.22611 19.2102C9.20748 19.1923 9.19604 19.1679 9.19424 19.1419V18.6799L7.79433 20.0779C7.78591 20.088 7.7751 20.0961 7.76308 20.1017C7.75167 20.1073 7.73845 20.1101 7.72524 20.1101C7.71202 20.1101 7.69877 20.1073 7.68735 20.1017C7.67534 20.0961 7.66452 20.088 7.65611 20.0779L6.34028 18.7639C6.33007 18.7555 6.32227 18.7449 6.31626 18.733C6.31085 18.7211 6.30786 18.7081 6.30786 18.6949C6.30786 18.6818 6.31085 18.6688 6.31626 18.6568C6.32227 18.6449 6.33007 18.6344 6.34028 18.6259L6.66476 18.3019H4.68201C4.65618 18.3004 4.63153 18.289 4.61351 18.27C4.59548 18.251 4.58586 18.226 4.58586 18.1999V16.3399C4.58586 16.3145 4.59607 16.2901 4.6141 16.2721C4.63212 16.254 4.65678 16.2439 4.68201 16.2439H5.14463L3.7387 14.8459C3.72128 14.8271 3.71164 14.8025 3.71164 14.7769C3.71164 14.7514 3.72128 14.7268 3.7387 14.7079L5.0425 13.3999C5.06112 13.3826 5.08575 13.373 5.11159 13.373C5.13742 13.373 5.16205 13.3826 5.18068 13.3999L5.51117 13.7299V11.7499C5.51117 11.7239 5.52075 11.6988 5.53878 11.6798C5.5568 11.6609 5.58145 11.6494 5.60728 11.6479H7.46985C7.49569 11.6494 7.52033 11.6609 7.53836 11.6798C7.55638 11.6988 7.56601 11.7239 7.56601 11.7499V12.1999L8.97194 10.8019C8.99056 10.7846 9.01523 10.775 9.04106 10.775C9.0669 10.775 9.09153 10.7846 9.11015 10.8019L10.45 12.1099C10.4602 12.1184 10.468 12.1289 10.474 12.1408C10.4794 12.1528 10.4825 12.1658 10.4825 12.1789C10.4825 12.1921 10.4794 12.2051 10.474 12.217C10.468 12.2289 10.4602 12.2395 10.45 12.2479L10.1256 12.5779H12.1083C12.1335 12.5779 12.1582 12.5881 12.1762 12.6061C12.1942 12.6241 12.2044 12.6485 12.2044 12.6739V14.5339C12.2044 14.5594 12.1942 14.5838 12.1762 14.6018C12.1582 14.6198 12.1335 14.6299 12.1083 14.6299H11.6517L13.0576 16.0339C13.0727 16.0549 13.0792 16.0808 13.0756 16.1065C13.0726 16.1321 13.0594 16.1555 13.0396 16.1719Z" fill="white" fill-opacity="0.75"/>
<path d="M35.8292 8.53392L35.709 10.5379C35.6669 11.2219 35.6249 11.8099 35.5768 12.3379C35.5047 13.1719 35.4206 15.1699 34.3391 15.1699C34.3391 15.1699 34.3391 15.1699 34.297 15.1699C34.2394 15.1714 34.1847 15.1944 34.1432 15.2345C34.1024 15.2745 34.0777 15.3286 34.0747 15.3859V16.6759C34.0729 16.7061 34.0777 16.7363 34.0879 16.7646C34.0988 16.7929 34.1144 16.8188 34.1354 16.8407C34.1565 16.8626 34.1811 16.8801 34.2093 16.892C34.237 16.9039 34.267 16.91 34.297 16.9099H34.3932C34.8107 16.965 35.2349 16.8986 35.6153 16.7188C35.9956 16.5389 36.3164 16.2532 36.5381 15.8959C36.7466 15.5885 36.9101 15.2532 37.0248 14.8999C37.1564 14.495 37.2532 14.0794 37.3132 13.6579C37.3853 13.1959 37.4454 12.6919 37.4875 12.1399C37.5295 11.5879 37.5776 10.9879 37.6196 10.3399L37.6737 9.42192H40.2453V16.6639C40.2453 16.6947 40.2513 16.7251 40.2639 16.7533C40.2759 16.7815 40.294 16.8068 40.3168 16.8277C40.339 16.8485 40.3661 16.8644 40.3949 16.8745C40.4243 16.8845 40.455 16.8884 40.4856 16.8859H42.0118C42.0436 16.8886 42.0754 16.8844 42.1055 16.8736C42.1355 16.8629 42.1625 16.8458 42.1854 16.8236C42.2082 16.8015 42.2257 16.7747 42.2371 16.745C42.2491 16.7154 42.2539 16.6837 42.2521 16.6519V8.29992C42.2497 8.21142 42.2298 8.12424 42.1932 8.04354C42.1571 7.96278 42.1049 7.89018 42.04 7.82982C41.9751 7.76946 41.8988 7.72266 41.8153 7.69212C41.7324 7.66158 41.6435 7.6479 41.5551 7.65192H36.4901C36.3291 7.65714 36.1752 7.72098 36.0581 7.8315C35.9403 7.94202 35.8676 8.09154 35.8532 8.25192C35.8532 8.33592 35.8532 8.41992 35.8532 8.51592L35.8292 8.53392ZM20.0032 16.8859H23.47C23.8702 16.9154 24.2721 16.863 24.6512 16.732C25.0304 16.6009 25.3789 16.394 25.6757 16.1239C25.9719 15.8537 26.2098 15.526 26.375 15.1608C26.5403 14.7956 26.6292 14.4006 26.6364 13.9999C26.643 13.8234 26.6328 13.6466 26.6064 13.4719C26.4928 12.7774 26.1347 12.1463 25.5958 11.6929C25.0568 11.2394 24.3731 10.9936 23.6683 10.9999H21.331V9.36192H25.3146C25.3476 9.3648 25.3807 9.36036 25.4113 9.34896C25.442 9.3375 25.4702 9.31938 25.493 9.2958C25.5158 9.27228 25.5339 9.2439 25.5441 9.21282C25.5549 9.18174 25.5585 9.14862 25.5549 9.11592V7.91592C25.5549 7.75392 25.4948 7.62192 25.3146 7.62792H20.0633C19.9732 7.61952 19.883 7.63008 19.7971 7.65894C19.7118 7.68774 19.6331 7.73424 19.567 7.79538C19.5009 7.85652 19.448 7.93086 19.4126 8.01366C19.3765 8.09646 19.3591 8.18586 19.3603 8.27592V16.2379C19.3597 16.3228 19.3753 16.4069 19.4078 16.4855C19.4396 16.5641 19.4865 16.6355 19.5466 16.6958C19.6061 16.756 19.6775 16.8038 19.7556 16.8365C19.8344 16.8691 19.9185 16.8859 20.0032 16.8859ZM62.1217 16.6099V13.5199H64.3147C64.8038 13.5151 65.2839 13.3886 65.7123 13.1519C66.1401 12.9152 66.5018 12.5758 66.7655 12.1643C67.0293 11.7528 67.1861 11.2822 67.2215 10.795C67.2576 10.3078 67.1711 9.81942 66.9704 9.37392C66.8028 8.99412 66.5546 8.65488 66.2434 8.37948C65.9328 8.10402 65.5657 7.89882 65.1679 7.77792C64.8374 7.68744 64.495 7.64502 64.1525 7.65192H60.8058C60.6376 7.64526 60.4736 7.70412 60.348 7.81608C60.2224 7.92804 60.1455 8.08428 60.1329 8.25192C60.1329 8.30592 60.1329 8.36592 60.1329 8.42592V16.6639C60.1329 16.6936 60.1389 16.723 60.1503 16.7503C60.1617 16.7776 60.1786 16.8024 60.2002 16.8231C60.2212 16.8438 60.2465 16.86 60.2741 16.8708C60.3017 16.8816 60.3318 16.8868 60.3612 16.8859H61.9174C61.9576 16.886 61.9973 16.8755 62.0322 16.8556C62.0664 16.8355 62.0958 16.8067 62.1157 16.7719C62.1277 16.7188 62.1295 16.6639 62.1217 16.6099ZM65.1258 10.6099C65.1258 10.9282 64.9991 11.2334 64.7738 11.4584C64.5484 11.6835 64.2426 11.8099 63.9242 11.8099H62.1217V9.40992H63.84C64.0029 9.39852 64.1663 9.4203 64.3201 9.47394C64.4739 9.52764 64.6157 9.612 64.7359 9.72204C64.8561 9.83208 64.9528 9.9654 65.0201 10.114C65.0868 10.2625 65.1228 10.4231 65.1258 10.5859V10.6099ZM56.9064 14.9899L57.4231 16.6999C57.4652 16.8559 57.5493 16.9099 57.6454 16.9099H59.3158C59.3512 16.9115 59.3873 16.9046 59.4191 16.8896C59.4516 16.8746 59.4804 16.852 59.502 16.8237C59.5237 16.7954 59.5387 16.7624 59.5447 16.7272C59.5507 16.6921 59.5489 16.656 59.5381 16.6219L56.7983 8.39592C56.6721 7.99392 56.4798 7.67592 56.0112 7.67592H54.8095C54.6942 7.66578 54.5776 7.68594 54.4724 7.73436C54.3673 7.78272 54.276 7.85772 54.2087 7.95192C54.1108 8.085 54.0392 8.23578 53.9984 8.39592L51.3067 16.5919C51.2952 16.6253 51.2916 16.661 51.297 16.696C51.3019 16.731 51.3157 16.7642 51.3361 16.793C51.3565 16.8217 51.3836 16.8452 51.4154 16.8613C51.4467 16.8775 51.4815 16.8859 51.5169 16.8859H53.1092C53.1566 16.8922 53.2047 16.8826 53.2455 16.8587C53.287 16.8349 53.3195 16.798 53.3375 16.7539C53.3525 16.7168 53.3645 16.6787 53.3735 16.6399L53.8902 14.9659L56.9064 14.9899ZM54.3589 13.3519L54.8576 11.6839L55.3623 9.80592H55.4404L55.9271 11.6839L56.4318 13.3519H54.3589ZM48.8012 11.9959V11.9299C49.0842 11.7556 49.3245 11.5197 49.5042 11.2399C49.7054 10.9442 49.846 10.612 49.9187 10.2619L50.5196 7.90992C50.5262 7.87776 50.525 7.84458 50.5166 7.81284C50.5081 7.7811 50.4931 7.7517 50.4715 7.7268C50.4499 7.70196 50.4234 7.68228 50.3928 7.66932C50.3627 7.65636 50.3303 7.65042 50.2973 7.65192H48.9033C48.854 7.64082 48.8024 7.64082 48.7531 7.65192C48.7243 7.66764 48.6991 7.68996 48.6804 7.71702C48.6618 7.74414 48.6492 7.77528 48.645 7.80792L48.0441 10.0279C47.9895 10.2572 47.8939 10.4748 47.7617 10.6699C47.6602 10.8175 47.5268 10.9406 47.3712 11.0299C47.2366 11.1046 47.0906 11.1553 46.9386 11.1799C46.801 11.1944 46.6616 11.1944 46.524 11.1799H45.4846V7.86792C45.4828 7.81008 45.4587 7.75518 45.4173 7.7148C45.3758 7.67448 45.3199 7.65192 45.2623 7.65192H43.7121C43.6827 7.64946 43.6532 7.65306 43.625 7.66242C43.5974 7.67178 43.5715 7.68678 43.5493 7.7064C43.5276 7.72608 43.5096 7.75002 43.4976 7.77678C43.485 7.80354 43.4784 7.83252 43.4778 7.86192V16.6759C43.4796 16.7051 43.4868 16.7337 43.4994 16.76C43.512 16.7864 43.5294 16.81 43.5511 16.8295C43.5733 16.849 43.5985 16.864 43.6262 16.8737C43.6538 16.8834 43.6827 16.8875 43.7121 16.8859H45.2442C45.2737 16.8884 45.3037 16.8848 45.332 16.8755C45.3602 16.8662 45.3867 16.8514 45.4089 16.8317C45.4311 16.8122 45.4497 16.7883 45.4623 16.7615C45.4756 16.7348 45.4828 16.7057 45.4846 16.6759V12.7639H46.5481C46.8112 12.7538 47.0744 12.7821 47.3291 12.8479C47.534 12.904 47.7179 13.0187 47.8579 13.1779C48.0183 13.3821 48.1349 13.6169 48.2004 13.8679L49.0115 16.7299C49.0247 16.7753 49.0523 16.8152 49.0902 16.8433C49.128 16.8715 49.1743 16.8865 49.2218 16.8859H50.7539C50.7875 16.8887 50.8218 16.8835 50.8536 16.8706C50.8849 16.8577 50.9131 16.8376 50.9354 16.8118C50.9576 16.7861 50.9732 16.7555 50.9816 16.7225C50.9894 16.6895 50.99 16.655 50.9822 16.6219L50.1651 13.5679C50.1194 13.3848 50.0635 13.2045 49.9968 13.0279C49.9392 12.8732 49.8623 12.7261 49.7685 12.5899C49.6658 12.4549 49.542 12.3374 49.402 12.2419C49.2212 12.1252 49.0253 12.0343 48.8192 11.9719L48.8012 11.9959ZM33.6181 16.6099V15.4099C33.6187 15.3803 33.6139 15.3508 33.6031 15.3232C33.5922 15.2955 33.5761 15.2703 33.555 15.2491C33.5346 15.2278 33.5093 15.2109 33.4823 15.1994C33.4547 15.1879 33.4252 15.1819 33.3958 15.1819H29.7908C29.7013 15.1814 29.6124 15.1624 29.5306 15.1262C29.4483 15.09 29.3744 15.0374 29.3137 14.9716C29.253 14.9057 29.2062 14.8282 29.1768 14.7436C29.1473 14.659 29.1353 14.5693 29.1419 14.4799V12.6859H32.9512C32.9806 12.6868 33.0094 12.6818 33.0365 12.6713C33.0641 12.661 33.0888 12.6452 33.1104 12.6252C33.1314 12.6051 33.1482 12.5811 33.1602 12.5545C33.1723 12.5278 33.1789 12.4991 33.1795 12.4699V11.2339C33.1795 11.1019 33.0894 11.0119 32.9271 11.0119H29.1419V10.0279C29.1413 9.94236 29.1575 9.85746 29.1894 9.77814C29.2218 9.69882 29.2692 9.62664 29.3299 9.56586C29.39 9.50502 29.4621 9.45678 29.5408 9.42384C29.6201 9.3909 29.7049 9.37392 29.7908 9.37392H33.3958C33.4258 9.3756 33.4565 9.37104 33.4847 9.3606C33.513 9.35022 33.5388 9.33408 33.561 9.31332C33.5827 9.29256 33.6001 9.26748 33.6121 9.23976C33.6241 9.21204 33.6301 9.18216 33.6301 9.15192V7.87392C33.6301 7.84266 33.6241 7.8117 33.6115 7.78308C33.5983 7.7544 33.5803 7.72878 33.5568 7.70784C33.5334 7.68684 33.5063 7.67106 33.4763 7.6614C33.4462 7.6518 33.415 7.64856 33.3838 7.65192H29.6586C29.0037 7.65342 28.3758 7.9113 27.9096 8.37018C27.4433 8.82906 27.176 9.45228 27.1651 10.1059V14.4799C27.179 15.1183 27.4421 15.726 27.8976 16.1741C28.353 16.6222 28.9652 16.8754 29.6045 16.8799H33.4018C33.4318 16.8816 33.4619 16.877 33.4895 16.8666C33.5178 16.8561 33.5436 16.8399 33.5646 16.819C33.5863 16.7981 33.6031 16.7731 33.6145 16.7453C33.6259 16.7176 33.6307 16.6879 33.6301 16.6579L33.6181 16.6099ZM71.9573 9.40992V16.6759C71.9567 16.7054 71.9501 16.7344 71.9375 16.7611C71.9249 16.7878 71.9074 16.8118 71.8858 16.8314C71.8636 16.8511 71.8378 16.8661 71.8101 16.8755C71.7819 16.8848 71.7524 16.8884 71.723 16.8859H70.1909C70.1314 16.8893 70.0725 16.8691 70.028 16.8299C69.983 16.7906 69.9554 16.7354 69.9506 16.6759V9.37392H67.5472C67.5178 9.37242 67.4895 9.36516 67.4631 9.35256C67.4367 9.33996 67.4132 9.32226 67.3934 9.30054C67.3742 9.27876 67.3585 9.25344 67.3489 9.22584C67.3393 9.1983 67.3351 9.16908 67.3369 9.13992V7.88592C67.3345 7.85658 67.3381 7.82706 67.3471 7.79916C67.3568 7.7712 67.3718 7.74552 67.3916 7.72362C67.4114 7.70172 67.4348 7.68402 67.4619 7.67172C67.4889 7.65936 67.5178 7.65264 67.5472 7.65192H74.3967C74.4261 7.65348 74.4544 7.66074 74.4808 7.67334C74.5073 7.68594 74.5307 7.70364 74.5505 7.72536C74.5697 7.74708 74.5848 7.77246 74.595 7.8C74.6046 7.8276 74.6088 7.85676 74.607 7.88592V9.13992C74.6088 9.19842 74.5878 9.25536 74.5487 9.29892C74.5097 9.34248 74.455 9.36936 74.3967 9.37392L71.9573 9.40992ZM24.5335 13.9219C24.5407 14.0903 24.5119 14.2583 24.45 14.4149C24.3875 14.5715 24.2931 14.7134 24.1724 14.8311C24.0516 14.9488 23.9074 15.0398 23.7494 15.0982C23.5908 15.1566 23.4219 15.181 23.2537 15.1699H21.337V12.6859H23.2657C23.4304 12.6744 23.5956 12.6969 23.7512 12.752C23.9068 12.8071 24.0498 12.8937 24.1706 13.0063C24.2908 13.1189 24.3869 13.2551 24.453 13.4065C24.5185 13.5578 24.5521 13.721 24.5515 13.8859L24.5335 13.9219Z" fill="white" fill-opacity="0.75"/>
<path fill-rule="evenodd" clip-rule="evenodd" d="M73.5916 21.9439C73.594 21.8264 73.5513 21.7125 73.4714 21.6259C73.4258 21.5792 73.3705 21.5432 73.3092 21.5204C73.2479 21.4976 73.1818 21.4885 73.1169 21.4939H72.3358V22.3999H73.1229C73.2034 22.4022 73.284 22.3858 73.3573 22.3519C73.4149 22.3254 73.4666 22.2865 73.5075 22.2379C73.5423 22.1916 73.5669 22.1384 73.5796 22.0819C73.585 22.0341 73.585 21.9858 73.5796 21.9379L73.5916 21.9439ZM71.7771 23.1379C71.7158 23.1467 71.6527 23.1416 71.5938 23.1229C71.5343 23.1042 71.4796 23.0724 71.4346 23.0299C71.3769 22.9477 71.3493 22.8481 71.3565 22.7479V19.7479C71.3565 19.6639 71.4045 19.6219 71.5007 19.6219H72.1736C72.2397 19.6219 72.2818 19.6219 72.2998 19.6219C72.3112 19.6361 72.3196 19.6524 72.325 19.6699C72.3304 19.6874 72.3316 19.7058 72.3298 19.7239V20.7019H73.165C73.4305 20.6881 73.6955 20.7353 73.94 20.8399C74.1101 20.9115 74.2591 21.0251 74.3727 21.1699C74.467 21.2865 74.5313 21.4246 74.5589 21.5719C74.5806 21.6827 74.5926 21.7951 74.595 21.9079C74.5974 22.0748 74.5643 22.2404 74.4988 22.3939C74.4309 22.5373 74.3348 22.6658 74.2164 22.7719C74.0939 22.8839 73.9515 22.9715 73.7958 23.0299C73.6288 23.0928 73.4516 23.1253 73.2731 23.1259L71.7771 23.1379ZM70.0767 19.6099C70.1338 19.6024 70.1914 19.607 70.2461 19.6235C70.3014 19.6401 70.3519 19.6682 70.3951 19.7059C70.4606 19.7959 70.4907 19.9071 70.4792 20.0179V23.0179C70.4792 23.0719 70.4792 23.1079 70.4792 23.1259C70.4396 23.1361 70.3988 23.1361 70.3591 23.1259H69.6802C69.6393 23.1401 69.5948 23.1401 69.554 23.1259C69.5468 23.1088 69.5432 23.0905 69.5432 23.0719C69.5432 23.0534 69.5468 23.035 69.554 23.0179V20.4379H68.7248V20.7859C68.7008 21.1859 68.6708 21.5219 68.6347 21.7939C68.6071 22.0428 68.5464 22.2869 68.4544 22.5199C68.3775 22.71 68.2538 22.8773 68.0939 23.0059C67.9137 23.1434 67.71 23.2471 67.4931 23.3119C67.4505 23.3287 67.4036 23.3287 67.3609 23.3119C67.3315 23.288 67.3087 23.2571 67.2948 23.2219L67.1146 22.7659C67.1032 22.7247 67.1032 22.6811 67.1146 22.6399C67.1146 22.6399 67.1506 22.5859 67.2107 22.5559C67.3171 22.51 67.4162 22.4494 67.5051 22.3759C67.5857 22.2941 67.6469 22.1958 67.6854 22.0879C67.7419 21.9249 67.7779 21.7557 67.7935 21.5839C67.7935 21.3739 67.8476 21.1039 67.8716 20.7619L67.9137 20.0299C67.9107 19.9181 67.9498 19.8092 68.0219 19.7239C68.1102 19.6545 68.2225 19.6222 68.3343 19.6339L70.0767 19.6099ZM65.5945 21.3739C65.5957 21.2351 65.5836 21.0965 65.5584 20.9599C65.5398 20.8461 65.5014 20.7364 65.4443 20.6359C65.392 20.5504 65.3199 20.4784 65.234 20.4259C65.0946 20.3507 64.9318 20.3287 64.7773 20.3641C64.6223 20.3993 64.486 20.4896 64.3928 20.6179C64.2679 20.8432 64.2078 21.0986 64.2186 21.3559C64.2035 21.6211 64.2576 21.8855 64.3748 22.1239C64.4301 22.2103 64.5082 22.28 64.6001 22.3255C64.6926 22.3709 64.7954 22.3905 64.8975 22.3819C65.0087 22.3859 65.1192 22.3589 65.216 22.3039C65.3061 22.2551 65.3806 22.1824 65.4323 22.0939C65.4929 21.9946 65.5338 21.8846 65.5524 21.7699C65.5753 21.6512 65.5873 21.5308 65.5885 21.4099L65.5945 21.3739ZM66.6099 21.3739C66.6417 21.8669 66.4897 22.3543 66.1833 22.7419C66.0169 22.9128 65.815 23.045 65.5915 23.129C65.3686 23.213 65.1294 23.2468 64.8915 23.2279C64.6554 23.2484 64.4175 23.2153 64.1958 23.1311C63.9747 23.047 63.7745 22.9139 63.6117 22.7419C63.3227 22.3509 63.1803 21.871 63.2092 21.3859C63.2068 21.1231 63.247 20.8616 63.3293 20.6119C63.3978 20.3903 63.512 20.1858 63.6658 20.0119C63.8136 19.8548 63.9939 19.7319 64.1945 19.6519C64.4205 19.5628 64.6608 19.518 64.9035 19.5199C65.1391 19.5033 65.3752 19.5388 65.5957 19.6238C65.8156 19.7089 66.0145 19.8414 66.1773 20.0119C66.4903 20.4007 66.6429 20.8944 66.6039 21.3919L66.6099 21.3739ZM61.5809 21.3739C61.5845 21.2182 61.5665 21.0627 61.5268 20.9119C61.4974 20.8 61.4439 20.6957 61.3706 20.6059C61.2979 20.5329 61.2096 20.4775 61.1123 20.4439C61.0005 20.4136 60.8852 20.3994 60.7698 20.4019H60.5235C60.4339 20.4118 60.3456 20.4298 60.2591 20.4559V22.2919C60.3618 22.3184 60.4664 22.3384 60.5715 22.3519H60.8179C60.9212 22.3552 61.0233 22.3366 61.1189 22.2973C61.2144 22.258 61.2997 22.1989 61.3706 22.1239C61.5226 21.909 61.5948 21.6481 61.5749 21.3859L61.5809 21.3739ZM60.2591 24.4159C60.2711 24.4468 60.2711 24.4811 60.2591 24.5119C60.2218 24.5216 60.1822 24.5216 60.1449 24.5119H59.4179C59.3825 24.5197 59.3452 24.5197 59.3098 24.5119C59.3098 24.5119 59.2797 24.4639 59.2797 24.4159V20.0359C59.2719 19.9983 59.2719 19.9595 59.2797 19.9219C59.3098 19.8815 59.3488 19.8487 59.3939 19.8259C59.6234 19.7242 59.8661 19.6555 60.1149 19.6219C60.3672 19.5823 60.6226 19.5622 60.8779 19.5619C61.1531 19.5537 61.4277 19.6027 61.6831 19.7059C61.8868 19.7907 62.0664 19.9247 62.2058 20.0959C62.3452 20.2721 62.4437 20.477 62.4942 20.6959C62.5555 20.9289 62.5861 21.169 62.5843 21.4099C62.5837 21.6491 62.5519 21.8872 62.4882 22.1179C62.4311 22.3344 62.3332 22.538 62.1998 22.7179C62.0664 22.8863 61.8957 23.0218 61.7011 23.1139C61.4806 23.2145 61.2402 23.2637 60.9981 23.2579C60.8719 23.2645 60.7458 23.2645 60.6196 23.2579C60.4898 23.2451 60.3612 23.2231 60.235 23.1919L60.2591 24.4159ZM57.4292 21.5599H56.8944H56.6961C56.627 21.5671 56.5598 21.5875 56.4979 21.6199C56.4348 21.6548 56.3813 21.7042 56.3417 21.7639C56.3002 21.8434 56.2792 21.9322 56.2816 22.0219C56.2756 22.0865 56.2876 22.1514 56.3164 22.2096C56.3453 22.2678 56.3891 22.317 56.4438 22.3519C56.576 22.4186 56.7226 22.4496 56.8704 22.4419H56.9785H57.1227H57.279L57.4292 22.3999V21.5599ZM58.4025 22.7239C58.4127 22.7734 58.4127 22.8244 58.4025 22.8739C58.3749 22.9233 58.3334 22.9631 58.2823 22.9879C58.1766 23.0386 58.0654 23.0788 57.9519 23.1079C57.8317 23.1359 57.7116 23.1599 57.5914 23.1799L57.2189 23.2219H56.8644C56.609 23.2283 56.3543 23.198 56.1073 23.1319C55.9331 23.0873 55.7691 23.0077 55.6267 22.8979C55.5113 22.803 55.4242 22.6786 55.3743 22.5379C55.3233 22.3975 55.2968 22.2493 55.2962 22.0999C55.2944 21.9355 55.325 21.7724 55.3863 21.6199C55.4446 21.4756 55.5347 21.3463 55.6507 21.2419C55.7763 21.1265 55.9265 21.0405 56.0893 20.9899C56.293 20.9255 56.5063 20.8951 56.7202 20.8999H57.4592V20.7919C57.4682 20.7323 57.4682 20.6716 57.4592 20.6119C57.4472 20.5528 57.4177 20.4985 57.3751 20.4559C57.3258 20.409 57.2657 20.3741 57.2008 20.3539C57.1011 20.3248 56.9984 20.3107 56.8944 20.3119H56.6661H56.4138L56.1614 20.3539L55.9511 20.4079C55.9102 20.4205 55.8658 20.4205 55.8249 20.4079C55.8015 20.3833 55.7865 20.3517 55.7829 20.3179L55.6747 19.8499C55.6639 19.8364 55.6567 19.8202 55.6543 19.8029C55.6519 19.7857 55.6543 19.7681 55.6609 19.7521C55.6675 19.7361 55.6789 19.7222 55.6927 19.712C55.7072 19.7017 55.7234 19.6955 55.7408 19.6939C55.9469 19.6195 56.1602 19.5672 56.3777 19.5379C56.5964 19.507 56.8175 19.491 57.0386 19.4899C57.4213 19.4585 57.8023 19.5697 58.1081 19.8019C58.2277 19.9229 58.3196 20.0679 58.3785 20.2272C58.438 20.3865 58.462 20.5565 58.4506 20.7259L58.4025 22.7239ZM54.4671 23.0299C54.4671 23.0839 54.4671 23.1139 54.4671 23.1319C54.4262 23.1461 54.3817 23.1461 54.3409 23.1319H53.6079C53.5177 23.1319 53.4697 23.0899 53.4697 22.9999V19.3579H51.6672V23.0419C51.6804 23.0747 51.6804 23.1112 51.6672 23.1439C51.6287 23.1587 51.5855 23.1587 51.547 23.1439H50.808C50.7118 23.1439 50.6638 23.1019 50.6638 23.0119V18.9199C50.6554 18.7955 50.6914 18.672 50.7659 18.5719C50.8104 18.5314 50.8627 18.5009 50.9197 18.4822C50.9762 18.4636 51.0369 18.4574 51.0964 18.4639H54.1006C54.1612 18.4569 54.2225 18.4628 54.2808 18.4815C54.3385 18.5001 54.392 18.5309 54.437 18.5719C54.5097 18.6728 54.5434 18.7962 54.5331 18.9199L54.4671 23.0299ZM48.9033 20.4379V23.0359C48.9172 23.0727 48.9172 23.1132 48.9033 23.1499C48.8619 23.1592 48.8186 23.1592 48.7771 23.1499H48.1102C48.0081 23.1499 47.954 23.1019 47.954 23.0119V20.4379H46.9807C46.8905 20.4379 46.8485 20.3899 46.8485 20.2879V19.8019C46.8485 19.7359 46.8485 19.6939 46.8485 19.6759C46.8635 19.664 46.8809 19.6552 46.8995 19.65C46.9182 19.6448 46.9374 19.6435 46.9566 19.6459H49.8647C49.9031 19.6422 49.9416 19.6529 49.9728 19.6759C49.9728 19.6759 49.9728 19.7359 49.9728 19.8019V20.2879C49.9728 20.3899 49.9308 20.4379 49.8406 20.4379H48.9033ZM44.9379 20.3659C44.8537 20.3645 44.7696 20.3809 44.6921 20.414C44.6146 20.447 44.5449 20.4961 44.4872 20.5579C44.3689 20.6981 44.2992 20.8729 44.2889 21.0559H45.5447C45.5543 20.9642 45.5543 20.8717 45.5447 20.7799C45.5272 20.7023 45.4948 20.6288 45.4485 20.5639C45.3999 20.5034 45.338 20.4542 45.2683 20.4199C45.1674 20.3783 45.0586 20.3599 44.9498 20.3659H44.9379ZM44.9379 19.5559C45.1548 19.5361 45.3734 19.561 45.5801 19.6291C45.7868 19.6972 45.9773 19.8071 46.1395 19.9519C46.2783 20.1025 46.3846 20.2795 46.4531 20.4724C46.521 20.6652 46.5493 20.8699 46.5361 21.0739C46.5553 21.2459 46.506 21.4185 46.3979 21.5539C46.348 21.598 46.2903 21.6319 46.2272 21.6535C46.1642 21.6751 46.0974 21.6841 46.0313 21.6799H44.2769C44.2787 21.8033 44.3034 21.9253 44.349 22.0399C44.3899 22.1278 44.4494 22.2056 44.5233 22.2679C44.5984 22.3244 44.6843 22.3652 44.7756 22.3879C44.8784 22.4077 44.9835 22.4177 45.0881 22.4179C45.222 22.419 45.3548 22.4029 45.4846 22.3699C45.6126 22.3435 45.7375 22.3033 45.8571 22.2499C45.8938 22.2361 45.9346 22.2361 45.9713 22.2499C45.9965 22.2622 46.0157 22.2837 46.0254 22.3099L46.2417 22.7959C46.2483 22.8099 46.2518 22.8253 46.2518 22.8409C46.2518 22.8565 46.2483 22.8719 46.2417 22.8859C46.2242 22.9156 46.1996 22.9404 46.1696 22.9579C45.9851 23.0702 45.7814 23.1475 45.5687 23.1859C45.3716 23.2307 45.1704 23.2548 44.9679 23.2579C44.7324 23.2782 44.4944 23.2498 44.2703 23.1744C44.0462 23.099 43.8395 22.9784 43.6641 22.8199C43.3475 22.4329 43.1942 21.9379 43.2375 21.4399C43.2339 21.1712 43.2747 20.9036 43.3577 20.6479C43.428 20.4273 43.5427 20.2232 43.6941 20.0479C43.8377 19.8874 44.0168 19.7621 44.2168 19.6819C44.444 19.5919 44.6873 19.5491 44.9318 19.5559H44.9379ZM40.3054 23.0359C40.3192 23.0727 40.3192 23.1132 40.3054 23.1499C40.264 23.1592 40.2207 23.1592 40.1792 23.1499H39.4703C39.3741 23.1499 39.32 23.1019 39.32 23.0119V19.7719C39.32 19.6879 39.3741 19.6459 39.4703 19.6459H40.1432C40.1846 19.6337 40.2279 19.6337 40.2694 19.6459C40.2826 19.6787 40.2826 19.7152 40.2694 19.7479V20.8999H41.5251V19.7719C41.5251 19.6879 41.5732 19.6459 41.6753 19.6459H42.3483C42.4144 19.6459 42.4564 19.6459 42.4744 19.6459C42.4924 19.6459 42.4744 19.6939 42.4744 19.7479V23.0119C42.4744 23.0719 42.4744 23.1079 42.4744 23.1259C42.433 23.1366 42.3897 23.1366 42.3483 23.1259H41.6933C41.5912 23.1259 41.5431 23.0779 41.5431 22.9879V21.6859H40.2874L40.3054 23.0359ZM37.5656 21.3859C37.5692 21.2302 37.5512 21.0747 37.5115 20.9239C37.4815 20.812 37.4286 20.7077 37.3553 20.6179C37.2826 20.5449 37.1943 20.4895 37.097 20.4559C36.9852 20.4256 36.8699 20.4114 36.7545 20.4139H36.5081C36.4186 20.4231 36.3297 20.4412 36.2438 20.4679V22.3039C36.3465 22.3309 36.4511 22.351 36.5562 22.3639H36.8026C36.9059 22.3672 37.0081 22.3486 37.1036 22.3093C37.1991 22.27 37.2844 22.2109 37.3553 22.1359C37.5074 21.9167 37.5794 21.6519 37.5596 21.3859H37.5656ZM36.2438 24.4279C36.2534 24.4592 36.2534 24.4926 36.2438 24.5239C36.2041 24.5333 36.1633 24.5333 36.1236 24.5239H35.4327C35.3972 24.5323 35.36 24.5323 35.3245 24.5239C35.3113 24.5122 35.3005 24.4972 35.2945 24.4805C35.2878 24.4637 35.2861 24.4457 35.2885 24.4279V20.0479C35.2807 20.0104 35.2807 19.9715 35.2885 19.9339C35.3185 19.8935 35.3576 19.8607 35.4026 19.8379C35.6316 19.7354 35.8749 19.6667 36.1236 19.6339C36.376 19.594 36.6313 19.5739 36.8867 19.5739C37.1619 19.5657 37.4365 19.6147 37.6918 19.7179C37.8955 19.8027 38.0751 19.9367 38.2145 20.1079C38.3539 20.2841 38.4524 20.489 38.5029 20.7079C38.5594 20.9417 38.5876 21.1814 38.587 21.4219C38.5888 21.6609 38.5582 21.899 38.4969 22.1299C38.4404 22.3478 38.3401 22.5519 38.2025 22.7299C38.0727 22.8995 37.9033 23.0353 37.7098 23.1259C37.4869 23.226 37.2448 23.2752 37.0008 23.2699C36.8765 23.2763 36.7527 23.2763 36.6283 23.2699C36.4985 23.2576 36.37 23.2356 36.2438 23.2039V24.4279ZM32.9993 20.3659C32.9152 20.3645 32.831 20.3809 32.7535 20.414C32.676 20.447 32.6064 20.4961 32.5487 20.5579C32.4285 20.6975 32.357 20.8723 32.3444 21.0559H33.6061C33.6157 20.9642 33.6157 20.8717 33.6061 20.7799C33.5869 20.7018 33.552 20.6284 33.504 20.5639C33.4577 20.5007 33.3958 20.451 33.3237 20.4199C33.2198 20.3747 33.1062 20.3561 32.9933 20.3659H32.9993ZM32.9993 19.5559C33.2162 19.5364 33.4343 19.5615 33.641 19.6296C33.8477 19.6977 34.0381 19.8074 34.201 19.9519C34.3398 20.1025 34.4461 20.2795 34.5146 20.4724C34.5825 20.6652 34.6107 20.8699 34.5975 21.0739C34.6167 21.2459 34.5675 21.4185 34.4593 21.5539C34.3584 21.6424 34.2268 21.6877 34.0928 21.6799H32.3204C32.3222 21.8033 32.3468 21.9253 32.3925 22.0399C32.4309 22.1274 32.4886 22.2052 32.5607 22.2679C32.6358 22.3244 32.7217 22.3652 32.813 22.3879C32.9158 22.4074 33.0209 22.4174 33.1255 22.4179C33.2594 22.4198 33.3928 22.4036 33.522 22.3699C33.6524 22.3444 33.7792 22.3042 33.9006 22.2499C33.9372 22.2361 33.978 22.2361 34.0147 22.2499C34.0399 22.2622 34.0592 22.2837 34.0688 22.3099L34.2851 22.7959C34.2959 22.8249 34.2959 22.8569 34.2851 22.8859C34.2676 22.9156 34.243 22.9404 34.213 22.9579C34.0285 23.0702 33.8248 23.1475 33.6121 23.1859C33.4151 23.2307 33.2138 23.2548 33.0113 23.2579C32.7758 23.2782 32.5378 23.2498 32.3137 23.1744C32.0896 23.099 31.8829 22.9784 31.7075 22.8199C31.3909 22.4329 31.2376 21.9379 31.2809 21.4399C31.2773 21.1712 31.3182 20.9036 31.4011 20.6479C31.469 20.4262 31.5837 20.2216 31.7375 20.0479C31.8811 19.8874 32.0602 19.7621 32.2603 19.6819C32.4874 19.5919 32.7307 19.5491 32.9752 19.5559H32.9993ZM30.0492 20.4379V23.0359C30.0492 23.0959 30.0492 23.1319 30.0192 23.1499C29.9795 23.1601 29.9386 23.1601 29.899 23.1499H29.2321C29.1299 23.1499 29.0758 23.1019 29.0758 23.0119V20.4379H28.1205C28.0304 20.4379 27.9883 20.3899 27.9883 20.2879V19.8019C27.9883 19.7359 27.9883 19.6939 27.9883 19.6759C27.9883 19.6579 28.0364 19.6459 28.0965 19.6459H31.0045C31.043 19.6422 31.0814 19.6529 31.1127 19.6759C31.1127 19.6759 31.1127 19.7359 31.1127 19.8019V20.2879C31.1127 20.3899 31.0706 20.4379 30.9805 20.4379H30.0492ZM25.2425 23.0359C25.2425 23.0959 25.2425 23.1319 25.2125 23.1499C25.171 23.1606 25.1278 23.1606 25.0863 23.1499H24.4194C24.3172 23.1499 24.2692 23.1019 24.2692 23.0119V19.7719C24.2692 19.6879 24.3172 19.6459 24.4194 19.6459H25.0863C25.1524 19.6459 25.1945 19.6459 25.2125 19.6459C25.2305 19.6459 25.2425 19.6939 25.2425 19.7479V20.8999H26.5043V19.7719C26.5043 19.6879 26.5524 19.6459 26.6485 19.6459H27.3274C27.3665 19.6327 27.4085 19.6327 27.4476 19.6459C27.459 19.6601 27.4674 19.6764 27.4728 19.6939C27.4782 19.7114 27.4794 19.7298 27.4776 19.7479V23.0119C27.4825 23.0524 27.4716 23.093 27.4476 23.1259C27.4079 23.1361 27.3671 23.1361 27.3274 23.1259H26.6485C26.6293 23.1288 26.61 23.1272 26.5914 23.1214C26.5734 23.1156 26.5566 23.1056 26.5427 23.0923C26.5283 23.0789 26.5181 23.0626 26.5115 23.0446C26.5049 23.0264 26.5025 23.0071 26.5043 22.9879V21.6859H25.2425V23.0359ZM22.2864 20.0359L21.6856 21.0439L20.55 22.8799L20.4419 23.0359C20.4124 23.0706 20.3782 23.1009 20.3397 23.1259C20.3007 23.147 20.258 23.1613 20.2136 23.1679H20.0453H19.775C19.7113 23.1763 19.6458 23.1693 19.5851 23.1473C19.5244 23.1254 19.4703 23.0893 19.4265 23.0419C19.3628 22.9396 19.3315 22.8204 19.3363 22.6999V18.5899C19.3363 18.5059 19.3844 18.4639 19.4806 18.4639H20.2015C20.2616 18.4639 20.3037 18.4639 20.3157 18.4639C20.3277 18.4969 20.3277 18.533 20.3157 18.5659V21.5659H20.3578L20.9586 20.6239L22.1242 18.7159C22.1542 18.662 22.1909 18.6116 22.2323 18.5659C22.2582 18.5282 22.2906 18.4957 22.3285 18.4699C22.367 18.4463 22.4102 18.4319 22.4547 18.4279H22.6229H22.8933C23.0183 18.4151 23.1432 18.4517 23.2417 18.5299C23.3102 18.6391 23.3421 18.7674 23.3319 18.8959V23.0059C23.3319 23.0959 23.2838 23.1379 23.1937 23.1379H22.4667C22.4282 23.1527 22.385 23.1527 22.3465 23.1379C22.3333 23.1052 22.3333 23.0687 22.3465 23.0359V20.0359H22.2864Z" fill="white" fill-opacity="0.75"/>
<path fill-rule="evenodd" clip-rule="evenodd" d="M9.60284 15.5059C9.59262 15.4975 9.58479 15.487 9.57878 15.4751C9.57337 15.4631 9.57038 15.4502 9.57038 15.437C9.57038 15.4238 9.57337 15.4109 9.57878 15.3989C9.58479 15.387 9.59262 15.3764 9.60284 15.3679L10.3358 14.6299L10.9367 14.0299L10.2096 14.6299H9.31441C9.28858 14.63 9.26334 14.6201 9.24411 14.6022C9.22549 14.5844 9.21408 14.56 9.21228 14.5339V12.674L9.11015 13.598L8.47327 14.228C8.45464 14.2453 8.42998 14.2548 8.40414 14.2548C8.37831 14.2548 8.35368 14.2453 8.33505 14.228L7.59604 13.49L6.99521 12.89L7.59604 13.616V14.5099C7.59604 14.5354 7.58583 14.5599 7.56781 14.5779C7.54978 14.5959 7.52516 14.6059 7.49993 14.6059H5.64334L6.56861 14.7139L7.16944 15.344C7.17965 15.3524 7.18749 15.363 7.1935 15.3749C7.1989 15.3868 7.20189 15.3998 7.20189 15.413C7.20189 15.4262 7.1989 15.4391 7.1935 15.451C7.18749 15.463 7.17965 15.4736 7.16944 15.482L5.85362 16.796L6.58064 16.196H7.47587C7.5011 16.196 7.52576 16.2061 7.54379 16.2241C7.56181 16.2421 7.57202 16.2665 7.57202 16.292V18.2L7.68017 17.282L8.31103 16.646C8.32966 16.6287 8.35429 16.6191 8.38012 16.6191C8.40596 16.6191 8.43059 16.6287 8.44921 16.646L9.77105 17.966L9.17022 17.234V16.34C9.17202 16.314 9.18342 16.2896 9.20205 16.2717C9.22128 16.2539 9.24651 16.244 9.27235 16.244H11.1349L10.2096 16.142L9.60284 15.5059Z" fill="white" fill-opacity="0.75"/>
</svg>
