<svg width="16" height="16" viewBox="0 0 16 16" fill="none" xmlns="http://www.w3.org/2000/svg">
<path fill-rule="evenodd" clip-rule="evenodd" d="M14.8677 8.43383C14.8677 4.88052 11.9871 2 8.43383 2C4.88052 2 2 4.88052 2 8.43383C2 11.9871 4.88052 14.8677 8.43383 14.8677C9.20937 14.8677 10.2748 14.5847 11.63 14.0189L13.8214 14.8737L13.8864 14.8949C14.1697 14.9691 14.4699 14.8208 14.5789 14.5414C14.6225 14.4297 14.6307 14.3072 14.6023 14.1907L13.9913 11.6776L14.0913 11.4382C14.6089 10.1776 14.8677 9.1761 14.8677 8.43383ZM13.2717 11.1246L13.07 11.6021L13.6171 13.8523L11.6188 13.0728L11.073 13.2991C9.92207 13.7636 9.03302 13.9903 8.43378 13.9903C5.36502 13.9903 2.8773 11.5026 2.8773 8.43381C2.8773 5.36504 5.36502 2.87732 8.43378 2.87732C11.5025 2.87732 13.9903 5.36504 13.9903 8.43381C13.9903 9.04532 13.7546 9.95175 13.2717 11.1246Z" fill="#262626"/>
</svg>
