<svg width="16" height="16" viewBox="0 0 16 16" fill="none" xmlns="http://www.w3.org/2000/svg">
<path fill-rule="evenodd" clip-rule="evenodd" d="M4.9 7.00001C5.39706 7.00001 5.8 7.40296 5.8 7.90001C5.8 8.39707 5.39706 8.80001 4.9 8.80001C4.40294 8.80001 4 8.39707 4 7.90001C4 7.40296 4.40294 7.00001 4.9 7.00001ZM8.19993 7C8.69698 7 9.09993 7.40294 9.09993 7.9C9.09993 8.39706 8.69698 8.8 8.19993 8.8C7.70287 8.8 7.29993 8.39706 7.29993 7.9C7.29993 7.40294 7.70287 7 8.19993 7ZM11.4999 7C11.997 7 12.3999 7.40294 12.3999 7.9C12.3999 8.39706 11.997 8.8 11.4999 8.8C11.0029 8.8 10.5999 8.39706 10.5999 7.9C10.5999 7.40294 11.0029 7 11.4999 7Z" fill="#262626"/>
</svg>
