<svg width="16" height="16" viewBox="0 0 16 16" fill="none" xmlns="http://www.w3.org/2000/svg">
<path d="M7.56102 3.10516L7.94417 3.55296L8.37213 3.10516C9.87808 1.59921 12.213 1.66926 13.7615 3.10516L13.8706 3.21023C15.3765 4.71617 15.0075 7.72619 13.5716 9.27464L13.3828 9.47421L13.1725 9.68868C12.3623 10.5024 11.1204 11.6164 9.44681 13.0307L8.49115 13.832C8.16138 14.1065 7.68146 14.1022 7.35666 13.8218L6.17698 12.7979L5.12667 11.8739C3.87821 10.7668 2.94111 9.90039 2.31536 9.27464C0.773553 7.73284 0.47683 4.75203 2.01863 3.21023C3.56043 1.66842 6.01922 1.56336 7.56102 3.10516Z" fill="#ED4956"/>
</svg>
