<svg width="6" height="6" viewBox="0 0 6 6" fill="none" xmlns="http://www.w3.org/2000/svg">
<path fill-rule="evenodd" clip-rule="evenodd" d="M3 0L3.74693 0.492039L4.6386 0.486084L5.00365 1.30799L5.75696 1.79001L5.62423 2.68083L6 3.49779L5.41163 4.1747L5.29056 5.06721L4.43335 5.31529L3.85389 6L3 5.74049L2.14611 6L1.56665 5.31529L0.709437 5.06721L0.588373 4.1747L0 3.49779L0.375774 2.68083L0.243042 1.79001L0.996348 1.30799L1.3614 0.486084L2.25307 0.492039L3 0ZM3.79331 2.15486L2.59994 3.43492L2.20657 3.01297C2.11476 2.91448 1.9613 2.90984 1.86382 3.0026C1.76634 3.09536 1.76175 3.25039 1.85356 3.34887L2.42344 3.96015C2.51916 4.06283 2.68072 4.06283 2.77645 3.96015L4.14632 2.49076C4.23813 2.39228 4.23353 2.23725 4.13605 2.14449C4.03857 2.05173 3.88512 2.05638 3.79331 2.15486Z" fill="#3897F0"/>
</svg>
