<svg width="16" height="16" viewBox="0 0 16 16" fill="none" xmlns="http://www.w3.org/2000/svg">
<path fill-rule="evenodd" clip-rule="evenodd" d="M2 1.29245V13.9568C2 14.1105 2.0605 14.258 2.16841 14.3675C2.39521 14.5975 2.76554 14.6001 2.99555 14.3733L7.99559 9.44313L12.9956 14.3733C13.1051 14.4812 13.2526 14.5417 13.4063 14.5417C13.7293 14.5417 13.9912 14.2798 13.9912 13.9568V1.29245C13.9912 1.13093 13.8602 1 13.6987 1H2.29245C2.13093 1 2 1.13093 2 1.29245ZM2.87738 13.2577V1.87732H13.1139V13.2577L8.40629 8.61593C8.17856 8.39138 7.8127 8.39138 7.58497 8.61593L2.87738 13.2577Z" fill="#262626"/>
</svg>
