<svg width="39" height="24" viewBox="0 0 39 24" fill="none" xmlns="http://www.w3.org/2000/svg">
<path d="M19.6117 20.3786C21.9508 18.2643 23.4175 15.2227 23.4175 11.8288C23.4175 8.43484 21.9508 5.39328 19.6117 3.27902C17.551 1.42441 14.8406 0.293091 11.8516 0.293091C5.46538 0.293091 0.304382 5.46746 0.304382 11.8288C0.304382 18.2087 5.48394 23.3645 11.8516 23.3645C14.8406 23.383 17.551 22.2517 19.6117 20.3786Z" fill="#009CDC"/>
<path d="M19.6117 20.3786C21.9508 18.2643 23.4175 15.2228 23.4175 11.8288C23.4175 8.43488 21.9508 5.39331 19.6117 3.27905" fill="#009CDC"/>
<path d="M19.6117 20.3786C21.9508 18.2643 23.4175 15.2228 23.4175 11.8288C23.4175 8.43488 21.9508 5.39331 19.6117 3.27905" stroke="#009CDC" stroke-width="1.8145"/>
<path d="M27.3532 0.293091C24.3642 0.293091 21.6538 1.42441 19.5931 3.27902C19.1661 3.64994 18.7763 4.05796 18.4235 4.50306H20.7627C21.0783 4.89253 21.3753 5.30055 21.6352 5.72711H17.5324C17.2911 6.11658 17.0683 6.52459 16.8641 6.95115H22.285C22.4706 7.34062 22.6377 7.74863 22.7677 8.17519H16.3628C16.2329 8.56466 16.1215 8.97268 16.0287 9.39924H23.139C23.3061 10.1782 23.3989 11.0128 23.3989 11.8473C23.3989 13.127 23.1947 14.3696 22.8048 15.5195H16.4C16.5485 15.946 16.697 16.354 16.8827 16.7435H22.3036C22.0993 17.1701 21.8766 17.5781 21.6352 17.9675H17.5324C17.7923 18.3941 18.0894 18.8021 18.405 19.1916H20.7441C20.3914 19.6181 20.0015 20.0447 19.5745 20.4156C21.6167 22.2702 24.3457 23.4016 27.3346 23.4016C33.7209 23.4016 38.8818 18.2272 38.8818 11.8659C38.919 5.44891 33.7394 0.293091 27.3532 0.293091Z" fill="#ED2233"/>
<path d="M10.0509 15.0372H8.58424L9.43822 10.5491L7.47036 15.0372H6.26365L6.02231 10.5676L5.07551 15.0372H3.75742L4.8713 9.19519H7.15476L7.17332 12.8117L8.75132 9.19519H11.1833L10.0509 15.0372Z" fill="#003873"/>
<path d="M26.1093 14.9816C25.7195 15.0929 25.4039 15.13 25.0697 15.13C24.3271 15.13 23.9373 14.759 23.9373 14.0914C23.9373 13.9615 23.9558 13.8132 23.9744 13.6648L24.0672 13.2012L24.1415 12.8302L24.8098 9.19519H26.2393L26.0351 10.2894H26.7777L26.5734 11.4393H25.8309L25.4596 13.4237C25.441 13.5164 25.441 13.5721 25.441 13.6277C25.441 13.8688 25.5895 13.9801 25.9237 13.9801C26.0908 13.9801 26.2207 13.9615 26.3135 13.943L26.1093 14.9816Z" fill="#003873"/>
<path d="M20.41 11.7917C20.41 12.3852 20.7441 12.8118 21.5238 13.1085C22.1179 13.3496 22.2107 13.4238 22.2107 13.6278C22.2107 13.9245 21.9508 14.0544 21.3753 14.0544C20.9483 14.0544 20.5399 13.9987 20.0758 13.8689L19.8716 14.9631L19.9458 14.9817L20.2057 15.0373C20.2986 15.0558 20.41 15.0744 20.577 15.0744C20.9298 15.0929 21.1897 15.1115 21.3753 15.1115C22.9162 15.1115 23.6216 14.6107 23.6216 13.5165C23.6216 12.8674 23.3246 12.4779 22.6006 12.1997C21.988 11.9586 21.9137 11.903 21.9137 11.6805C21.9137 11.4208 22.155 11.291 22.6192 11.291C22.8976 11.291 23.2875 11.3095 23.6588 11.3652L23.863 10.271C23.4917 10.2153 22.9162 10.1782 22.582 10.1782C20.9669 10.1782 20.3914 10.9015 20.41 11.7917Z" fill="#003873"/>
<path d="M14.692 15.0372H13.5039L13.541 14.5364C13.1697 14.9259 12.687 15.1114 12.0373 15.1114C11.2576 15.1114 10.7192 14.5735 10.7192 13.8131C10.7192 12.6447 11.6474 11.9771 13.244 11.9771C13.4111 11.9771 13.6153 11.9956 13.8381 12.0142C13.8752 11.8658 13.8938 11.7916 13.8938 11.6989C13.8938 11.3836 13.6524 11.2723 12.9655 11.2723C12.5571 11.2723 12.093 11.3279 11.7774 11.4021L11.5732 11.4578L11.4432 11.4949L11.6474 10.4192C12.3714 10.2337 12.8356 10.1595 13.3739 10.1595C14.6178 10.1595 15.2675 10.6417 15.2675 11.5505C15.2675 11.7916 15.249 11.9585 15.1562 12.4964C15.0076 13.3495 14.8034 14.2026 14.692 15.0372ZM13.7267 12.9229C13.5781 12.9044 13.5039 12.9044 13.4111 12.9044C12.5942 12.9044 12.1858 13.1455 12.1858 13.6277C12.1858 13.9244 12.39 14.1099 12.7056 14.1099C13.2811 14.1099 13.7081 13.6277 13.7267 12.9229Z" fill="#003873"/>
<path d="M19.426 14.9444C18.9248 15.0743 18.4607 15.1299 17.9594 15.1299C16.3443 15.1299 15.5089 14.3881 15.5089 12.9971C15.5089 11.365 16.5671 10.1595 18.0151 10.1595C19.2033 10.1595 19.9458 10.8272 19.9458 11.8843C19.9458 12.2367 19.8902 12.5705 19.7788 13.0527H16.9198C16.9012 13.1269 16.9012 13.164 16.9012 13.2011C16.9012 13.7575 17.3282 14.0357 18.1636 14.0357C18.6835 14.0357 19.1476 13.943 19.6488 13.7389L19.426 14.9444ZM18.7206 12.1069C18.7206 12.0142 18.7391 11.9214 18.7391 11.8658C18.7391 11.4763 18.4792 11.2538 18.0522 11.2538C17.5881 11.2538 17.2725 11.5505 17.1426 12.1069H18.7206Z" fill="#003873"/>
<path d="M34.7791 12.8859C34.5563 14.4624 33.461 15.1671 31.9944 15.1671C30.3607 15.1671 29.7109 14.1842 29.7109 12.9787C29.7109 11.291 30.8248 10.1411 32.5513 10.1411C34.0365 10.1411 34.8348 11.087 34.8348 12.2925C34.8162 12.5892 34.8162 12.6077 34.7791 12.8859ZM33.3124 12.311C33.3124 11.8103 33.1082 11.3466 32.5142 11.3466C31.7716 11.3466 31.326 12.2183 31.326 12.9787C31.326 13.6278 31.6416 14.0543 32.1429 14.0543C32.4585 14.0543 33.1268 13.6278 33.2568 12.8859C33.2939 12.719 33.3124 12.515 33.3124 12.311Z" fill="#003873"/>
<path d="M34.9276 14.3325C34.9276 14.1285 35.0947 13.9615 35.2989 13.9615C35.5031 13.9615 35.6702 14.1285 35.6702 14.3325C35.6702 14.5365 35.5031 14.7034 35.2989 14.7034C35.0947 14.7034 34.9276 14.5365 34.9276 14.3325ZM35.2989 14.6107C35.4474 14.6107 35.5774 14.4808 35.5774 14.3325C35.5774 14.1841 35.4474 14.0543 35.2989 14.0543C35.1504 14.0543 35.0204 14.1841 35.0204 14.3325C35.0204 14.4994 35.1504 14.6107 35.2989 14.6107ZM35.2617 14.4994H35.1875V14.1656H35.3174C35.3546 14.1656 35.3731 14.1656 35.4103 14.1841C35.4288 14.2026 35.4474 14.2397 35.4474 14.2583C35.4474 14.2954 35.4288 14.3325 35.3917 14.351L35.4474 14.4994H35.3546L35.2989 14.3696H35.2432V14.4994H35.2617ZM35.2617 14.3139H35.2989C35.3174 14.3139 35.336 14.3139 35.336 14.3139C35.3546 14.3139 35.3546 14.2954 35.3546 14.2768C35.3546 14.2583 35.336 14.2583 35.336 14.2397C35.3174 14.2397 35.2989 14.2397 35.2803 14.2397H35.2432V14.3139H35.2617Z" fill="white"/>
<path d="M10.4036 14.7035H8.97411L9.82808 10.2153L7.86022 14.7035H6.54213L6.30078 10.2339L5.44681 14.7035H4.14728L5.26116 8.86145H7.50749L7.61888 12.4779L9.19688 8.86145H11.536L10.4036 14.7035Z" fill="white"/>
<path d="M26.4806 14.6478C26.0908 14.7591 25.7752 14.7962 25.441 14.7962C24.6984 14.7962 24.3086 14.4253 24.3086 13.7576C24.3086 13.6278 24.3271 13.4794 24.3457 13.3311L24.4385 12.8674L24.5128 12.4965L25.1811 8.86145H26.6106L26.4064 9.95567H27.149L26.9448 11.1055H26.2022L25.8309 13.09C25.8123 13.1827 25.8123 13.2383 25.8123 13.294C25.8123 13.5351 25.9608 13.6463 26.295 13.6463C26.4621 13.6463 26.592 13.6278 26.6848 13.6093L26.4806 14.6478Z" fill="white"/>
<path d="M30.175 11.3095L30.1379 11.1611L30.4164 10.4193C30.3421 10.4193 30.3235 10.4193 30.305 10.4007C30.2307 10.3822 30.1936 10.3822 30.175 10.3822C30.1379 10.3822 30.0822 10.3636 30.0265 10.3636C29.5624 10.3636 29.2097 10.5676 28.7827 11.1426L28.9312 10.2894H27.446L26.5549 15.0372H27.9844C28.1886 13.943 28.2628 13.331 28.3928 12.8117C28.5784 11.9586 29.2282 11.5691 29.6738 11.6433C29.7295 11.6618 29.7666 11.6618 29.8408 11.6804L29.9337 11.7175L30.175 11.3095Z" fill="#003873"/>
<path d="M30.6763 9.99276C30.5463 9.93712 30.5277 9.93711 30.5092 9.93711C30.4349 9.91857 30.3978 9.91857 30.3792 9.91857C30.3421 9.91857 30.2864 9.90002 30.2307 9.90002C29.7666 9.90002 29.4139 10.104 28.9869 10.679L29.1168 9.95566H27.8173L26.9448 14.722H28.3742C28.8941 11.8103 29.1168 11.3095 29.8037 11.3095C29.8594 11.3095 29.9151 11.3095 29.9894 11.3281L30.1564 11.3652L30.6763 9.99276Z" fill="white"/>
<path d="M20.7813 11.4579C20.7813 12.0513 21.1154 12.4779 21.8951 12.7932C22.4892 13.0343 22.582 13.1085 22.582 13.3125C22.582 13.6092 22.3221 13.739 21.7466 13.739C21.3196 13.739 20.9112 13.6834 20.4471 13.5536L20.2429 14.6478L20.2986 14.6663L20.5585 14.722C20.6513 14.7405 20.7627 14.7405 20.9298 14.7591C21.2825 14.7776 21.5424 14.7962 21.7281 14.7962C23.2689 14.7962 23.9744 14.2954 23.9744 13.2012C23.9744 12.5521 23.6774 12.1626 22.9533 11.8844C22.3407 11.6433 22.2664 11.5877 22.2664 11.3651C22.2664 11.1055 22.5078 10.9757 22.9719 10.9757C23.2504 10.9757 23.6402 10.9942 24.0115 11.0498L24.2157 9.95563C23.8444 9.89999 23.2689 9.8629 22.9348 9.8629C21.3382 9.84435 20.7627 10.5677 20.7813 11.4579Z" fill="white"/>
<path d="M15.0819 14.7034H13.8938L13.9123 14.2027C13.541 14.5922 13.0583 14.7776 12.4086 14.7776C11.6289 14.7776 11.0905 14.2398 11.0905 13.4794C11.0905 12.3295 12.0187 11.6433 13.6153 11.6433C13.7824 11.6433 13.9866 11.6619 14.2094 11.6804C14.2465 11.532 14.2651 11.4579 14.2651 11.3651C14.2651 11.0499 14.0237 10.9386 13.3368 10.9386C12.9284 10.9386 12.4643 10.9942 12.1487 11.0684L11.9445 11.124L11.8145 11.1611L12.0187 10.0855C12.7427 9.89999 13.2069 9.82581 13.7452 9.82581C14.9891 9.82581 15.6388 10.308 15.6388 11.2168C15.6388 11.4579 15.6203 11.6248 15.5275 12.1626C15.3975 13.0157 15.1747 13.8689 15.0819 14.7034ZM14.0237 12.5892C13.8752 12.5706 13.8009 12.5706 13.7081 12.5706C12.8913 12.5706 12.4828 12.8117 12.4828 13.2939C12.4828 13.5907 12.687 13.7761 13.0026 13.7761C13.5782 13.7761 14.0051 13.2939 14.0237 12.5892Z" fill="white"/>
<path d="M19.7973 14.6107C19.2961 14.7405 18.832 14.7962 18.3307 14.7962C16.7156 14.7962 15.8802 14.0543 15.8802 12.6634C15.8802 11.0313 16.9384 9.82581 18.3864 9.82581C19.5746 9.82581 20.3172 10.4935 20.3172 11.5506C20.3172 11.903 20.2615 12.2368 20.1315 12.719H17.2725C17.254 12.7932 17.254 12.8303 17.254 12.8674C17.254 13.4238 17.681 13.702 18.5164 13.702C19.0362 13.702 19.5003 13.6092 20.0016 13.4052L19.7973 14.6107ZM19.0362 11.7731C19.0362 11.6804 19.0548 11.5877 19.0548 11.5321C19.0548 11.1426 18.7948 10.92 18.3679 10.92C17.9037 10.92 17.5881 11.2168 17.4582 11.7731H19.0362Z" fill="white"/>
<path d="M35.1504 12.5521C34.9276 14.1285 33.8323 14.8333 32.3656 14.8333C30.7319 14.8333 30.0822 13.8503 30.0822 12.6448C30.0822 10.9571 31.1961 9.80725 32.9226 9.80725C34.4078 9.80725 35.206 10.7531 35.206 11.9586C35.1875 12.2553 35.1875 12.2739 35.1504 12.5521ZM33.6652 11.9401C33.6652 11.4393 33.461 10.9757 32.8669 10.9757C32.1429 10.9757 31.6787 11.8473 31.6787 12.6077C31.6787 13.2568 31.9943 13.6834 32.5142 13.6834C32.8298 13.6834 33.4981 13.2568 33.628 12.515C33.6466 12.3295 33.6652 12.1441 33.6652 11.9401Z" fill="white"/>
</svg>
