<svg width="39" height="24" viewBox="0 0 39 24" fill="none" xmlns="http://www.w3.org/2000/svg">
<path d="M0.614197 14.4623L1.561 8.10095L37.5394 8.63879L36.5369 16.0758L1.43104 16.2798L1.02262 15.8718L0.614197 14.4623Z" fill="white"/>
<path d="M37.3538 14.4067V14.2954L37.2424 14.2769L37.131 14.2583L37.1124 14.3325L37.0938 14.4067L37.1124 14.4438L37.131 14.4809H37.2424H37.3538V14.4067ZM37.0567 14.6107L36.9825 14.5365V14.2954L37.0567 14.2212L37.131 14.147H37.3352L37.428 14.2398L37.5208 14.3325V14.4994L37.428 14.5921L37.3352 14.6849H37.131L37.0567 14.6107ZM37.428 14.722L37.5394 14.6478L37.6322 14.4252L37.558 14.2212L37.4837 14.147L37.4094 14.0729L37.2981 14.0543L37.1867 14.0358L37.0938 14.0914L37.001 14.147L36.9082 14.3325V14.4994L36.9639 14.5921L37.0196 14.6849L37.1124 14.7405C37.1681 14.7591 37.2424 14.7962 37.2795 14.7962H37.3352L37.428 14.722ZM31.3945 14.7405L31.4316 14.7034L31.543 14.0172C31.5987 13.6463 31.6915 13.0899 31.7658 12.7746L31.8772 12.2182L31.97 11.9401L32.0628 11.6619L32.1742 11.5506L32.2856 11.4393L32.4155 11.4022C32.4898 11.3837 32.5641 11.3651 32.6012 11.3651H32.6754L32.8425 10.716L32.9539 10.4378C33.0096 10.2894 33.0839 10.1225 33.0839 10.0854L33.1024 10.0113H32.9354H32.7683L32.6383 10.0669C32.4712 10.1411 32.3041 10.2894 32.1556 10.4935L32.0442 10.6604L32.0257 10.6418L32.0071 10.6233L32.0442 10.3822L32.0814 10.1411L32.0442 10.0483H30.9861L30.9489 10.0854L30.9118 10.1225L30.8932 10.3265C30.8375 10.8829 30.2806 14.4809 30.2435 14.6478L30.2249 14.7034L30.2435 14.7405L30.262 14.7776H31.413L31.3945 14.7405ZM21.1096 14.7591L21.1468 14.722L21.3138 13.6834L21.4809 12.6448L21.5552 12.3295C21.5923 12.1626 21.6851 11.9401 21.7223 11.8288L21.8151 11.6433L21.945 11.532L22.075 11.4208L22.2421 11.4022L22.4092 11.3837L22.4277 11.2909C22.4463 11.2353 22.4834 11.0869 22.5205 10.92L22.5948 10.6418L22.7248 10.3451L22.8547 10.0483L22.8361 10.0298C22.8176 10.0113 22.7433 10.0113 22.6691 10.0113H22.5205L22.3535 10.0854L22.1864 10.1596L21.9822 10.3822C21.8708 10.512 21.778 10.6233 21.778 10.6233V10.6418H21.7223C21.7037 10.6418 21.6666 10.6418 21.6666 10.6233C21.6666 10.6233 21.6851 10.4935 21.7037 10.3636L21.7408 10.1225L21.7037 10.0854L21.6666 10.0298H21.1839H20.7012L20.6641 10.0483L20.6269 10.0669L20.5898 10.2895C20.5713 10.4193 20.5156 10.7902 20.4784 11.1055C20.4413 11.4393 20.3113 12.2553 20.2 12.9415C20.0886 13.6277 19.9957 14.2769 19.9772 14.4067L19.9401 14.6478L19.9586 14.7034L19.9772 14.7591H21.0725H21.1096ZM2.30357 14.7405L2.35926 14.7034L2.54491 13.6092C2.86051 11.7731 3.04616 10.6789 3.06472 10.6604L3.08329 10.6418L3.10185 10.6789C3.10185 10.6975 3.13898 11.6248 3.15755 12.719L3.21324 14.722L3.23181 14.7591L3.25037 14.7962H3.62166H3.99296L4.03009 14.7776L4.06722 14.7591L4.5499 13.4052C4.80981 12.6634 5.14397 11.736 5.27393 11.3651C5.40388 10.9942 5.53383 10.6789 5.5524 10.6604L5.58953 10.6233V10.6975C5.58953 10.7346 5.44101 11.6619 5.27393 12.7561L4.95832 14.7405L5.01402 14.8147H5.5524H6.09077L6.1279 14.7962L6.16503 14.7591L6.23929 14.3325C6.27642 14.0914 6.38781 13.4423 6.48063 12.8859C6.57346 12.3295 6.74054 11.2538 6.87049 10.512C7.00044 9.77016 7.09327 9.13959 7.09327 9.10249V9.02831H5.19967L5.16254 9.13959C5.14397 9.19523 4.8655 9.97416 4.56847 10.8644L4.03009 12.4779L3.9744 12.4223L3.95583 10.9942C3.95583 10.2153 3.93727 9.45487 3.9187 9.3065L3.90014 9.04686H2.19218L2.17362 9.10249C2.15505 9.12104 1.95084 10.4193 1.69094 11.9586L1.22682 14.7591L1.24538 14.7962L1.26395 14.8332H2.28501L2.30357 14.7405ZM34.2349 13.6463L34.1421 13.6092L34.0492 13.5165L33.9564 13.4237L33.9193 13.2939L33.8822 13.1641V12.2553L33.975 11.9957L34.0678 11.736L34.1977 11.5506L34.3277 11.3651L34.6433 11.1982H35.0146L35.1446 11.2724L35.2745 11.328L35.3488 11.4579L35.423 11.5877L35.4602 11.7546L35.4973 11.9215V12.107C35.4973 12.3481 35.4416 12.6633 35.3673 12.923L35.2931 13.127L35.1446 13.3125L34.996 13.4979L34.8289 13.5907L34.6619 13.6834H34.4948H34.3277L34.2349 13.6463ZM34.6619 14.7405L34.8475 14.6478L34.9775 14.5365C35.0517 14.4809 35.126 14.4252 35.1446 14.4252H35.1817L35.1631 14.5921L35.1446 14.7591H35.7015H36.2584L36.2956 14.6849C36.3141 14.6478 36.3513 14.4252 36.3884 14.1841C36.4255 13.9616 36.6297 12.7004 36.8339 11.3837L37.2795 9.04686L37.2609 9.02831L37.2424 9.00976H36.0914L36.0728 9.02831C36.0542 9.04686 35.9985 9.38069 35.9428 9.7887C35.8871 10.1967 35.8129 10.5491 35.7943 10.5676L35.7757 10.6233L35.5901 10.4378L35.4045 10.2524L35.1817 10.1596L34.9589 10.0669L34.6804 10.0483L34.402 10.0298L34.0121 10.1411L33.6408 10.3636L33.4737 10.5305L33.3066 10.6975L33.1767 10.8829C32.991 11.1426 32.8797 11.3651 32.7683 11.699L32.6754 11.9771L32.6197 12.2924L32.5641 12.6077V13.1456L32.6383 13.6092L32.7126 13.8318C32.8425 14.2027 33.0096 14.4438 33.3066 14.6292L33.4552 14.722L33.6408 14.7776L33.8265 14.8332L34.1606 14.8147L34.4948 14.7962L34.6619 14.7405ZM27.7372 13.8132C27.7001 13.7947 27.6258 13.739 27.5887 13.6834L27.533 13.5907L27.5145 13.4237L27.4959 13.2568L27.5516 13.1085L27.6073 12.9601L27.7001 12.8859C27.7558 12.8488 27.8486 12.7746 27.9043 12.7561L28.0157 12.7004L28.2942 12.6634L28.5726 12.6263L28.684 12.6634L28.7954 12.7004L28.7769 13.0157L28.7026 13.2012L28.6283 13.3866L28.5355 13.5165L28.4427 13.6463L28.3127 13.739L28.1828 13.8318L27.7929 13.8503L27.7372 13.8132ZM27.9229 14.7962C28.1828 14.7405 28.3313 14.6478 28.5355 14.4809L28.684 14.351L28.7583 14.3881L28.7397 14.5365L28.7212 14.6849L28.7583 14.722L28.7954 14.7591H29.7237L29.7422 14.6849C29.7608 14.6478 29.7793 14.518 29.7979 14.4252C29.8165 14.314 29.9093 13.7019 30.0021 13.0714C30.0949 12.4408 30.1878 11.7731 30.2063 11.6248L30.2249 11.328L30.1692 10.8458L30.0949 10.6789L30.0207 10.512L29.8907 10.3822L29.7608 10.2524L29.5566 10.1596L29.3524 10.0669L29.1296 10.0113L28.9068 9.95562H28.5912H28.2756L28.0528 9.99271C27.7744 10.0298 27.1246 10.1782 27.106 10.2153C27.0875 10.2524 26.9575 11.0498 26.9575 11.1426V11.2353L27.0689 11.2168C27.1246 11.1982 27.2731 11.1797 27.4031 11.1426L27.6258 11.0869L28.09 11.0684L28.5541 11.0498L28.7397 11.1055L28.9254 11.1611L29.0368 11.2909L29.0553 11.4208L29.0739 11.5506L29.0553 11.6619L29.0368 11.7731H28.09L27.8672 11.8288C27.7372 11.8473 27.5516 11.903 27.4588 11.9401L27.2731 12.0142L27.0875 12.1441L26.9018 12.2739L26.7533 12.4408L26.6048 12.6077L26.4934 12.8674L26.382 13.127V13.5536V13.9801L26.4563 14.1656L26.5305 14.351L26.679 14.518L26.8276 14.6849L26.9575 14.7591C27.0318 14.7962 27.1246 14.8332 27.1803 14.8518L27.2545 14.8703H27.5145H27.7744L27.9229 14.7962ZM25.5466 14.7776L25.8808 14.7034L25.9179 14.6663L25.955 14.6292L26.0293 14.1099C26.0664 13.8318 26.1221 13.5536 26.1407 13.4979L26.1592 13.4052L26.0664 13.4237C26.0107 13.4423 25.8622 13.4794 25.7508 13.535L25.528 13.6278H24.7483L24.5812 13.535L24.4141 13.4423L24.2842 13.2939L24.1542 13.1456L24.08 12.9601C24.0428 12.8674 23.9872 12.7004 23.9686 12.6077L23.9315 12.4223L23.95 12.0699L23.9686 11.7175L24.0985 11.1982L24.2099 10.9571L24.3213 10.716L24.5255 10.512L24.7297 10.308L24.9525 10.1967L25.1753 10.0854H25.955L26.2706 10.2153C26.4377 10.2894 26.6048 10.3265 26.6233 10.3265H26.6605L26.679 10.2524C26.6976 10.1782 26.8647 9.17668 26.8647 9.13959C26.8647 9.1025 26.6233 9.00976 26.2706 8.91703L25.8808 8.8243H25.101L24.8411 8.89849L24.5812 8.97267L24.3584 9.08395C24.2285 9.13959 24.0428 9.25087 23.9686 9.32505L23.8015 9.45487L23.6159 9.65888C23.3931 9.91852 23.2631 10.104 23.1332 10.3822L23.0218 10.6047L22.929 10.92L22.8361 11.2353L22.7248 11.9586L22.7433 12.4593L22.7619 12.9601L22.8176 13.1456C22.8547 13.2568 22.9104 13.4237 22.9475 13.5165L23.0218 13.7019L23.1517 13.9059C23.3745 14.2398 23.6344 14.4809 23.9872 14.6478L24.1542 14.722L24.5627 14.8147H25.2681L25.5466 14.7776ZM17.4152 11.7917V11.7175L17.5081 11.5135L17.6009 11.3095L17.7309 11.1982L17.8608 11.0869L17.9908 11.0498C18.065 11.0313 18.1578 11.0127 18.2321 11.0127H18.3435L18.4734 11.0684L18.6034 11.124L18.7519 11.3651V11.5877V11.8102L17.3967 11.8288V11.7917H17.4152ZM19.1418 14.7591C19.2903 14.722 19.4202 14.6849 19.4388 14.6663L19.4574 14.6478L19.5502 14.1285L19.643 13.6092L19.6059 13.5907L19.5688 13.5721L19.4017 13.6278C19.3089 13.6648 19.1232 13.7205 18.9747 13.7576L18.7148 13.8132H18.0279L17.638 13.6834L17.4895 13.535L17.341 13.3866L17.3039 13.2197C17.2853 13.127 17.2667 13.0157 17.2667 12.9786V12.9044L17.3039 12.8674L17.341 12.8303L19.7358 12.8117L19.7915 12.5335L19.8472 12.2553L19.8844 11.5506L19.8472 11.3095L19.8101 11.0684L19.5502 10.5676L19.3645 10.4007L19.1789 10.2338L18.9932 10.1411L18.8076 10.0483L18.3435 9.95562L18.1578 9.97416L17.8979 9.99271L17.6566 10.0854L17.4152 10.1782L17.2482 10.2895L17.0811 10.4007L16.8769 10.6233L16.6727 10.8458L16.5427 11.0869L16.4128 11.328L16.3199 11.6248L16.2271 11.9215L16.1157 12.5892L16.1343 12.9415L16.1528 13.2939L16.2271 13.5536L16.3014 13.8132L16.4128 14.0172L16.5241 14.2212L16.6727 14.3696C16.9326 14.6292 17.2853 14.8147 17.6937 14.8889L17.8608 14.926L18.3992 14.9074L18.9376 14.8889L19.1418 14.7591ZM15.466 14.7591C15.5588 14.722 15.633 14.6849 15.6516 14.6849C15.6887 14.6663 15.8372 13.739 15.8187 13.7019L15.8001 13.6834L15.6145 13.7019L15.4288 13.7205L15.3174 13.6834L15.206 13.6463L15.1504 13.5721L15.0947 13.4979V13.331V13.1641L15.4288 11.2538L15.466 11.2168L15.5031 11.1797H16.0415L16.06 11.1426C16.0786 11.124 16.1157 10.8829 16.1528 10.6047L16.2271 10.104L16.19 10.0854L16.1528 10.0669H15.8929H15.633V10.0298C15.633 10.0113 15.6702 9.86289 15.6887 9.71452L15.7444 9.43633L15.7259 9.39923L15.7073 9.36214H15.1504H14.5934L14.5563 9.38069L14.5192 9.39923L14.4449 9.77016C14.3335 10.3636 13.888 13.0528 13.8323 13.4608L13.7766 13.8318L13.7951 13.9801C13.8137 14.0543 13.8323 14.2027 13.8694 14.2769L13.9251 14.4438L14.0365 14.5736L14.1479 14.7034L14.2407 14.7591C14.2964 14.7962 14.3706 14.8147 14.4263 14.8332L14.5006 14.8518L14.8904 14.8332L15.2803 14.8147L15.466 14.7591ZM12.6256 14.7405L12.8855 14.6478L13.0525 14.5365L13.2196 14.4252L13.3124 14.2954C13.4424 14.1285 13.5167 13.9987 13.5724 13.7576L13.628 13.5536V13.2754V12.9972L13.4981 12.6077L13.4053 12.4779L13.3124 12.3481L13.1639 12.2368C13.0711 12.1812 12.8669 12.0513 12.6812 11.9586L12.3471 11.7917L12.2543 11.6804L12.1614 11.5691L12.18 11.4393L12.1986 11.3095L12.2543 11.2538C12.2914 11.2168 12.3471 11.1611 12.4028 11.1426L12.4956 11.0869L12.9412 11.1055C13.1825 11.1055 13.461 11.124 13.5167 11.124H13.6466L13.7209 10.6975C13.758 10.4749 13.7951 10.2338 13.7951 10.1782V10.0854L13.7209 10.0669C13.6837 10.0483 13.461 10.0298 13.2196 10.0113L12.7926 9.97416L12.5142 9.99271L12.2357 10.0113L11.8273 10.104L11.4745 10.2709L11.2889 10.4378L11.1032 10.6047L10.9176 10.9942L10.8805 11.1797L10.8433 11.3651L10.8619 11.6619L10.8805 11.9586L10.9919 12.1812L11.1032 12.4037L11.4931 12.7561L11.883 12.9601L12.2728 13.1641L12.3285 13.2197L12.3842 13.2754V13.5907L12.2357 13.7576L12.0872 13.8132L11.9387 13.8688L11.0847 13.8318L10.6206 13.7019L10.5649 13.7761L10.4906 14.1841C10.4535 14.4067 10.4164 14.6292 10.4164 14.6849V14.7776L10.5463 14.8147C10.6206 14.8332 10.7876 14.8703 10.9362 14.8703L11.1961 14.9074L12.3656 14.8889L12.6256 14.7405ZM8.22571 13.8503C8.18858 13.8503 8.11433 13.8132 8.0772 13.7761L7.98437 13.7205L7.92868 13.5907C7.87298 13.4423 7.87299 13.3681 7.91011 13.2012L7.94724 13.0714L8.05863 12.9601L8.17002 12.8488L8.29997 12.7932L8.42993 12.7375L8.68983 12.7004L8.94974 12.6634L9.20964 12.719L9.19108 12.8674V13.0157L9.13538 13.1826L9.07969 13.3496L8.87548 13.6648L8.74553 13.7576L8.61557 13.8503L8.46706 13.8874C8.3371 13.8688 8.31854 13.8874 8.22571 13.8503ZM8.28141 14.8147L8.44849 14.7776L8.61557 14.7034L8.78266 14.6292L8.93117 14.4994C9.00543 14.4252 9.07969 14.3696 9.09826 14.3696C9.11682 14.3696 9.11682 14.4623 9.11682 14.5736L9.13538 14.7776H10.1379L10.1936 14.351C10.2307 14.1099 10.305 13.5536 10.3792 13.0899C10.4535 12.6263 10.5277 12.107 10.5649 11.9401L10.602 11.6248V11.3837V11.1426L10.5277 10.7902L10.4349 10.6047L10.3421 10.4193L10.2307 10.3265C10.1008 10.2153 9.87797 10.0854 9.63663 10.0298L9.45099 9.97416L8.83835 9.93707L8.54131 9.97416C8.37423 9.99271 8.09576 10.0483 7.91011 10.0854L7.55738 10.1596L7.52025 10.1967L7.48313 10.2338L7.40887 10.6975L7.33461 11.1611L7.35317 11.1797L7.37174 11.1982L7.55738 11.1611C7.65021 11.1426 7.87298 11.1055 8.0215 11.0684L8.29997 11.0127L8.7084 11.0313L9.11682 11.0498L9.24677 11.124L9.37673 11.1982L9.41385 11.3095L9.45099 11.4208L9.41385 11.5691L9.37673 11.7175L8.83835 11.736L8.29997 11.7546L7.85442 11.8659L7.63164 11.9771L7.40887 12.0884L7.24178 12.2368L7.0747 12.3852L6.98188 12.5335C6.92618 12.6077 6.85192 12.7561 6.81479 12.8488L6.7591 13.0157L6.72197 13.2568L6.68484 13.4979L6.72197 13.7205L6.7591 13.943L6.83336 14.1099C6.87049 14.2027 6.94475 14.3325 7.00044 14.4067L7.09327 14.518L7.24178 14.6107C7.31604 14.6478 7.446 14.722 7.50169 14.7405L7.61308 14.7776H7.85442H8.09576L8.28141 14.8147ZM10.3235 23.1605C9.80372 23.1048 9.26534 23.0121 8.72696 22.8637L8.28141 22.7524L7.79873 22.5855C4.69842 21.5098 2.19218 19.1359 0.929781 16.0944C0.577051 15.2227 0.33571 14.351 0.187192 13.3125L0.112935 12.8674L0.0943687 12.0328L0.0758057 11.1982L0.112935 10.7902C0.335711 8.45338 1.13399 6.43185 2.61917 4.57724L2.86051 4.26196L4.03009 3.09355L4.34569 2.85246C4.79124 2.50008 5.16254 2.24043 5.66378 1.94369L6.09077 1.68405L6.51776 1.48004C7.98437 0.775289 9.3396 0.422913 10.9919 0.330182L11.5859 0.293091L12.18 0.330182L12.7741 0.367274L13.2196 0.44146C14.0365 0.552737 14.8533 0.775288 15.6145 1.05348L16.0415 1.2204L16.5427 1.4615C17.4524 1.9066 18.3064 2.46298 19.0304 3.09355C19.1418 3.18628 19.2346 3.26047 19.2532 3.26047C19.2717 3.26047 19.4202 3.14919 19.5873 3.00082C21.3695 1.49859 23.5787 0.589829 25.9179 0.385821L26.2892 0.34873H26.9389H27.5887L27.96 0.385821C28.5169 0.44146 28.9625 0.497099 29.5194 0.626922L30.0207 0.738197L30.5405 0.905113C32.1556 1.44295 33.5109 2.25898 34.8289 3.46448L35.1631 3.77976L35.5158 4.18778C36.5555 5.35618 37.2795 6.61732 37.7807 8.06392L37.9478 8.54611L38.0592 9.00976C38.1706 9.49196 38.282 10.0298 38.3377 10.5862L38.3748 10.92V11.7546V12.5892L38.3377 12.9415C38.2077 14.0543 37.9664 15.0002 37.5951 15.9646L37.4094 16.4097L37.1495 16.9104L36.8896 17.4112L36.6669 17.7635C35.423 19.748 33.6594 21.2873 31.5616 22.2146L31.116 22.4186L30.6519 22.5855C30.0578 22.7895 29.4266 22.9379 28.814 23.0492L28.3313 23.1234L27.8486 23.1605L27.3659 23.1975L26.6605 23.179L25.955 23.1605L25.5466 23.1048C25.3238 23.0677 24.934 23.0121 24.6741 22.9564L24.1914 22.8637L23.7458 22.7339C23.5045 22.6597 23.1332 22.5299 22.9104 22.4557L22.5205 22.3073L22.0007 22.0477C21.0911 21.6026 20.1814 21.0091 19.4759 20.3971C19.4017 20.3229 19.3088 20.2673 19.2903 20.2673C19.2717 20.2673 19.1603 20.3414 19.0489 20.4527C18.2135 21.176 17.1739 21.8251 16.1528 22.2702L15.7259 22.4557L15.2432 22.6226L14.7605 22.7895L14.3521 22.8823C13.7766 23.0306 13.331 23.1048 12.7926 23.1605L12.3285 23.2161H11.5488H10.7691L10.3235 23.1605Z" fill="#FC9801"/>
<path d="M35.6458 10.4935L35.5344 10.3637V10.3266C35.5344 10.2338 35.6644 9.45489 35.7015 9.39926L35.7386 9.32507H35.9985V9.4178C35.9985 9.52908 35.8314 10.4935 35.8129 10.5862L35.7943 10.6418L35.6458 10.4935ZM26.0107 10.6418C25.8808 10.5862 25.6951 10.5306 25.5837 10.4935L25.3981 10.4564H25.1753H24.9525L24.7669 10.512C24.6741 10.5491 24.5627 10.5677 24.5441 10.5677H24.4884L24.6184 10.4378L24.7483 10.308L25.1753 10.104H25.9179L26.1407 10.1782L26.3634 10.2524L26.3449 10.4564L26.3263 10.6604L26.2892 10.6975L26.2521 10.7346L26.0107 10.6418ZM28.6283 11.6619L28.5355 11.5506L28.3313 11.4393L27.9971 11.4208L27.663 11.4022L27.3845 11.4393C27.236 11.4579 26.9946 11.5135 26.8647 11.5321L26.6233 11.5877L26.5862 11.5506L26.5491 11.5135L26.6233 11.0684C26.6605 10.8273 26.6976 10.6048 26.7162 10.5677L26.7347 10.512L26.8647 10.4749L26.9946 10.4378L27.0318 10.4749L27.0689 10.512L27.0318 10.7531C27.0132 10.8829 26.9946 11.0499 26.9946 11.1055V11.2168L27.106 11.1982C27.1617 11.1797 27.3102 11.1611 27.4402 11.124L27.663 11.0684L28.5726 11.0313L28.7583 11.087L28.9439 11.1426L29.0553 11.2724L29.0739 11.4022L29.0925 11.5321L29.0739 11.6433L29.0553 11.7546H28.7769L28.6283 11.6619ZM34.9032 13.5165C34.9032 13.498 34.9403 13.3681 34.996 13.2383L35.0889 12.9972L35.1074 12.6077L35.126 12.2183L35.0703 12.0328L35.0146 11.8473L34.8104 11.6248L34.699 11.5877L34.5876 11.5506H34.4205C34.3277 11.5506 34.2349 11.5506 34.2349 11.5506H34.2163L34.272 11.4764L34.3277 11.4022L34.6619 11.2168H35.0332L35.2931 11.3466L35.3673 11.4764L35.4416 11.6062L35.4787 11.7732L35.5158 11.9401V12.1255C35.5158 12.3666 35.4601 12.6819 35.3859 12.923L35.3116 13.127L35.1817 13.3125L35.0517 13.498L34.996 13.535L34.9403 13.5721L34.9032 13.5165ZM28.3127 13.702C28.3127 13.702 28.3499 13.6092 28.3684 13.4794L28.4241 13.2754V13.0158H28.2942C28.0714 13.0158 27.7929 13.0343 27.7001 13.0528L27.6073 13.0899L27.5516 13.0343L27.7187 12.8303L27.8672 12.7561L28.0157 12.6819L28.2756 12.6448L28.5355 12.6077L28.6655 12.6263L28.7954 12.6448L28.814 12.7005L28.8325 12.7561L28.7954 12.9416L28.7583 13.127L28.684 13.2939L28.6098 13.4609L28.4984 13.5721L28.387 13.6834H28.3684C28.3499 13.7205 28.3127 13.7205 28.3127 13.702ZM29.8165 15.0558C29.8165 15.0187 29.835 14.8518 29.8722 14.6849C30.0207 13.8318 30.3549 11.6248 30.4291 11.0684L30.5034 10.4193L30.5405 10.4007C30.5962 10.3637 30.7261 10.3637 30.7818 10.4007L30.819 10.4378L30.7447 10.9757C30.7076 11.2724 30.5591 12.1997 30.4291 13.0528C30.2992 13.906 30.1878 14.6478 30.1878 14.6849V14.7591L30.6333 14.7776L31.0789 14.7962V14.926C31.0789 15.0002 31.0603 15.0744 31.0603 15.0929L31.0417 15.13H29.7979V15.0558H29.8165ZM33.2509 15.1486L33.0839 15.0929L32.8982 14.9631L32.7126 14.8333L32.6012 14.6849C32.5455 14.6107 32.4527 14.4624 32.397 14.3696L32.3041 14.2027L32.1742 13.702V13.2569V12.8117L32.2485 12.4965C32.2856 12.311 32.3413 12.0884 32.3784 11.9772L32.4341 11.7917L32.3784 11.7732L32.3227 11.7546L32.1742 11.8103C32.0814 11.8473 32.0071 11.8844 31.9885 11.8844L31.97 11.903V11.7732L32.0442 11.6619C32.0814 11.6062 32.1742 11.5321 32.2113 11.495L32.3041 11.4393L32.4527 11.4208L32.6012 11.4022L32.8054 11.0313L33.0653 10.7717L33.3252 10.512L33.3623 10.5491L33.1953 10.7717C33.1024 10.9015 32.9725 11.087 32.9168 11.1982L32.8054 11.4022L32.7126 11.699L32.6197 11.9957L32.5641 12.311L32.5084 12.6263V13.1641L32.5826 13.6278L32.6569 13.8503C32.7868 14.2398 32.991 14.4994 33.2881 14.6849L33.4366 14.7776L33.8265 14.8889L34.1235 14.8704L34.4205 14.8518L34.6062 14.7591L34.7918 14.6664L34.9218 14.5551C34.996 14.4994 35.0703 14.4438 35.0889 14.4438H35.126L35.1074 14.6107L35.0889 14.7776L35.5158 14.7962L35.9428 14.8147V14.9075C35.9428 14.9631 35.9243 15.0373 35.9243 15.0744L35.9057 15.1486H34.7361L34.7176 14.9631L34.699 14.7776L34.5876 14.8704C34.4205 15.0187 34.272 15.0929 34.0678 15.1486L33.9007 15.2042H33.6222H33.3438L33.2509 15.1486ZM26.6605 15.1486C26.5862 15.1115 26.4563 15.0558 26.382 15.0002L26.2706 14.9075L26.1778 14.7591L26.085 14.6107L26.0478 14.4809L26.0107 14.3511L26.0664 13.9987C26.1035 13.7947 26.1407 13.5907 26.1407 13.535L26.1592 13.4238H26.0293V13.2754L26.1407 13.0528L26.2521 12.8303L26.382 12.7005C26.4563 12.6263 26.512 12.5892 26.5305 12.5892C26.5305 12.5892 26.4934 12.719 26.4377 12.8674L26.3263 13.127V13.5536V13.9802L26.4006 14.1656L26.4748 14.3511L26.7719 14.6849L26.9389 14.7776L27.106 14.8704H27.8486L28.0714 14.7962L28.2942 14.722L28.6655 14.4067L28.7026 14.4253L28.7397 14.4438L28.7212 14.5922L28.7026 14.7405L28.7397 14.7776L28.7769 14.8147H29.4081V14.9445V15.0744L29.3895 15.1115L29.3709 15.1486L28.3684 15.13L28.3499 14.926L28.3313 14.722L28.2013 14.8333C28.1271 14.8889 27.9971 14.9816 27.9229 15.0187L27.7744 15.1115L27.3845 15.2042H27.0875H26.7904L26.6605 15.1486ZM2.37783 14.7034C2.3964 14.6293 2.52635 13.906 2.89764 11.5877C2.9719 11.124 3.04616 10.716 3.06473 10.6789L3.08329 10.6048L3.10185 10.6604C3.12042 10.6789 3.13899 11.6062 3.17611 12.7005L3.23181 14.7034L3.25037 14.7405L3.26894 14.7776H4.08578L4.12291 14.6664C4.19717 14.4809 5.05115 12.107 5.06971 11.9957C5.10684 11.8288 5.53383 10.6418 5.57096 10.6048L5.60809 10.5677V10.6418C5.60809 10.6789 5.45957 11.6062 5.29249 12.7005L4.97689 14.6849L5.03259 14.7591H6.20216L6.23929 14.6849C6.25786 14.6478 6.31355 14.3325 6.35068 13.9987C6.40637 13.6649 6.46207 13.2569 6.4992 13.1085C6.53633 12.9601 6.70341 11.9772 6.87049 10.92L7.18609 9.00979L7.14896 8.91706H5.27393L5.21823 8.99124C5.19967 9.02834 5.16254 9.12106 5.14397 9.21379C5.12541 9.28798 4.88407 10.0484 4.6056 10.8829L4.10435 12.4037L4.06722 12.3852L4.03009 12.3666V10.9757C4.03009 10.2153 4.01153 9.43635 4.01153 9.26944L3.99296 8.95415H3.10185H2.21075L2.17362 9.00979L2.13649 9.06543L2.11793 9.26944C2.09936 9.38071 1.89515 10.6418 1.65381 12.0884L1.20825 14.7034L1.24538 14.7962H2.35927L2.37783 14.7034ZM17.9165 11.8473L17.4524 11.8288V11.7732C17.4524 11.7546 17.4895 11.6248 17.5452 11.5135L17.638 11.291L17.8794 11.0684L18.0093 11.0313C18.0836 11.0128 18.1764 10.9942 18.2507 10.9942H18.362L18.492 11.0499L18.622 11.1055L18.7705 11.3466V11.5692V11.7917H18.5848C18.4734 11.8473 18.1764 11.8473 17.9165 11.8473ZM18.9932 14.7776L19.3645 14.722L19.4388 14.6849C19.4759 14.6664 19.5131 14.6478 19.5131 14.6293C19.5131 14.6107 19.5502 14.3696 19.6059 14.0729L19.6987 13.535L19.6244 13.498L19.0489 13.6834L18.7519 13.7205L18.4549 13.7576L18.2321 13.739C18.1207 13.7205 17.9536 13.702 17.8608 13.6649L17.6937 13.6092L17.5638 13.498L17.4338 13.3867L17.3596 13.2012L17.2853 13.0158V12.8303L17.3781 12.7561L19.7544 12.7747L19.7915 12.7376L19.8287 12.7005L19.8844 12.4037L19.94 12.107L19.9586 11.7917L19.9772 11.4764L19.9215 11.1982L19.8658 10.92L19.7544 10.6975L19.643 10.4749L19.4574 10.308L19.2717 10.1411L19.0861 10.0484L18.9004 9.95564L18.3992 9.86291L18.1578 9.88146L17.9165 9.9L17.7494 9.95564C17.6566 9.99273 17.4709 10.0669 17.3596 10.1226L17.1368 10.2338L16.9326 10.4378L16.7284 10.6418L16.5613 10.9386L16.3942 11.2353L16.3014 11.5321L16.2085 11.8288L16.0972 12.4965L16.1157 12.8488L16.1343 13.2012L16.2085 13.4609L16.2828 13.7205L16.3942 13.9245L16.5056 14.1285L16.6541 14.2769C16.914 14.5365 17.2853 14.722 17.6752 14.7962L17.8422 14.8147H18.6591L18.9932 14.7776ZM12.3285 14.8147L12.5327 14.7776L12.8112 14.6849L13.0897 14.5922L13.3681 14.3696L13.461 14.1842L13.5538 13.9987L13.6652 13.5536L13.628 12.8117L13.5538 12.6448L13.4795 12.4779L13.3124 12.311L13.1454 12.1441L12.3471 11.7361L12.2914 11.6619L12.2357 11.5877V11.3095L12.31 11.2353C12.3471 11.1982 12.4213 11.1426 12.4585 11.124L12.5327 11.087H12.904H13.2753L13.461 11.124L13.6466 11.1611L13.7394 11.0684L13.888 10.0855L13.8137 10.0113L13.5538 9.97419L13.2939 9.93709H12.8112H12.3285L12.1057 9.99273L11.883 10.0484L11.5302 10.2153L11.1589 10.5677L10.9362 11.1055V11.9215L11.0476 12.1441L11.1589 12.3666L11.5488 12.719L11.9387 12.923L12.3285 13.127L12.3842 13.1827L12.4399 13.2383V13.5536L12.3656 13.6278C12.3285 13.6649 12.2543 13.7205 12.2171 13.739L12.1243 13.7947H11.7344H11.3446L11.0476 13.739C10.8805 13.702 10.732 13.6649 10.6948 13.6463L10.6391 13.6278L10.602 13.6834L10.5649 13.739L10.5277 14.0358C10.5092 14.2027 10.4906 14.4253 10.472 14.518L10.4535 14.7034L10.5834 14.7405C10.6577 14.7591 10.8248 14.7962 10.9733 14.7962L11.2332 14.8333H12.1429L12.3285 14.8147ZM8.22572 13.8318L8.15146 13.8132L8.0772 13.739L8.00294 13.6649L7.92868 13.3867L7.96581 13.2012L8.00294 13.0158L8.09576 12.923L8.18859 12.8303L8.31854 12.7747L8.44849 12.719L8.7084 12.6819L8.9683 12.6448L9.22821 12.7005L9.20965 12.8488V12.9972L9.13539 13.1827L9.07969 13.3681L8.9683 13.5165L8.85691 13.6649L8.57844 13.7947L8.42993 13.8132C8.35567 13.8318 8.26285 13.8318 8.22572 13.8318ZM8.28141 14.8147L8.44849 14.7776L8.61558 14.7034L8.78266 14.6293L8.93118 14.4994C9.00543 14.4253 9.07969 14.3696 9.09826 14.3696C9.11682 14.3696 9.11682 14.4623 9.11682 14.5736L9.13539 14.7776H10.1379L10.1936 14.4253C10.2307 14.2213 10.305 13.6649 10.3978 13.1827C10.472 12.7005 10.5649 12.107 10.5834 11.8659L10.6206 11.4393L10.602 11.1426L10.5834 10.8459L10.472 10.6418L10.3607 10.4378L10.2307 10.3266L10.1008 10.2153L9.93367 10.1411C9.84084 10.104 9.67376 10.0298 9.56237 10.0113L9.35816 9.95564H8.91261H8.46706L8.13289 10.0298C7.94724 10.0669 7.72447 10.1226 7.63165 10.1596L7.46456 10.2153L7.446 10.3822C7.42743 10.4749 7.40887 10.6975 7.37174 10.8829L7.31605 11.2168L7.33461 11.2353L7.35317 11.2539L7.53882 11.2168C7.63165 11.1982 7.85442 11.1611 8.00294 11.124L8.28141 11.0684L8.68983 11.087L9.09826 11.1055L9.22821 11.1797L9.35816 11.2539L9.39529 11.3651L9.43242 11.4764L9.39529 11.6248L9.35816 11.7732L8.54132 11.7546L8.31854 11.7917C8.18859 11.8103 7.98437 11.8659 7.83586 11.903L7.59452 11.9772L7.40887 12.107C7.29748 12.1812 7.16753 12.2925 7.09327 12.3481L6.96331 12.4779L6.87049 12.6634C6.74054 12.923 6.70341 13.0528 6.66628 13.3125L6.62915 13.5536L6.66628 13.7761L6.70341 13.9987L6.77767 14.1656C6.8148 14.2583 6.88906 14.3882 6.94475 14.4624L7.03758 14.5736L7.18609 14.6664C7.26035 14.7034 7.3903 14.7776 7.446 14.7962L7.55738 14.8333H7.79873H8.04007L8.28141 14.8147ZM10.9362 23.179L10.472 23.1605L10.0636 23.1048C9.24677 22.9936 8.31854 22.771 7.53882 22.4743L7.14896 22.3259L6.57346 22.0477L5.99795 21.7695L5.57096 21.5099C4.03009 20.564 2.82338 19.34 1.85802 17.8192L1.59811 17.4112L1.37534 16.9661C0.707009 15.6308 0.298585 14.2583 0.168632 12.7932L0.1315 12.3666L0.150066 11.495L0.168632 10.6233L0.24289 10.1782C0.447101 8.76869 0.874089 7.5261 1.52385 6.30206L1.7095 5.94967L2.04367 5.44893L2.37783 4.94819L2.6563 4.59581L2.93477 4.24343L3.36176 3.81687L3.78875 3.39031L4.16004 3.07503C4.66129 2.64847 5.12541 2.31464 5.66378 1.99935L6.09077 1.73971L6.57346 1.49861L7.05614 1.25751L7.50169 1.09059C8.35567 0.775308 9.06113 0.589847 9.87797 0.47857L10.3235 0.404384L10.9362 0.367292L11.5488 0.3302L12.18 0.367292L12.8112 0.404384L13.2196 0.460023C15.3174 0.775307 17.3039 1.66552 18.9561 3.03794L19.216 3.24194V3.31613L19.0675 3.44595C18.9747 3.52013 18.7519 3.76123 18.5477 3.98379L18.1764 4.37326V4.44744H20.3856L20.4599 4.52163C20.5341 4.59581 20.9054 5.09655 21.1096 5.39329L21.2396 5.5973V5.69003H17.2296L17.1182 5.85694C17.0625 5.94967 16.914 6.19078 16.8026 6.39479L16.5984 6.76571V6.87698H19.2346H21.8708L21.9079 6.89553L21.945 6.91408L22.0936 7.2479C22.1678 7.43337 22.2792 7.67447 22.3163 7.78575L22.3906 7.98975L22.3535 8.08248H19.216H16.0786L15.9858 8.34213C15.9301 8.4905 15.8744 8.75014 15.8187 8.91706L15.7444 9.23234H14.5934L14.5377 9.26944L14.482 9.30653L14.4635 9.51053C14.4449 9.62181 14.3149 10.4564 14.1664 11.3651C14.0179 12.2739 13.8694 13.1827 13.8508 13.3867L13.7951 13.7576L13.8137 13.906C13.8323 13.9802 13.8508 14.1285 13.888 14.2027L13.9436 14.3696L14.055 14.4994L14.1664 14.6293L14.2964 14.7034L14.4263 14.7776H14.8719H15.3174L15.4845 14.7405L15.6516 14.7034L15.7259 14.6293L15.7816 14.314C15.8001 14.1471 15.8372 13.9245 15.8372 13.8318L15.8558 13.6463L15.5588 13.6834L15.2989 13.6649L15.2246 13.6278L15.1504 13.5907L15.1132 13.4794L15.0761 13.3681L15.1504 12.8674C15.1875 12.5892 15.2432 12.2368 15.2803 12.0884C15.3174 11.9401 15.336 11.699 15.3546 11.5506L15.3917 11.2724L15.4288 11.2168L15.466 11.1611L15.7259 11.1797L15.9858 11.1982L16.06 11.1426L16.1343 10.6048L16.2085 10.0669L16.19 10.0484L16.1714 10.0298H15.633L15.6145 9.99273L15.5959 9.95564L15.6516 9.69599C15.6887 9.54763 15.7073 9.39925 15.7259 9.38071L15.7444 9.32507H19.2346H22.7248L22.7804 9.60326C22.8176 9.75163 22.8361 9.9 22.8361 9.91855V9.95564L22.6319 9.97419L22.4277 9.99273L22.2978 10.0669L22.1678 10.1411L22.0193 10.2895C21.945 10.3822 21.8337 10.4749 21.7965 10.5306L21.7408 10.6048L21.7223 10.5862L21.7037 10.5677L21.7408 10.3451L21.778 10.1226L21.7594 10.0669L21.7408 10.0113H21.1653H20.5898L20.5712 10.1967C20.5527 10.2895 20.5341 10.5306 20.5156 10.7346C20.4784 11.0684 20.4227 11.4579 20.07 13.7576L19.94 14.6478L19.9586 14.7034L19.9772 14.7591H21.1468L21.1839 14.6849C21.2024 14.6478 21.2581 14.314 21.3138 13.9431C21.4809 12.8117 21.6851 11.9401 21.8151 11.6804L21.8708 11.5877L22.0936 11.3837L22.4277 11.3466L22.4463 11.2539C22.5391 10.8273 22.6319 10.5491 22.799 10.1782L22.8918 9.99273L22.9847 10.0113L23.0775 10.0298L23.2446 9.82582L23.4116 9.62181L23.5973 9.47344C23.7087 9.39925 23.8015 9.32507 23.8201 9.32507H23.8572L23.653 9.54763C23.4117 9.80727 23.2446 10.0484 23.0961 10.3451L22.9847 10.5677L22.8918 10.8829L22.799 11.1982L22.7433 11.5506L22.6876 11.903L22.7062 12.4037L22.7248 12.9045L22.7804 13.0899C22.8547 13.4052 22.9661 13.6278 23.1146 13.8503L23.2446 14.0543L23.3931 14.2027L23.5416 14.3511L23.95 14.5922L24.1728 14.6664L24.3956 14.7405H24.8411C25.0825 14.7405 25.3609 14.7405 25.4538 14.722L25.6209 14.7034V14.8147V14.926L25.5837 14.9445C25.5652 14.9631 25.4352 15.0002 25.3053 15.0373L25.0639 15.0929H24.0243L23.7829 15.0187L23.5416 14.9445L23.3188 14.7962L23.0775 14.6478L22.7619 14.2954L22.7433 14.3511C22.7248 14.3696 22.6691 14.6107 22.5948 14.8518L22.4649 15.2969L16.1714 15.3155L16.1157 15.3711L16.2828 15.7977C16.4684 16.2799 16.5613 16.4839 16.617 16.521L16.6541 16.5395H19.2903H21.9265V16.5766C21.9265 16.6693 21.3695 17.6708 21.2953 17.7265L21.2581 17.745H19.2903H17.3224L17.3039 17.7821L17.2853 17.8007L17.3781 17.9676C17.4338 18.0603 17.6195 18.3199 17.7865 18.5425L18.1021 18.9505H20.3299L20.367 19.0247L20.2371 19.1731C20.1628 19.2658 19.9772 19.4698 19.8101 19.6367L19.4945 19.952L19.1232 20.2673C18.6034 20.7124 18.1393 21.0648 17.6566 21.3615L17.2667 21.6212L16.7469 21.8808L16.2271 22.1404L15.8187 22.3074C15.2432 22.5299 14.7791 22.6783 14.185 22.8081L13.6837 22.9194L13.2382 22.975L12.7926 23.0492L12.2357 23.0863C11.9387 23.1048 11.6416 23.1234 11.5674 23.1234C11.456 23.1976 11.1961 23.1976 10.9362 23.179Z" fill="#CA0302"/>
<path d="M35.6458 10.4935L35.5344 10.3636L35.553 10.308C35.553 10.2895 35.5901 10.0669 35.6458 9.82581L35.72 9.3807L35.7572 9.34361L35.7943 9.30652H35.9799L35.9985 9.36216L36.0171 9.4178L35.9243 9.97418C35.8686 10.2895 35.8314 10.5491 35.8129 10.5677L35.7943 10.6047L35.6458 10.4935ZM25.9736 10.6047L25.7508 10.512L25.5094 10.4564L25.2681 10.4007L25.0639 10.4193L24.8597 10.4378L24.6926 10.4935C24.5998 10.5306 24.5255 10.5491 24.5255 10.5491C24.5255 10.5491 24.5812 10.4749 24.6555 10.4007L24.804 10.2709L25.1753 10.104H25.9179L26.3634 10.2524L26.3449 10.4007C26.3263 10.5862 26.2706 10.6975 26.252 10.6975C26.2149 10.6975 26.1035 10.6604 25.9736 10.6047ZM12.904 11.4393C12.7926 11.4208 12.5884 11.4208 12.4399 11.4208H12.18V11.3095L12.2542 11.2353C12.3471 11.1426 12.4399 11.1055 12.5698 11.0869L12.6998 11.0684L13.3496 11.1055L13.331 11.2724C13.3124 11.3651 13.3124 11.4393 13.2939 11.4579L13.2753 11.495H13.1825C13.1639 11.4764 13.034 11.4579 12.904 11.4393ZM15.3917 11.4022L15.4102 11.2724L15.4474 11.2353L15.4845 11.1982H15.8744L15.8558 11.3466C15.8372 11.4208 15.8187 11.5135 15.8187 11.5321L15.8001 11.5691H15.3731L15.3917 11.4022ZM28.6469 11.6619L28.5726 11.5506L28.4984 11.495L28.4241 11.4393L28.1828 11.4022L27.9414 11.3651L27.6444 11.3837L27.3474 11.4022L27.0318 11.4579C26.8647 11.495 26.6976 11.5321 26.6419 11.5321L26.5676 11.5506V11.4393C26.5676 11.3837 26.6048 11.1426 26.6419 10.92L26.7162 10.512L26.8461 10.4749L26.9761 10.4378L26.9946 10.4564L27.0132 10.4749L26.9761 10.716C26.9575 10.8458 26.9389 11.0128 26.9389 11.0684V11.1797L27.0503 11.1611C27.106 11.1426 27.2545 11.124 27.3845 11.0869L27.6073 11.0313L28.0714 11.0128L28.5355 10.9942L28.7211 11.0499L28.9068 11.1055L29.0182 11.2353L29.0367 11.3651L29.0553 11.495L29.0367 11.6062L29.0182 11.7175H28.7397L28.6469 11.6619ZM9.02398 11.6433L8.96829 11.5135L8.80121 11.4579L8.63412 11.4022L8.13288 11.4208L7.63163 11.4393L7.31603 11.5135L7.00043 11.5877L6.9633 11.5506L7.03756 11.1055C7.07469 10.8644 7.11182 10.6233 7.13038 10.6047L7.14895 10.5491L7.40885 10.4749L7.42742 10.4935L7.44598 10.512L7.33459 11.1982L7.35316 11.2168L7.37172 11.2353L7.55737 11.1982C7.65019 11.1797 7.87297 11.1426 8.02149 11.1055L8.29996 11.0499L8.70838 11.0684L9.11681 11.0869L9.24676 11.1611L9.37671 11.2353L9.41384 11.3466L9.45097 11.4579L9.41384 11.6062L9.37671 11.7546L9.22819 11.7732L9.07968 11.7917L9.02398 11.6433ZM18.4177 11.8102C18.3992 11.7732 18.3806 11.699 18.3435 11.6433L18.2878 11.5321L18.1393 11.4579L17.9907 11.3837L17.8051 11.4022L17.6194 11.4208V11.3466L17.7494 11.2353L17.8794 11.124L18.0093 11.0869C18.0836 11.0684 18.1764 11.0499 18.2506 11.0499H18.362L18.6219 11.1611L18.7705 11.4022V11.8659L18.6034 11.8844L18.4363 11.903L18.4177 11.8102ZM4.01151 12.4037L3.99295 12.3852V11.6619L4.38281 10.4935L4.77266 9.32507L5.05113 9.30652V9.34361C5.05113 9.38071 4.04864 12.3852 4.03007 12.4037C4.04864 12.4223 4.03008 12.4037 4.01151 12.4037ZM17.3038 13.1085C17.2853 13.0714 17.2853 13.0157 17.2853 12.9601V12.8674L17.3224 12.8303L17.3595 12.7932H19.4574V12.8859C19.4574 12.9416 19.4388 13.0157 19.4202 13.0714L19.3831 13.1456H17.3038V13.1085ZM34.9218 13.4979C35.0703 13.127 35.126 12.7932 35.126 12.4408V12.2368L35.0331 11.8473L34.8661 11.6433L34.7175 11.5691L34.569 11.495L34.3834 11.5135L34.1977 11.5321L34.2534 11.4579L34.3091 11.3837L34.4762 11.291L34.6433 11.1982H35.0146L35.2745 11.328L35.3487 11.4579L35.423 11.5877L35.4601 11.7546L35.4973 11.9215V12.107C35.4973 12.3481 35.4416 12.6634 35.3673 12.9045L35.2931 13.1085L35.0331 13.4608L34.9589 13.4979L34.8846 13.535L34.9218 13.4979ZM28.3684 13.6463C28.387 13.6092 28.4055 13.4979 28.4427 13.3867L28.4984 13.2012L28.4798 13.0157L28.0343 12.9972L27.83 13.0343C27.7187 13.0528 27.6258 13.0714 27.6073 13.0528C27.6073 13.0528 27.6258 12.9972 27.6815 12.9416L27.7558 12.8488L27.9043 12.7746L28.0528 12.7005L28.3127 12.6634L28.5726 12.6263L28.7026 12.6448L28.8325 12.6634L28.8511 12.719L28.8697 12.7746L28.8325 12.9601L28.7954 13.1456L28.7211 13.3125L28.6469 13.4794L28.5355 13.5907C28.4798 13.6649 28.4241 13.702 28.4055 13.702H28.3684V13.6463ZM8.72695 13.7205C8.72695 13.702 8.76408 13.6092 8.78264 13.4794L8.83834 13.2754V13.0343L8.78264 13.0157C8.70838 12.9786 8.42991 12.9972 8.18857 13.0343L7.98436 13.0714L7.9658 13.0528L7.94723 13.0343L8.13288 12.8303L8.26283 12.7746L8.39278 12.719L8.65269 12.6819L8.91259 12.6448L9.1725 12.7005L9.15394 12.8488V12.9972L9.09824 13.1641L9.04255 13.331L8.94972 13.4794L8.8569 13.6278L8.67125 13.7576L8.72695 13.7205ZM12.05 13.6649L12.0315 13.5536L11.9386 13.4794C11.8829 13.4423 11.6973 13.3125 11.4931 13.2197L11.1404 13.0528L10.7691 12.7005L10.6577 12.4779L10.5463 12.2553V12.0884C10.5463 11.9957 10.5649 11.7732 10.5834 11.5877L10.602 11.2539L10.6948 11.0684L10.7876 10.8829L10.9176 10.7717C10.9918 10.716 11.0475 10.6604 11.0661 10.6604C11.0661 10.6604 11.0475 10.7717 10.9918 10.8829L10.899 11.0869V11.903L11.0104 12.1255L11.1218 12.3481L11.5117 12.7005L11.9015 12.9045L12.2914 13.1085L12.3471 13.1641L12.4028 13.2197L12.4399 13.4608L12.3471 13.6278L12.2357 13.702C12.18 13.739 12.1243 13.7761 12.1057 13.7761H12.0872L12.05 13.6649ZM29.835 15.0744L29.8165 15.0373L29.835 15.0002C29.8722 14.8889 30.4291 11.2724 30.4848 10.716C30.5034 10.6047 30.5219 10.4935 30.5219 10.4564L30.5405 10.4007H30.8375V10.4749C30.8375 10.5862 30.7076 11.4764 30.4662 13.0528C30.3363 13.906 30.2249 14.6478 30.2249 14.6849V14.7591H30.6704H31.116V14.8518C31.116 14.9074 31.116 14.9816 31.0974 15.0187L31.0789 15.0929H29.8536L29.835 15.0744ZM28.387 15.0744C28.387 15.0558 28.387 14.9631 28.387 14.8889V14.7405L28.3498 14.7034L28.3127 14.6663L28.4984 14.518L28.684 14.3696L28.7211 14.3882L28.7583 14.4067L28.7397 14.5551L28.7211 14.7034L28.7954 14.7776H29.4452L29.4266 14.9074C29.408 14.9816 29.408 15.0558 29.408 15.0744V15.1115H28.4055L28.387 15.0744ZM19.6059 15.0929L19.5687 15.0558L19.7173 14.1656C20.0143 12.3295 20.1257 11.6062 20.1814 11.0869C20.2185 10.7902 20.2556 10.512 20.2556 10.4749L20.2742 10.4007H20.5712V10.4935C20.5712 10.6233 20.4413 11.5135 20.2185 12.9787C20.1071 13.6649 20.0143 14.314 19.9957 14.4438L19.9586 14.6849L19.9772 14.7405L19.9957 14.7962H20.8868L20.8683 14.926C20.8497 15.0002 20.8311 15.0744 20.8126 15.1115L20.7754 15.1485H19.6616L19.6059 15.0929ZM4.62415 15.1115L4.58702 15.0929L4.80979 13.6834C4.93975 12.9045 5.05113 12.1997 5.05113 12.107L5.0697 11.9215L5.29248 11.291C5.42243 10.9386 5.53382 10.6418 5.55238 10.6233L5.58951 10.5862V10.6604C5.58951 10.6975 5.441 11.6248 5.27391 12.719L4.95831 14.7034L5.01401 14.7776H5.88655L5.86798 14.9074C5.84942 14.9816 5.83085 15.0558 5.81229 15.0929L5.77516 15.13H5.21822H4.66128L4.62415 15.1115ZM2.8605 15.0744L2.82337 15.0187V14.4623C2.82337 14.1471 2.8048 13.5536 2.78624 13.127L2.76768 12.3481L2.89763 11.5691C2.97189 11.1426 3.04615 10.7531 3.04615 10.716L3.06471 10.6418L3.08328 10.6975C3.10184 10.716 3.1204 11.6433 3.15753 12.7375L3.21323 14.7405L3.23179 14.7776L3.25036 14.8147H3.8073L3.78874 14.9074C3.77017 14.9631 3.75161 15.0373 3.73304 15.0744L3.69591 15.1485H3.30605H2.91619L2.8605 15.0744ZM0.85551 15.0929L0.836945 15.0373L1.31963 12.1997L1.80231 9.36216L1.858 9.30652L1.98796 9.32507L2.11791 9.34361V9.39925C2.11791 9.43634 1.9137 10.6418 1.67236 12.0884L1.2268 14.7034L1.26393 14.7962H2.08078L2.06222 14.926L2.04365 15.0558L2.00652 15.0929L1.96939 15.13H0.911205L0.85551 15.0929ZM33.418 15.1671C33.3438 15.1485 33.1952 15.0929 33.1024 15.0558L32.9353 14.9631L32.7683 14.7962L32.6012 14.6293L32.397 14.2398L32.3227 13.9987L32.2484 13.7576L32.2113 13.0528L32.2484 12.7746C32.2856 12.515 32.3413 12.2924 32.4527 11.8844L32.4898 11.7546L32.4527 11.7175L32.2856 11.7732C32.1927 11.8102 32.0999 11.8288 32.0814 11.8473L32.0442 11.8659V11.8288C32.0442 11.7546 32.1927 11.5691 32.3041 11.5135L32.397 11.4579L32.694 11.4208L32.8611 11.1797L33.0282 10.9386L33.1767 10.8088C33.2509 10.7346 33.3438 10.6604 33.3809 10.6418L33.4551 10.6047L33.3809 10.6975C33.0653 11.1055 32.9353 11.3651 32.7868 11.7732L32.694 12.0513L32.6383 12.3666L32.5826 12.6819V13.2197L32.6569 13.6834L32.7311 13.906C32.8611 14.2954 33.0653 14.5551 33.3623 14.7405L33.5108 14.8333L33.9007 14.9445L34.1977 14.926L34.4948 14.9074L34.6804 14.8147L34.8661 14.722L34.996 14.6107C35.0703 14.5551 35.1445 14.4994 35.1631 14.4994H35.2002L35.1817 14.6663L35.1631 14.8333H35.5715L35.9799 14.8518V14.9074C35.9799 14.9445 35.9799 15.0187 35.9614 15.0744L35.9428 15.1856L35.3673 15.1671H34.7918L34.8104 15.0002L34.8289 14.8333H34.8104C34.7918 14.8333 34.699 14.8889 34.5876 14.9816L34.3834 15.13L34.1977 15.2042L34.0121 15.2784L33.7707 15.2969L33.5294 15.3155L33.418 15.1671ZM26.7904 15.1671L26.6419 15.13L26.3449 14.9631L26.252 14.8518C26.1963 14.7962 26.1221 14.6663 26.085 14.5922L25.9921 14.4252V14.314C25.9921 14.2212 26.0664 13.7576 26.1221 13.5165L26.1406 13.4238H25.9921L26.0107 13.331C26.0293 13.2754 26.0664 13.1641 26.1035 13.0714L26.1778 12.9045L26.3077 12.7561C26.382 12.6634 26.4562 12.6077 26.4748 12.6077H26.4934L26.4006 12.8674L26.3077 13.127V13.5536V13.9801L26.382 14.1656L26.4563 14.3511L26.7533 14.6849L26.9204 14.7776L27.0875 14.8704H27.8672L28.0528 14.7962L28.2385 14.722L28.2756 14.7591L28.1456 14.8704L28.0157 14.9816L27.8486 15.0558L27.6815 15.13L27.236 15.2227H26.9204L26.7904 15.1671ZM24.2099 15.1856C24.1728 15.1856 24.0428 15.1485 23.95 15.13L23.7644 15.0929L23.4859 14.9631L23.2074 14.8333L22.7247 14.3325L22.6134 14.0914L22.502 13.8503L22.4277 13.5721L22.3534 13.2939V12.6819C22.3534 12.3481 22.3534 11.9957 22.372 11.903L22.3906 11.7361L22.1307 11.7175L22.0007 11.7546C21.9265 11.7732 21.8522 11.8102 21.8151 11.8288L21.7594 11.8473L21.8336 11.7175L21.9079 11.5877L22.1307 11.3837L22.4648 11.3466L22.4834 11.2539C22.5391 10.9757 22.669 10.5862 22.7804 10.3266L22.9104 10.0298L23.1332 10.0113L23.4116 9.73308L23.6901 9.45489L23.9129 9.32507L23.7087 9.54762C23.4673 9.82581 23.3002 10.0484 23.1517 10.3636L23.0403 10.5862L22.9475 10.9015L22.8547 11.2168L22.799 11.5691L22.7433 11.9215L22.7804 12.923L22.8361 13.1085C22.9104 13.4238 23.0218 13.6463 23.1703 13.8689L23.3003 14.0729L23.4488 14.2212L23.5973 14.3696L24.0057 14.6107L24.2285 14.6849L24.4513 14.7591H24.8968H25.3424L25.4909 14.7405L25.6394 14.722V14.8147C25.6394 14.8704 25.6208 14.926 25.6208 14.9445L25.6023 14.9816L25.3052 15.0373L25.0082 15.0929L24.674 15.1115C24.4327 15.2042 24.247 15.2042 24.2099 15.1856ZM17.2667 15.1671C17.0068 15.1115 16.7655 15.0373 16.5613 14.9074L16.4127 14.8147L16.2457 14.6478L16.0786 14.4809L15.9486 14.2212L15.8187 13.9616V13.8503C15.8187 13.7947 15.8001 13.7205 15.7815 13.6834L15.7444 13.6278V13.0714V12.515L15.8372 12.1997L15.9301 11.8844L16.0971 11.5506L16.2642 11.2168L16.4313 11.0313C16.5241 10.9386 16.617 10.8458 16.617 10.8458H16.6355L16.5056 11.0684L16.3756 11.291L16.1714 11.8844L16.06 12.5521L16.0786 12.9045L16.0971 13.2568L16.1714 13.5165L16.2457 13.7761L16.357 13.9801L16.4684 14.1842L16.6355 14.3511L16.8026 14.518L16.9511 14.6107C17.0254 14.6663 17.211 14.7405 17.3595 14.7776L17.6194 14.8704L18.0836 14.8889L18.5477 14.9074L18.8076 14.8704C18.9561 14.8518 19.0861 14.8147 19.1232 14.8147L19.1603 14.7962V14.9816L19.1232 15.0373L19.0861 15.0929L18.8818 15.1485C18.7705 15.1856 18.5662 15.2227 18.4363 15.2413L18.2135 15.2784H17.8794H17.5452L17.2667 15.1671ZM14.0179 15.1485L13.8508 15.0929L13.7209 14.9631L13.5909 14.8333L13.5166 14.6663L13.4424 14.4994V14.2954V14.0914L13.5166 13.906L13.5909 13.7205V13.2754V12.8303L13.8508 11.2724L14.1107 9.71454L14.1478 9.69599C14.2035 9.6589 14.3149 9.6589 14.3706 9.69599L14.4078 9.71454L14.1107 11.495C13.9436 12.4779 13.7951 13.4052 13.7765 13.5536L13.7394 13.8318L13.7765 14.0172C13.7951 14.1285 13.8322 14.2583 13.8508 14.3325L13.9065 14.4623L14.0179 14.5736L14.1293 14.6849L14.2592 14.7591L14.3892 14.8333H15.3174V14.9631L15.2803 15.0187L15.2432 15.0744L14.8533 15.1856L14.5191 15.2042L14.185 15.2227L14.0179 15.1485ZM10.8248 15.1856C10.2864 15.1115 10.175 15.0929 10.1193 15.0744L10.0636 15.0373L10.0822 14.9074C10.1007 14.8333 10.1193 14.7776 10.1193 14.7591L10.1379 14.722L10.175 14.3882C10.1936 14.2027 10.2307 14.0358 10.2307 14.0172L10.2493 13.9801L10.4906 14.0172L10.472 14.1842C10.4535 14.2769 10.4349 14.4252 10.4349 14.518L10.4163 14.6849L10.5463 14.722C10.6205 14.7405 10.8433 14.7776 11.0475 14.7962L11.4188 14.8333L12.3656 14.7962L12.6627 14.7034C12.8297 14.6478 12.9597 14.6107 12.9597 14.6107C12.9597 14.6107 12.904 14.6849 12.8483 14.7405L12.7184 14.8704L12.5327 14.9631L12.3471 15.0558L12.1429 15.1115L11.9386 15.1671L11.4188 15.1856C11.1589 15.2042 10.8805 15.1856 10.8248 15.1856ZM7.11182 15.1485L6.94474 15.0929L6.68483 14.926L6.48062 14.6293L6.42492 14.4438L6.36923 14.2583L6.35066 14.0729L6.3321 13.8874L6.3878 13.5721L6.44349 13.2568L6.51775 13.0899C6.61057 12.9045 6.79622 12.6634 6.88904 12.6077L6.9633 12.5706L6.94474 12.6077C6.92617 12.6263 6.88904 12.7376 6.85191 12.8488L6.77765 13.0528L6.72196 13.5536L6.75909 13.7761L6.79622 13.9987L6.87048 14.1842C6.90761 14.2769 7.00043 14.4067 7.05612 14.4809L7.14895 14.6107L7.55737 14.8333L7.81728 14.8518L8.07718 14.8704L8.2814 14.8333L8.48561 14.7962L8.83834 14.6293L8.98686 14.4994C9.06111 14.4252 9.13537 14.3696 9.15394 14.3696C9.1725 14.3696 9.1725 14.4623 9.1725 14.5736L9.19107 14.7776H9.5438L9.89653 14.7962L9.8594 15.0929L9.82227 15.1115L9.78514 15.13H9.32102H8.8569L8.83834 14.926C8.83834 14.8147 8.81977 14.722 8.81977 14.722C8.80121 14.722 8.74551 14.7776 8.67125 14.8333C8.59699 14.8889 8.46704 14.9816 8.37422 15.0373L8.20714 15.13L7.76158 15.2227H7.33459L7.11182 15.1485Z" fill="#12065F"/>
</svg>
