<svg width="41" height="26" viewBox="0 0 41 26" fill="none" xmlns="http://www.w3.org/2000/svg">
<path d="M40.2145 0H0.114746V25.4453H40.2145V0Z" fill="white"/>
<path d="M39.5462 21.3094H0.783081V24.7776H39.5462V21.3094Z" fill="#F7B600"/>
<path d="M39.5462 0.667603H0.783081V4.13573H39.5462V0.667603Z" fill="#1A1F71"/>
<path d="M16.3032 7.95622L12.2932 17.5075H9.67558L7.70772 9.88502C7.59634 9.42137 7.48494 9.2359 7.11365 9.05044C6.51958 8.73516 5.53565 8.41988 4.68167 8.23441L4.73737 7.95622H8.95156C9.48993 7.95622 9.97262 8.3086 10.084 8.92062L11.1236 14.4474L13.6856 7.95622H16.3032ZM26.5323 14.3917C26.5509 11.8695 23.0422 11.7396 23.0793 10.6083C23.0793 10.2745 23.4135 9.90356 24.1189 9.81083C24.4717 9.77374 25.4556 9.73665 26.5509 10.2374L26.9779 8.21587C26.3838 7.99331 25.6227 7.78931 24.6573 7.78931C22.2068 7.78931 20.4988 9.08754 20.4803 10.9421C20.4617 12.3146 21.7055 13.075 22.6338 13.5386C23.5991 14.0023 23.9147 14.299 23.9147 14.7256C23.9147 15.3747 23.1536 15.6529 22.4295 15.6529C21.1857 15.6714 20.4617 15.319 19.8862 15.0408L19.4406 17.1366C20.0161 17.3962 21.0929 17.6373 22.1882 17.6373C24.8244 17.6558 26.5323 16.3762 26.5323 14.3917ZM32.9929 17.5075H35.2763L33.2713 7.95622H31.155C30.6723 7.95622 30.2824 8.23441 30.0968 8.66098L26.3838 17.5075H28.9829L29.5027 16.0794H32.6773L32.9929 17.5075ZM30.2267 14.1135L31.5263 10.5341L32.2688 14.1135H30.2267ZM19.8305 7.95622L17.7884 17.5075H15.3193L17.3614 7.95622H19.8305Z" fill="#1A1F71"/>
</svg>
