<svg width="278" height="37" viewBox="0 0 278 37" fill="none" xmlns="http://www.w3.org/2000/svg">
<path d="M16.6508 11.324L11.9103 23.324L9.9876 13.124C9.91141 12.6231 9.65798 12.1661 9.27326 11.8358C8.88855 11.5056 8.39803 11.324 7.89069 11.324H0.115904L0.0137634 11.834C1.56758 12.1459 3.07699 12.6476 4.508 13.328C4.80499 13.4725 5.05992 13.6907 5.24822 13.9617C5.43652 14.2328 5.552 14.5476 5.58349 14.876L9.22454 28.928H14.0312L21.4215 11.324H16.6508Z" fill="white" fill-opacity="0.75"/>
<path d="M23.3742 11.324L19.6069 28.916H24.1673L27.9285 11.324H23.3742Z" fill="white" fill-opacity="0.75"/>
<path d="M33.9068 16.196C33.9068 15.566 34.5076 14.9 35.8415 14.72C37.3828 14.5781 38.9343 14.8494 40.3357 15.506L41.1348 11.78C39.7725 11.2695 38.3299 11.0053 36.8749 11C32.3686 11 29.2022 13.4 29.1722 16.82C29.1722 19.346 31.4374 20.762 33.1617 21.62C34.8861 22.478 35.5651 23.03 35.523 23.804C35.523 25.004 34.105 25.502 32.8012 25.526C31.1698 25.5613 29.5565 25.1791 28.1147 24.416L27.2916 28.274C28.9085 28.899 30.6288 29.2144 32.3626 29.204C37.1693 29.204 40.2756 26.84 40.2936 23.204C40.2936 18.554 33.8647 18.302 33.9068 16.226" fill="white" fill-opacity="0.75"/>
<path d="M47.1071 22.688L49.5104 16.088L50.8743 22.688H47.1071ZM48.8375 11.324C48.4211 11.3195 48.0125 11.44 47.6653 11.6701C47.3186 11.9001 47.0482 12.229 46.8908 12.614L40.0833 28.928H44.89L45.8393 26.3H51.6734L52.2202 28.928H56.426L52.7008 11.324H48.8375Z" fill="white" fill-opacity="0.75"/>
<path fill-rule="evenodd" clip-rule="evenodd" d="M74.3308 35.5896H108.578V18.5001H74.3308V35.5896ZM82.3093 27.9709C82.534 28.1034 82.8855 28.2185 83.2484 28.2185C83.6972 28.2185 83.9514 28.0055 83.9514 27.6891C83.9514 27.3956 83.7549 27.223 83.2652 27.0448C82.6199 26.8203 82.2108 26.4751 82.2108 25.9228C82.2108 25.284 82.7413 24.8066 83.5885 24.8066C84.0085 24.8066 84.3137 24.8986 84.5156 24.9964L84.3485 25.5718C84.2049 25.497 83.9339 25.3876 83.571 25.3876C83.1216 25.3876 82.9312 25.6236 82.9312 25.8537C82.9312 26.153 83.1559 26.291 83.6744 26.4865C84.3485 26.7454 84.6712 27.085 84.6712 27.6372C84.6712 28.2644 84.1989 28.7995 83.2021 28.7995C82.787 28.7995 82.361 28.6845 82.1477 28.558L82.3093 27.9709ZM85.9624 27.0217H87.426V26.4463H85.9624V25.4452H87.5125V24.8641H85.254V28.742H87.599V28.161H85.9624V27.0217ZM90.9469 28.627C90.7798 28.7074 90.4109 28.7995 89.9387 28.7995C88.7058 28.7995 87.9565 28.0285 87.9565 26.8491C87.9565 25.5718 88.8494 24.8066 90.0366 24.8066C90.5029 24.8066 90.8315 24.8986 90.9757 24.9735L90.8261 25.5372C90.6416 25.4568 90.3821 25.3876 90.0655 25.3876C89.276 25.3876 88.7058 25.8825 88.7058 26.8146C88.7058 27.6661 89.2008 28.2069 90.0594 28.2069C90.3418 28.2069 90.6417 28.1494 90.8315 28.0687L90.9469 28.627ZM92.1978 27.1253V24.8641H91.4888V27.085C91.4888 28.3048 92.071 28.8052 92.9699 28.8052C93.903 28.8052 94.5194 28.276 94.5194 27.0792V24.8641H93.811V27.1253C93.811 27.8848 93.5052 28.2356 92.9927 28.2356C92.5144 28.2356 92.1978 27.8848 92.1978 27.1253ZM95.9777 26.6304H96.3982C96.8765 26.6304 97.1709 26.3774 97.1709 25.9918C97.1709 25.5718 96.8765 25.3704 96.4157 25.3704C96.191 25.3704 96.0467 25.3876 95.9777 25.4051V26.6304ZM95.2753 24.9216C95.5457 24.8698 95.9374 24.8355 96.3466 24.8355C96.9053 24.8355 97.2803 24.9273 97.5452 25.1462C97.7579 25.3245 97.8793 25.5948 97.8793 25.9287C97.8793 26.429 97.5392 26.7684 97.1709 26.8952V26.9123C97.4527 27.0159 97.6197 27.2863 97.7123 27.6602C97.7411 27.7701 97.7687 27.8782 97.7952 27.9813C97.8847 28.3322 97.9598 28.6264 98.0175 28.742H97.2917C97.234 28.627 97.1361 28.3105 97.0321 27.8272C96.9168 27.3208 96.7383 27.1599 96.3352 27.1483H95.9777V28.742H95.2753V24.9216ZM99.2047 27.0217H100.668V26.4463H99.2047V25.4452H100.755V24.8641H98.4963V28.742H100.841V28.161H99.2047V27.0217Z" fill="white" fill-opacity="0.75"/>
<path fill-rule="evenodd" clip-rule="evenodd" d="M90.7132 6.18166L89.0681 13.8614H87.0781L88.7232 6.18166H90.7132ZM99.0834 11.1407L100.13 8.25658L100.733 11.1407H99.0834ZM101.303 13.8614H103.143L101.536 6.18166H99.8392C99.4565 6.18166 99.1344 6.40306 98.9914 6.74458L96.0065 13.8614H98.0956L98.5108 12.7143H101.063L101.303 13.8614ZM96.1098 11.3541C96.1189 9.32752 93.3046 9.21508 93.3232 8.30962C93.3292 8.03428 93.5918 7.74118 94.1667 7.66624C94.4515 7.62958 95.2374 7.60006 96.1291 8.00992L96.4776 6.3808C95.9987 6.20788 95.3828 6.04138 94.6162 6.04138C92.6496 6.04138 91.2659 7.08466 91.2551 8.5798C91.2425 9.68542 92.2435 10.302 92.9957 10.6701C93.772 11.0465 94.0316 11.288 94.028 11.6241C94.0225 12.1394 93.4091 12.3675 92.8383 12.3762C91.8373 12.3917 91.2575 12.106 90.7949 11.8908L90.4338 13.5744C90.8994 13.7871 91.7574 13.9723 92.6454 13.9818C94.7363 13.9818 96.1038 12.9508 96.1098 11.3541ZM87.87 6.18166L84.6466 13.8614H82.5436L80.9574 7.73236C80.8613 7.3555 80.7772 7.21696 80.4846 7.05772C80.0063 6.79828 79.2162 6.55558 78.5223 6.40462L78.5691 6.18166H81.9542C82.3856 6.18166 82.7738 6.46816 82.8723 6.96424L83.7104 11.4086L85.7797 6.18166H87.87Z" fill="white" fill-opacity="0.75"/>
<path d="M189.473 32.3596H188.888V25.6329H189.473V32.3596ZM193.736 25.6329C194.248 25.6255 194.758 25.705 195.244 25.8682C195.667 26.0106 196.055 26.2397 196.385 26.541C196.7 26.8365 196.947 27.1982 197.108 27.6004C197.446 28.4999 197.446 29.4924 197.108 30.392C196.947 30.7941 196.7 31.1559 196.385 31.4515C196.055 31.7527 195.667 31.9818 195.244 32.1242C194.758 32.2874 194.248 32.3669 193.736 32.3596H191.288V25.6329H193.736ZM191.872 26.1901V31.8022H193.736C194.175 31.81 194.612 31.7426 195.029 31.6028C195.38 31.4836 195.702 31.2912 195.973 31.0383C196.23 30.7915 196.429 30.4891 196.552 30.1541C196.814 29.4044 196.814 28.5879 196.552 27.8382C196.428 27.5027 196.23 27.1996 195.973 26.9518C195.702 26.6977 195.38 26.5051 195.029 26.3872C194.612 26.2491 194.175 26.1825 193.736 26.1901H191.872ZM204.154 25.5559C204.435 25.5552 204.714 25.5874 204.987 25.652C205.249 25.7137 205.502 25.8064 205.741 25.9283C205.972 26.0452 206.186 26.1914 206.379 26.3631C206.568 26.5312 206.731 26.7254 206.865 26.9397L206.377 27.2664C206.262 27.0903 206.124 26.9304 205.967 26.7908C205.808 26.6495 205.633 26.5285 205.445 26.4304C205.251 26.3295 205.045 26.2528 204.832 26.2022C204.61 26.1489 204.382 26.1223 204.154 26.1229C203.773 26.1196 203.395 26.1897 203.04 26.3295C202.705 26.4619 202.4 26.6614 202.144 26.9157C201.887 27.1752 201.683 27.484 201.546 27.8238C201.255 28.5782 201.255 29.4142 201.546 30.1686C201.683 30.5084 201.887 30.8172 202.144 31.0767C202.4 31.331 202.705 31.5305 203.04 31.6629C203.395 31.8028 203.773 31.8729 204.154 31.8695C204.381 31.8701 204.608 31.8443 204.829 31.7926C205.042 31.7432 205.246 31.6673 205.44 31.5668C205.629 31.4687 205.803 31.3477 205.962 31.2064C206.12 31.0658 206.258 30.9042 206.372 30.7259L206.851 31.0767C206.711 31.2869 206.544 31.4775 206.355 31.6436C206.163 31.8118 205.95 31.9555 205.723 32.0713C205.486 32.1916 205.236 32.2828 204.978 32.3427C204.249 32.5091 203.488 32.453 202.791 32.1818C202.385 32.0206 202.014 31.7797 201.701 31.4731C201.39 31.1637 201.145 30.7943 200.98 30.3871C200.633 29.4935 200.633 28.5013 200.98 27.6076C201.145 27.1996 201.39 26.8293 201.701 26.5193C202.014 26.2126 202.385 25.9717 202.791 25.8106C203.225 25.6383 203.687 25.5518 204.154 25.5559ZM208.662 28.6213C208.747 28.4788 208.853 28.3493 208.975 28.237C209.092 28.1301 209.223 28.0403 209.365 27.9703C209.506 27.9016 209.654 27.85 209.806 27.8166C209.957 27.7832 210.111 27.7663 210.266 27.7661C210.528 27.7631 210.79 27.8062 211.037 27.8934C211.26 27.9721 211.464 28.0956 211.638 28.2562C211.808 28.4166 211.941 28.6126 212.026 28.8304C212.12 29.0715 212.167 29.3284 212.163 29.5871V32.3596H211.617V29.7554C211.619 29.5464 211.588 29.3385 211.521 29.1403C211.463 28.9665 211.366 28.8081 211.239 28.6766C211.11 28.5475 210.954 28.4483 210.783 28.386C210.587 28.3157 210.379 28.2815 210.17 28.285C209.968 28.2835 209.767 28.3201 209.578 28.3932C209.4 28.4621 209.237 28.5667 209.1 28.7007C208.962 28.8361 208.853 28.9979 208.779 29.1763C208.699 29.3688 208.659 29.5756 208.662 29.7841V32.3596H208.115V25.4406H208.662V28.6213ZM215.411 27.7662C215.698 27.7636 215.983 27.8217 216.246 27.9367C216.499 28.0471 216.725 28.2091 216.912 28.4123C217.105 28.6253 217.255 28.8732 217.355 29.1427C217.466 29.44 217.523 29.755 217.523 30.0725C217.523 30.1141 217.522 30.1534 217.521 30.1901C217.519 30.227 217.517 30.2631 217.514 30.2983H213.734C213.748 30.541 213.807 30.779 213.909 30.9998C214.001 31.1969 214.13 31.3741 214.29 31.5211C214.446 31.6637 214.63 31.774 214.829 31.8454C215.037 31.9201 215.256 31.9574 215.477 31.9559C215.769 31.961 216.059 31.9019 216.325 31.783C216.576 31.6666 216.805 31.5073 217.001 31.3121L217.293 31.6869C217.16 31.8222 217.013 31.943 216.854 32.0473C216.712 32.1405 216.559 32.2178 216.4 32.2778C216.247 32.3349 216.089 32.3752 215.928 32.398C215.768 32.4204 215.606 32.4317 215.444 32.4316C215.133 32.4349 214.823 32.377 214.534 32.261C214.264 32.1528 214.02 31.9901 213.815 31.783C213.611 31.5725 213.451 31.3223 213.346 31.0478C213.231 30.7457 213.174 30.4246 213.179 30.1012C213.175 29.7802 213.233 29.4613 213.349 29.1619C213.454 28.8866 213.614 28.6351 213.818 28.422C214.019 28.2143 214.26 28.05 214.527 27.9391C214.807 27.8224 215.107 27.7636 215.411 27.7662ZM215.401 28.2514C215.185 28.2487 214.971 28.2888 214.771 28.3692C214.585 28.4451 214.415 28.556 214.27 28.6959C214.124 28.8389 214.005 29.0074 213.918 29.1931C213.825 29.3933 213.766 29.6077 213.743 29.8274H216.967C216.951 29.6062 216.898 29.3892 216.809 29.1859C216.728 29.0005 216.614 28.8318 216.471 28.6887C216.331 28.5484 216.164 28.4376 215.98 28.3625C215.796 28.2875 215.599 28.2497 215.401 28.2514ZM220.665 27.7662C220.985 27.763 221.301 27.8243 221.597 27.9463C221.876 28.0622 222.126 28.2405 222.327 28.4677L221.972 28.8376C221.802 28.6653 221.602 28.5259 221.381 28.4268C221.15 28.3267 220.902 28.2768 220.651 28.2802C220.414 28.2783 220.181 28.3249 219.963 28.4172C219.755 28.5054 219.567 28.6344 219.41 28.7968C219.251 28.9627 219.126 29.1586 219.043 29.3733C218.868 29.8426 218.868 30.3599 219.043 30.8292C219.124 31.0419 219.248 31.2359 219.406 31.3994C219.564 31.5629 219.754 31.6926 219.963 31.7806C220.181 31.8728 220.414 31.9195 220.651 31.9176C220.905 31.9204 221.158 31.8679 221.391 31.7638C221.612 31.664 221.814 31.5257 221.987 31.3553L222.327 31.7302C222.124 31.9564 221.874 32.1344 221.594 32.2514C220.997 32.4908 220.331 32.4917 219.733 32.2539C219.46 32.1422 219.211 31.9758 219.004 31.7647C218.796 31.5537 218.634 31.3024 218.526 31.0262C218.3 30.4298 218.3 29.7704 218.526 29.1739C218.633 28.8972 218.795 28.6453 219.003 28.4338C219.21 28.2222 219.459 28.0555 219.733 27.9439C220.029 27.8228 220.346 27.7624 220.665 27.7662ZM223.97 29.7457H224.703L226.599 27.8382H227.289L225.144 29.9716L227.328 32.3596H226.633L224.703 30.2407H223.97V32.3596H223.424V25.4406H223.97V29.7457Z" fill="white" fill-opacity="0.75"/>
<path d="M196.426 6.20804C196.353 6.26498 196.282 6.32372 196.212 6.38432C195.022 7.41854 194.269 8.94056 194.269 10.64C194.269 12.3388 195.022 13.8609 196.212 14.8951C196.282 14.9557 196.353 15.0144 196.426 15.072C196.498 15.0144 196.57 14.9557 196.64 14.8951C197.829 13.8609 198.583 12.3388 198.583 10.64C198.583 8.94056 197.829 7.41854 196.64 6.38432C196.57 6.32372 196.498 6.26498 196.426 6.20804ZM199.916 5C198.76 5 197.685 5.34698 196.79 5.94242C196.835 5.9798 196.882 6.01652 196.926 6.05504C198.257 7.21106 199.02 8.88242 199.02 10.64C199.02 12.397 198.257 14.0683 196.927 15.2244C196.882 15.2623 196.835 15.2996 196.79 15.3369C197.685 15.9324 198.76 16.28 199.916 16.28C203.035 16.28 205.564 13.7544 205.564 10.64C205.564 7.52504 203.035 5 199.916 5ZM195.925 15.2244C195.97 15.2623 196.016 15.2996 196.062 15.3369C195.167 15.9324 194.092 16.28 192.935 16.28C189.816 16.28 187.287 13.7544 187.287 10.64C187.287 7.52504 189.816 5 192.935 5C194.092 5 195.167 5.34698 196.062 5.94242C196.016 5.9798 195.97 6.01652 195.925 6.05504C194.595 7.21106 193.832 8.88242 193.832 10.64C193.832 12.3976 194.595 14.0683 195.925 15.2244Z" fill="white" fill-opacity="0.75"/>
<path d="M148.477 7.89158C148.303 8.02784 148.133 8.16848 147.965 8.3135C145.117 10.789 143.314 14.4321 143.314 18.5C143.314 22.5664 145.117 26.2095 147.965 28.6851C148.133 28.8301 148.303 28.9707 148.477 29.1084C148.65 28.9707 148.822 28.8301 148.989 28.6851C151.837 26.2095 153.641 22.5664 153.641 18.5C153.641 14.4321 151.837 10.789 148.989 8.3135C148.822 8.16848 148.65 8.02784 148.477 7.89158ZM156.831 5C154.065 5 151.49 5.83058 149.348 7.25588C149.457 7.34522 149.569 7.43312 149.674 7.5254C152.86 10.2925 154.687 14.293 154.687 18.5C154.687 22.7056 152.86 26.7061 149.676 29.4732C149.569 29.5639 149.457 29.6533 149.348 29.7427C151.49 31.168 154.065 32 156.831 32C164.298 32 170.35 25.9546 170.35 18.5C170.35 11.0439 164.298 5 156.831 5ZM147.279 29.4732C147.384 29.5639 147.496 29.6533 147.606 29.7427C145.463 31.168 142.89 32 140.122 32C132.656 32 126.603 25.9546 126.603 18.5C126.603 11.0439 132.656 5 140.122 5C142.89 5 145.463 5.83058 147.606 7.25588C147.496 7.34522 147.384 7.43312 147.279 7.5254C144.094 10.2925 142.268 14.293 142.268 18.5C142.268 22.707 144.094 26.7061 147.279 29.4732Z" fill="white" fill-opacity="0.75"/>
<path d="M255.098 31.322L255.031 32.48C255.031 32.87 254.983 33.212 254.953 33.5C254.911 33.98 254.863 35.132 254.244 35.132C254.21 35.132 254.178 35.145 254.153 35.1685C254.128 35.192 254.114 35.2241 254.112 35.258V35.996C254.112 36.0138 254.114 36.0317 254.121 36.0483C254.127 36.0651 254.136 36.0803 254.149 36.0932C254.161 36.1061 254.176 36.1164 254.192 36.1234C254.209 36.1304 254.226 36.134 254.244 36.134H254.298C254.541 36.1628 254.786 36.1216 255.006 36.0152C255.225 35.9088 255.409 35.7419 255.536 35.534C255.655 35.347 255.747 35.1453 255.813 34.934C255.889 34.7012 255.945 34.4624 255.981 34.22C256.023 33.95 256.053 33.662 256.077 33.344C256.101 33.026 256.131 32.678 256.155 32.306V31.778H257.639V35.978C257.64 35.9954 257.644 36.0123 257.652 36.0281C257.659 36.0438 257.669 36.0579 257.682 36.0696C257.695 36.0813 257.71 36.0904 257.726 36.0963C257.742 36.1022 257.76 36.1048 257.777 36.104H258.654C258.673 36.1049 258.691 36.1019 258.709 36.0953C258.725 36.0886 258.741 36.0785 258.754 36.0655C258.767 36.0525 258.777 36.0369 258.784 36.0198C258.79 36.0027 258.793 35.9843 258.793 35.966V31.166C258.791 31.115 258.779 31.0649 258.758 31.0185C258.737 30.9721 258.707 30.9303 258.67 30.8957C258.632 30.8611 258.588 30.8343 258.54 30.8168C258.492 30.7994 258.441 30.7916 258.39 30.794H255.482C255.388 30.7968 255.298 30.8346 255.23 30.9001C255.162 30.9656 255.122 31.054 255.116 31.148C255.118 31.1979 255.118 31.248 255.116 31.298L255.098 31.322ZM246.007 36.098H247.972C248.201 36.1127 248.431 36.0806 248.648 36.0036C248.865 35.9267 249.063 35.8065 249.232 35.6505C249.4 35.4945 249.535 35.3058 249.629 35.096C249.722 34.8861 249.771 34.6596 249.774 34.43C249.786 34.3283 249.786 34.2257 249.774 34.124C249.704 33.7293 249.497 33.3719 249.189 33.1142C248.882 32.8565 248.493 32.7148 248.092 32.714H246.77V31.802H249.059C249.078 31.8041 249.098 31.8017 249.116 31.7951C249.134 31.7885 249.151 31.7778 249.164 31.7639C249.177 31.75 249.187 31.7332 249.193 31.7148C249.199 31.6965 249.2 31.677 249.197 31.658V30.98C249.197 30.89 249.197 30.812 249.059 30.818H246.013C245.961 30.8138 245.91 30.8204 245.861 30.8372C245.812 30.854 245.768 30.8808 245.73 30.9158C245.692 30.9507 245.662 30.9932 245.642 31.0403C245.621 31.0875 245.61 31.1385 245.61 31.19V35.762C245.61 35.8113 245.62 35.8602 245.639 35.9058C245.658 35.9513 245.686 35.9925 245.722 36.0272C245.757 36.0618 245.798 36.0891 245.845 36.1074C245.89 36.1257 245.94 36.1348 245.989 36.134L246.007 36.098ZM270.263 35.942V34.142H271.524C271.967 34.142 272.393 33.9675 272.707 33.6563C273.023 33.3452 273.202 32.9225 273.207 32.48C273.201 32.1221 273.081 31.7754 272.865 31.4897C272.649 31.204 272.348 30.994 272.005 30.89C271.809 30.8373 271.607 30.813 271.404 30.818H269.481C269.432 30.8156 269.384 30.8231 269.337 30.84C269.291 30.8569 269.248 30.8829 269.213 30.9165C269.177 30.9501 269.148 30.9906 269.128 31.0355C269.108 31.0804 269.098 31.1289 269.097 31.178C269.094 31.2119 269.094 31.2461 269.097 31.28V36.008C269.097 36.0251 269.101 36.0419 269.107 36.0576C269.114 36.0734 269.123 36.0875 269.136 36.0993C269.149 36.111 269.163 36.1202 269.179 36.1262C269.195 36.1322 269.212 36.1348 269.229 36.134H270.124C270.147 36.1335 270.168 36.1271 270.187 36.1155C270.206 36.104 270.222 36.0875 270.233 36.068C270.246 36.0401 270.251 36.0085 270.245 35.978L270.263 35.942ZM272.005 32.504C272.006 32.5982 271.988 32.6916 271.951 32.7785C271.914 32.8653 271.86 32.9438 271.792 33.009C271.724 33.0743 271.643 33.1248 271.555 33.1577C271.467 33.1905 271.372 33.2049 271.278 33.2H270.245V31.808H271.23C271.328 31.797 271.427 31.8068 271.521 31.8368C271.614 31.8668 271.701 31.9163 271.774 31.9821C271.848 32.0478 271.906 32.1284 271.946 32.2183C271.985 32.3083 272.006 32.4056 272.005 32.504ZM267.246 35L267.541 35.99C267.541 36.08 267.613 36.11 267.673 36.11H268.634C268.655 36.1112 268.676 36.1073 268.695 36.0985C268.714 36.0897 268.73 36.0764 268.742 36.0598C268.755 36.0432 268.763 36.0237 268.766 36.0032C268.769 35.9826 268.768 35.9616 268.76 35.942L267.198 31.232C267.12 30.998 267.012 30.818 266.742 30.818H266.063C265.996 30.8102 265.928 30.8205 265.867 30.848C265.806 30.8755 265.753 30.919 265.714 30.974C265.659 31.052 265.618 31.1394 265.594 31.232L264.02 35.96C264.013 35.9795 264.012 36.0002 264.015 36.0204C264.017 36.0408 264.025 36.0602 264.036 36.077C264.048 36.0939 264.064 36.1079 264.082 36.1178C264.099 36.1277 264.12 36.1332 264.14 36.134H265.065C265.093 36.1385 265.121 36.1331 265.145 36.1188C265.17 36.1046 265.188 36.0824 265.198 36.056C265.201 36.0341 265.201 36.0119 265.198 35.99L265.492 35.024L267.246 35ZM265.78 34.064L266.069 33.098L266.357 32.018H266.399L266.682 33.098L266.97 34.064H265.78ZM262.578 33.278V33.242C262.741 33.1466 262.881 33.0153 262.986 32.858C263.101 32.6867 263.183 32.4953 263.227 32.294L263.575 30.944C263.579 30.9255 263.578 30.9066 263.574 30.8884C263.569 30.8702 263.56 30.8533 263.548 30.839C263.536 30.8246 263.521 30.813 263.504 30.8053C263.486 30.7975 263.468 30.7937 263.449 30.794H262.62C262.591 30.7851 262.559 30.7851 262.53 30.794C262.5 30.794 262.482 30.836 262.47 30.884L262.127 32.162C262.096 32.2947 262.041 32.4207 261.965 32.534C261.904 32.6175 261.827 32.6871 261.737 32.738C261.659 32.7794 261.576 32.8097 261.49 32.828H261.25H260.649V30.944C260.65 30.9272 260.647 30.9105 260.641 30.8948C260.635 30.8791 260.626 30.8649 260.614 30.853C260.602 30.8411 260.588 30.8319 260.572 30.8258C260.557 30.8198 260.54 30.8171 260.523 30.818H259.634C259.6 30.8163 259.567 30.8279 259.541 30.8502C259.515 30.8726 259.499 30.9041 259.496 30.938V36.014C259.496 36.0311 259.5 36.0479 259.508 36.0633C259.515 36.0787 259.526 36.0924 259.539 36.1037C259.552 36.1149 259.567 36.1233 259.583 36.1286C259.6 36.1338 259.617 36.1356 259.634 36.134H260.517C260.534 36.1348 260.55 36.1323 260.566 36.1268C260.581 36.1211 260.596 36.1125 260.608 36.1014C260.62 36.0902 260.631 36.0768 260.637 36.0618C260.644 36.0468 260.649 36.0305 260.649 36.014V33.758H261.25C261.4 33.7561 261.549 33.7722 261.695 33.806C261.812 33.8414 261.918 33.9077 262.001 33.998C262.092 34.116 262.159 34.2505 262.199 34.394L262.668 36.044C262.676 36.0699 262.691 36.0926 262.713 36.1088C262.735 36.125 262.761 36.1338 262.788 36.134H263.671C263.691 36.1353 263.71 36.1321 263.728 36.1247C263.746 36.1174 263.762 36.106 263.775 36.0915C263.787 36.077 263.796 36.0598 263.802 36.0411C263.807 36.0225 263.807 36.0029 263.804 35.984L263.329 34.22C263.303 34.1162 263.271 34.014 263.233 33.914C263.201 33.8241 263.157 33.7393 263.101 33.662C263.043 33.5824 262.971 33.5133 262.89 33.458C262.792 33.3954 262.687 33.3432 262.578 33.302V33.278ZM253.836 35.96V35.264C253.836 35.247 253.834 35.2299 253.828 35.2139C253.822 35.198 253.813 35.1833 253.801 35.171C253.79 35.1587 253.775 35.1488 253.76 35.1421C253.744 35.1354 253.726 35.132 253.71 35.132H251.649C251.597 35.1321 251.545 35.1215 251.497 35.1006C251.449 35.0798 251.405 35.0492 251.37 35.0109C251.335 34.9725 251.307 34.9272 251.29 34.8779C251.273 34.8285 251.266 34.7761 251.27 34.724V33.716H253.463C253.48 33.7168 253.498 33.7142 253.513 33.7082C253.529 33.7022 253.544 33.693 253.556 33.6813C253.569 33.6695 253.579 33.6554 253.585 33.6396C253.592 33.6239 253.595 33.6071 253.595 33.59V32.876C253.595 32.8578 253.592 32.8398 253.585 32.8232C253.577 32.8067 253.566 32.7918 253.552 32.7799C253.538 32.7679 253.523 32.759 253.505 32.7539C253.488 32.7487 253.469 32.7474 253.451 32.75H251.27V32.186C251.27 32.0858 251.31 31.9896 251.381 31.9187C251.452 31.8478 251.548 31.808 251.649 31.808H253.704C253.72 31.8088 253.738 31.8062 253.753 31.8002C253.77 31.7942 253.784 31.785 253.797 31.7733C253.809 31.7615 253.819 31.7474 253.826 31.7316C253.832 31.7159 253.836 31.6991 253.836 31.682V30.944C253.836 30.9258 253.832 30.9078 253.825 30.8912C253.817 30.8747 253.806 30.8598 253.793 30.8479C253.779 30.8359 253.763 30.827 253.746 30.8219C253.728 30.8167 253.71 30.8154 253.692 30.818L251.577 30.8C251.199 30.8 250.836 30.9486 250.568 31.2136C250.299 31.4787 250.145 31.8388 250.141 32.216V34.73C250.145 35.1003 250.295 35.4541 250.558 35.7155C250.821 35.9768 251.176 36.1249 251.547 36.128H253.734C253.75 36.1289 253.767 36.1262 253.783 36.1202C253.799 36.1142 253.813 36.1049 253.825 36.093C253.836 36.0811 253.846 36.0669 253.852 36.0512C253.858 36.0356 253.86 36.0188 253.86 36.002C253.86 36.002 253.836 35.978 253.836 35.96ZM275.91 31.808V36.008C275.91 36.0251 275.906 36.0419 275.898 36.0573C275.891 36.0727 275.88 36.0864 275.867 36.0977C275.854 36.1089 275.839 36.1173 275.823 36.1226C275.806 36.1278 275.789 36.1296 275.772 36.128H274.895C274.878 36.1296 274.861 36.1278 274.845 36.1226C274.828 36.1173 274.813 36.1089 274.8 36.0977C274.787 36.0864 274.777 36.0727 274.769 36.0573C274.762 36.0419 274.757 36.0251 274.757 36.008V31.808H273.375C273.358 31.8072 273.342 31.8032 273.327 31.7961C273.312 31.7891 273.299 31.7792 273.287 31.7669C273.276 31.7546 273.267 31.7403 273.262 31.7247C273.257 31.7091 273.254 31.6925 273.255 31.676V30.95C273.254 30.9335 273.257 30.9169 273.262 30.9013C273.267 30.8857 273.276 30.8714 273.287 30.8591C273.299 30.8468 273.312 30.8369 273.327 30.8298C273.342 30.8228 273.358 30.8187 273.375 30.818H277.316C277.333 30.8187 277.349 30.8228 277.364 30.8298C277.379 30.8369 277.393 30.8468 277.404 30.8591C277.415 30.8714 277.424 30.8857 277.429 30.9013C277.435 30.9169 277.437 30.9335 277.437 30.95V31.676C277.437 31.6925 277.435 31.7091 277.429 31.7247C277.424 31.7403 277.415 31.7546 277.404 31.7669C277.393 31.7792 277.379 31.7891 277.364 31.7961C277.349 31.8032 277.333 31.8072 277.316 31.808H275.91ZM248.609 34.4C248.611 34.4968 248.594 34.5931 248.557 34.6828C248.521 34.7726 248.466 34.8538 248.396 34.9214C248.327 34.989 248.244 35.0416 248.154 35.0757C248.063 35.1099 247.966 35.125 247.87 35.12H246.77V33.716H247.876C247.969 33.7128 248.062 33.728 248.149 33.7606C248.236 33.7932 248.316 33.8427 248.384 33.9063C248.452 33.9698 248.507 34.0461 248.545 34.1308C248.584 34.2155 248.606 34.307 248.609 34.4Z" fill="white" fill-opacity="0.75"/>
<path fill-rule="evenodd" clip-rule="evenodd" d="M275.748 16.784L271.422 12.464L269.692 10.736L272.84 12.464C272.92 12.464 272.996 12.4324 273.053 12.3761C273.109 12.3198 273.141 12.2435 273.141 12.164V6.48199C273.141 6.40243 273.109 6.32611 273.053 6.26983C272.996 6.21355 272.92 6.18199 272.84 6.18199H264.278L267.763 5.19799C267.818 5.14087 267.85 5.06449 267.85 4.98499C267.85 4.90543 267.818 4.82905 267.763 4.77199L263.738 0.751989C263.68 0.696609 263.604 0.665649 263.524 0.665649C263.444 0.665649 263.368 0.696609 263.311 0.751989L259.033 5.02999L257.231 6.87799L259.033 3.63199C259.031 3.55291 258.999 3.47749 258.943 3.42151C258.888 3.36559 258.812 3.33349 258.733 3.33199H253.037C252.957 3.33349 252.882 3.36559 252.826 3.42151C252.77 3.47749 252.738 3.55291 252.736 3.63199V9.69799V12.164L251.727 8.68999C251.671 8.63497 251.595 8.60419 251.517 8.60419C251.438 8.60419 251.362 8.63497 251.306 8.68999L247.281 12.71C247.252 12.7378 247.23 12.771 247.215 12.8076C247.2 12.8441 247.192 12.8834 247.192 12.923C247.192 12.9626 247.2 13.0018 247.215 13.0383C247.23 13.0749 247.252 13.1081 247.281 13.136L253.337 19.184L250.195 17.45C250.115 17.45 250.039 17.4816 249.982 17.5378C249.926 17.5941 249.894 17.6704 249.894 17.75V23.438C249.894 23.5175 249.926 23.5938 249.982 23.6501C250.039 23.7064 250.115 23.738 250.195 23.738H258.787L255.308 24.716C255.253 24.7731 255.221 24.8494 255.221 24.929C255.221 25.0085 255.253 25.0849 255.308 25.142L259.333 29.162C259.391 29.2173 259.467 29.2483 259.547 29.2483C259.627 29.2483 259.703 29.2173 259.76 29.162L264.02 24.908L265.786 23.108L264.02 26.264C264.02 26.3435 264.052 26.4198 264.108 26.4761C264.164 26.5324 264.24 26.564 264.32 26.564H270.016C270.055 26.564 270.094 26.5562 270.13 26.541C270.166 26.5259 270.199 26.5037 270.227 26.4757C270.254 26.4478 270.276 26.4147 270.29 26.3783C270.305 26.3419 270.311 26.303 270.311 26.264V17.744L271.326 21.23C271.383 21.2853 271.459 21.3163 271.539 21.3163C271.619 21.3163 271.696 21.2853 271.753 21.23L275.778 17.21C275.834 17.1529 275.865 17.0765 275.865 16.997C275.865 16.9174 275.834 16.841 275.778 16.784H275.748ZM264.32 17.444C264.24 17.444 264.164 17.4755 264.108 17.5318C264.052 17.5881 264.02 17.6644 264.02 17.744V20.414L265.822 22.688L261.797 18.668C261.74 18.6126 261.663 18.5816 261.584 18.5816C261.504 18.5816 261.427 18.6126 261.37 18.668L259.388 20.6L259.033 23.45V17.75C259.031 17.6709 258.999 17.5955 258.943 17.5395C258.888 17.4836 258.812 17.4515 258.733 17.45H255.855L253.734 19.184L257.759 15.164C257.787 15.1361 257.81 15.1029 257.825 15.0663C257.84 15.0298 257.848 14.9906 257.848 14.951C257.848 14.9114 257.84 14.8722 257.825 14.8356C257.81 14.799 257.787 14.7658 257.759 14.738L255.782 12.728L253.049 12.464H258.745C258.825 12.464 258.901 12.4324 258.957 12.3761C259.013 12.3198 259.045 12.2435 259.045 12.164V9.45199L257.243 7.22599L261.268 11.246C261.325 11.3013 261.401 11.3323 261.481 11.3323C261.561 11.3323 261.638 11.3013 261.695 11.246L263.671 9.26599L263.966 6.48199V12.164C263.966 12.2435 263.998 12.3198 264.054 12.3761C264.11 12.4324 264.186 12.464 264.266 12.464H267.102L269.253 10.736L265.228 14.756C265.172 14.813 265.141 14.8894 265.141 14.969C265.141 15.0485 265.172 15.1249 265.228 15.182L267.198 17.15L269.968 17.444H264.32Z" fill="white" fill-opacity="0.75"/>
</svg>
