<svg width="299" height="32" viewBox="0 0 299 32" fill="none" xmlns="http://www.w3.org/2000/svg">
<path d="M231.955 21.3898C232.003 20.6638 232.045 19.4818 232.045 18.3898V5.83179H234.743V12.1858H234.791C235.163 11.6281 235.674 11.1771 236.275 10.8772C236.87 10.5772 237.543 10.4389 238.21 10.4758C240.823 10.4758 242.686 12.6478 242.662 15.8758C242.662 19.7098 240.228 21.6178 237.813 21.6178C237.14 21.6544 236.467 21.5041 235.866 21.1833C235.272 20.8626 234.779 20.3838 234.436 19.7998H234.394L234.262 21.4018L231.955 21.3898ZM234.743 16.9858C234.743 17.1994 234.767 17.4126 234.809 17.6218C234.947 18.1564 235.254 18.6309 235.692 18.9708C236.125 19.3107 236.66 19.4967 237.212 19.4998C238.901 19.4998 239.934 18.1438 239.934 15.9958C239.934 14.1118 239.033 12.5818 237.236 12.5818C236.672 12.5949 236.131 12.7958 235.698 13.1524C235.26 13.5091 234.959 14.001 234.833 14.5498C234.779 14.7799 234.749 15.0152 234.743 15.2518V16.9858Z" fill="white" fill-opacity="0.75"/>
<path d="M247.565 16.7998C247.631 18.7318 249.145 19.5598 250.857 19.5598C251.867 19.5866 252.87 19.4237 253.819 19.0798L254.21 20.9458C253.02 21.3971 251.758 21.619 250.485 21.5998C247.018 21.5998 244.975 19.4758 244.975 16.1998C244.975 13.2418 246.778 10.4578 250.196 10.4578C253.615 10.4578 254.805 13.3078 254.805 15.6478C254.811 16.0297 254.781 16.4114 254.715 16.7878L247.565 16.7998ZM252.257 14.9158C252.257 13.9318 251.843 12.3118 250.046 12.3118C248.376 12.3118 247.643 13.8238 247.565 14.9158H252.257Z" fill="white" fill-opacity="0.75"/>
<path d="M257.857 6.81579C259.221 6.59325 260.603 6.49083 261.985 6.50979C263.961 6.50979 265.409 6.92979 266.353 7.70979C266.821 8.11425 267.194 8.61639 267.44 9.18051C267.692 9.74463 267.813 10.3569 267.801 10.9738C267.831 11.5904 267.735 12.2065 267.512 12.7838C267.296 13.361 266.96 13.8867 266.527 14.3278C265.451 15.4018 263.763 15.9058 261.852 15.9058C261.414 15.9143 260.969 15.8842 260.537 15.8158V21.3838H257.857V6.81579ZM260.537 13.6978C260.969 13.7879 261.414 13.8242 261.852 13.8058C263.871 13.8058 265.103 12.8218 265.103 11.0878C265.103 9.44979 263.961 8.56779 262.099 8.56779C261.576 8.55681 261.053 8.60109 260.543 8.69979L260.537 13.6978Z" fill="white" fill-opacity="0.75"/>
<path d="M276.338 21.39L276.164 20.19H276.11C275.726 20.6516 275.245 21.02 274.692 21.2675C274.145 21.5148 273.551 21.6347 272.95 21.618C272.517 21.6426 272.085 21.5785 271.676 21.4296C271.273 21.2807 270.901 21.0501 270.583 20.7522C270.27 20.4542 270.024 20.0952 269.849 19.6972C269.681 19.2992 269.597 18.8706 269.597 18.438C269.597 15.744 272 14.388 275.936 14.406V14.232C275.936 13.53 275.654 12.372 273.761 12.372C272.745 12.386 271.748 12.6719 270.877 13.2L270.354 11.4C271.538 10.7543 272.866 10.4294 274.212 10.458C277.636 10.458 278.622 12.63 278.622 14.952V18.804C278.61 19.6628 278.658 20.5214 278.778 21.372L276.338 21.39ZM275.99 16.2C274.079 16.158 272.259 16.578 272.259 18.198C272.241 18.4041 272.265 18.6117 272.337 18.8062C272.409 19.0007 272.523 19.1771 272.667 19.3232C272.818 19.4692 272.992 19.5812 273.19 19.6511C273.382 19.7211 273.593 19.7474 273.797 19.728C274.26 19.7379 274.71 19.6014 275.089 19.3383C275.467 19.0752 275.75 18.699 275.9 18.264C275.96 18.0699 275.99 17.8675 275.99 17.664V16.2Z" fill="white" fill-opacity="0.75"/>
<path d="M285.123 7.73985C285.129 8.04051 285.05 8.3369 284.888 8.591C284.726 8.8451 284.492 9.04544 284.215 9.16634C283.939 9.28724 283.639 9.32324 283.338 9.26972C283.044 9.2162 282.767 9.07562 282.551 8.86592C282.335 8.65622 282.191 8.387 282.125 8.09258C282.064 7.79822 282.094 7.4921 282.209 7.21334C282.317 6.93458 282.515 6.69597 282.761 6.52785C283.014 6.35979 283.308 6.26996 283.609 6.26984C283.807 6.25808 284.005 6.28773 284.191 6.35685C284.378 6.42603 284.546 6.53312 284.69 6.67148C284.834 6.80978 284.942 6.97622 285.02 7.16012C285.093 7.34408 285.129 7.54155 285.123 7.73985ZM282.251 21.3898V10.7158H284.966V21.3898H282.251Z" fill="white" fill-opacity="0.75"/>
<path d="M298.485 5.83179V18.3838C298.485 19.4818 298.533 20.6638 298.575 21.3838H296.172L296.064 19.6918H296.022C295.673 20.302 295.163 20.8048 294.55 21.1455C293.931 21.4861 293.234 21.6516 292.531 21.6238C289.989 21.6238 287.971 19.4518 287.971 16.1638C287.971 12.5638 290.188 10.4698 292.777 10.4698C293.354 10.4277 293.937 10.5346 294.466 10.7804C294.988 11.0262 295.445 11.4027 295.781 11.8738H295.824V5.83179H298.485ZM295.787 15.1618C295.787 14.9281 295.769 14.6949 295.721 14.4658C295.619 13.9267 295.331 13.441 294.904 13.0925C294.478 12.7441 293.943 12.5549 293.396 12.5578C291.666 12.5578 290.698 14.0938 290.698 16.0858C290.698 18.0778 291.666 19.4578 293.378 19.4578C293.925 19.4519 294.454 19.2603 294.874 18.9145C295.301 18.5688 295.589 18.0895 295.703 17.5558C295.769 17.2966 295.793 17.0303 295.787 16.7638V15.1618Z" fill="white" fill-opacity="0.75"/>
<path d="M127.906 1.215C129.762 1.215 131.566 1.5825 133.264 2.3025C134.91 3 136.383 3.9975 137.66 5.265C138.93 6.5325 139.93 8.01 140.628 9.6525C141.349 11.3475 141.718 13.1475 141.718 15C141.718 16.8525 141.349 18.6525 140.628 20.3475C139.93 21.99 138.93 23.46 137.66 24.735C136.39 26.0025 134.91 27 133.264 27.6975C131.566 28.4175 129.762 28.785 127.906 28.785H101.456C99.6004 28.785 97.7967 28.4175 96.0987 27.6975C94.453 27 92.9804 26.0025 91.7024 24.735C90.4329 23.4675 89.4337 21.99 88.7343 20.3475C88.0133 18.6525 87.645 16.8525 87.645 15C87.645 13.1475 88.0133 11.3475 88.7343 9.6525C89.4337 8.01 90.4329 6.54 91.7024 5.265C92.9726 3.9975 94.453 3 96.0987 2.3025C97.7967 1.5825 99.6004 1.215 101.456 1.215H127.906ZM127.906 0H101.456C93.1907 0 86.4277 6.75 86.4277 15C86.4277 23.25 93.1907 30 101.456 30H127.906C136.172 30 142.935 23.25 142.935 15C142.935 6.75 136.172 0 127.906 0Z" fill="white" fill-opacity="0.75"/>
<path d="M113.374 16.065V20.6025H111.931V9.39746H115.756C116.725 9.39746 117.552 9.71996 118.228 10.365C118.92 11.01 119.265 11.7975 119.265 12.7275C119.265 13.68 118.92 14.4675 118.228 15.105C117.559 15.7425 116.733 16.0575 115.756 16.0575H113.374V16.065ZM113.374 10.7775V14.685H115.786C116.357 14.685 116.838 14.49 117.214 14.1075C117.597 13.725 117.792 13.26 117.792 12.735C117.792 12.2175 117.597 11.76 117.214 11.3775C116.838 10.98 116.365 10.785 115.786 10.785H113.374V10.7775Z" fill="white" fill-opacity="0.75"/>
<path d="M123.037 12.6826C124.104 12.6826 124.946 12.9676 125.562 13.5376C126.178 14.1076 126.486 14.8876 126.486 15.8776V20.6026H125.111V19.5376H125.051C124.457 20.4151 123.661 20.8501 122.669 20.8501C121.82 20.8501 121.114 20.6026 120.542 20.1001C119.972 19.5976 119.686 18.9751 119.686 18.2251C119.686 17.4301 119.987 16.8001 120.587 16.3351C121.189 15.8626 121.993 15.6301 122.992 15.6301C123.849 15.6301 124.555 15.7876 125.103 16.1026V15.7726C125.103 15.2701 124.908 14.8501 124.51 14.4976C124.112 14.1451 123.646 13.9726 123.112 13.9726C122.308 13.9726 121.67 14.3101 121.204 14.9926L119.934 14.1976C120.633 13.1851 121.67 12.6826 123.037 12.6826ZM121.174 18.2476C121.174 18.6226 121.331 18.9376 121.655 19.1851C121.97 19.4326 122.346 19.5601 122.774 19.5601C123.383 19.5601 123.924 19.3351 124.397 18.8851C124.871 18.4351 125.111 17.9101 125.111 17.3026C124.66 16.9501 124.037 16.7701 123.232 16.7701C122.646 16.7701 122.158 16.9126 121.767 17.1901C121.369 17.4826 121.174 17.8351 121.174 18.2476Z" fill="white" fill-opacity="0.75"/>
<path d="M134.331 12.9299L129.522 23.97H128.034L129.822 20.1075L126.652 12.9299H128.222L130.507 18.435H130.537L132.76 12.9299H134.331Z" fill="white" fill-opacity="0.75"/>
<path d="M107.635 15.1498C107.635 14.6803 107.593 14.2311 107.515 13.7991H101.468V16.2741L104.95 16.2748C104.809 17.0983 104.355 17.8003 103.658 18.2683V19.8741H105.731C106.941 18.7558 107.635 17.1028 107.635 15.1498Z" fill="white" fill-opacity="0.75"/>
<path d="M103.658 18.2685C103.082 18.657 102.338 18.8842 101.469 18.8842C99.7896 18.8842 98.3651 17.7547 97.8544 16.2322H95.716V17.8882C96.7758 19.9867 98.9533 21.4267 101.469 21.4267C103.208 21.4267 104.668 20.856 105.732 19.8735L103.658 18.2685Z" fill="white" fill-opacity="0.75"/>
<path d="M97.6531 15.0037C97.6531 14.5762 97.7246 14.1629 97.8544 13.7744V12.1184H95.716C95.278 12.9862 95.0317 13.9657 95.0317 15.0037C95.0317 16.0417 95.2786 17.0212 95.716 17.8889L97.8544 16.2329C97.7246 15.8444 97.6531 15.4312 97.6531 15.0037Z" fill="white" fill-opacity="0.75"/>
<path d="M101.469 11.1223C102.418 11.1223 103.268 11.4486 103.939 12.0861L105.776 10.2539C104.661 9.21661 103.205 8.57983 101.469 8.57983C98.9539 8.57983 96.7758 10.0198 95.716 12.1183L97.8544 13.7744C98.3651 12.2519 99.7896 11.1223 101.469 11.1223Z" fill="white" fill-opacity="0.75"/>
<path d="M178.663 17.8162H175.162V28.0236H177.065V25.1011H178.648C180.777 25.1011 182.344 23.4785 182.344 21.4502C182.347 19.4367 180.777 17.8162 178.663 17.8162ZM178.522 23.3383H177.068V19.5769H178.524C179.658 19.5769 180.428 20.4158 180.428 21.4502C180.428 22.4994 179.658 23.3383 178.522 23.3383Z" fill="white" fill-opacity="0.75"/>
<path d="M189.546 20.8215C188.956 20.1227 187.991 19.6746 186.913 19.6746C184.839 19.6746 182.853 21.2271 182.853 23.9393C182.853 26.6112 184.912 28.1913 186.885 28.1913C187.963 28.1913 188.944 27.7156 189.546 26.9616V28.0236H191.437V19.8423H189.546V20.8215ZM187.194 26.4583C185.794 26.4583 184.716 25.339 184.716 23.9138C184.716 22.5015 185.794 21.397 187.194 21.397C188.593 21.397 189.644 22.5291 189.644 23.9138C189.644 25.3241 188.593 26.4583 187.194 26.4583Z" fill="white" fill-opacity="0.75"/>
<path d="M196.492 25.3519L194.21 19.8425H192.194L195.554 27.6181L193.832 31.8H195.749L200.637 19.8425H198.649L196.492 25.3519Z" fill="white" fill-opacity="0.75"/>
<path d="M208.31 9.59896H208.256L206.062 2.10376H202.512V11.5551H204.864L204.733 3.80074H204.784L207.144 11.5551H210.551V2.10376H208.184L208.31 9.59896Z" fill="white" fill-opacity="0.75"/>
<path d="M165.288 2.98942L165.341 2.98732L166.617 11.6528H169.184L167.423 2.10376H163.17L161.396 11.6528H163.98L165.288 2.98942Z" fill="white" fill-opacity="0.75"/>
<path d="M177.617 2.10376L176.437 9.4057H176.384L175.206 2.10376H171.305L171.094 11.6528H173.487L173.549 3.06802H173.6L175.197 11.6528H177.623L179.221 3.07012L179.274 3.06802L179.333 11.6528H181.727L181.516 2.10376H177.617Z" fill="white" fill-opacity="0.75"/>
<path d="M156.406 12.0266C158.135 12.0266 159.558 11.4383 159.786 9.84323C159.903 9.01919 159.815 8.47967 159.775 8.27795C159.371 6.27935 155.743 5.68253 155.473 4.56323C155.428 4.36997 155.438 4.16819 155.462 4.06199C155.53 3.75617 155.736 3.42059 156.336 3.42059C156.895 3.42059 157.225 3.76463 157.225 4.28501V4.87757H159.612V4.20431C159.612 2.12501 157.74 1.80005 156.387 1.80005C154.688 1.80005 153.297 2.36291 153.044 3.91967C152.974 4.34657 152.965 4.72679 153.065 5.20679C153.48 7.15865 156.878 7.72361 157.37 8.95757C157.463 9.18905 157.434 9.48431 157.389 9.66485C157.31 9.98339 157.095 10.3083 156.457 10.3083C155.859 10.3083 155.496 9.96215 155.496 9.44183L155.494 8.51579H152.931V9.25277C152.931 11.3831 154.609 12.0266 156.406 12.0266Z" fill="white" fill-opacity="0.75"/>
<path d="M186.582 4.58861C186.535 4.39745 186.548 4.19993 186.569 4.09373C186.637 3.79001 186.843 3.45869 187.435 3.45869C187.992 3.45869 188.315 3.79853 188.315 4.31459V4.89869H190.678V4.23389C190.678 2.17373 188.826 1.85303 187.486 1.85303C185.804 1.85303 184.427 2.40947 184.177 3.95141C184.106 4.37405 184.098 4.75001 184.198 5.22575C184.606 7.15853 187.973 7.71707 188.46 8.94047C188.551 9.16985 188.524 9.46079 188.479 9.63923C188.402 9.95357 188.188 10.2743 187.556 10.2743C186.963 10.2743 186.603 9.93233 186.603 9.41621L186.601 8.50079H184.061V9.22931C184.061 11.3383 185.725 11.9755 187.503 11.9755C189.215 11.9755 190.625 11.3936 190.848 9.81335C190.963 8.99777 190.878 8.46257 190.838 8.26295C190.44 6.28559 186.848 5.69513 186.582 4.58861Z" fill="white" fill-opacity="0.75"/>
<path d="M199.847 2.10156H197.427V9.1656C197.427 9.28878 197.425 9.42684 197.404 9.53094C197.357 9.76668 197.152 10.2233 196.487 10.2233C195.821 10.2233 195.615 9.76668 195.57 9.53094C195.549 9.429 195.545 9.28878 195.546 9.1656V2.10156H193.129V8.949C193.124 9.12528 193.141 9.4842 193.15 9.57768C193.318 11.3596 194.728 11.9373 196.487 11.9373C198.243 11.9373 199.655 11.3596 199.821 9.57768C199.83 9.4842 199.849 9.12528 199.845 8.949V2.10156H199.847Z" fill="white" fill-opacity="0.75"/>
<path d="M216.451 6.28997V7.68323H217.431V9.07013C217.437 9.19121 217.431 9.32501 217.406 9.43331C217.364 9.68819 217.124 10.1257 216.433 10.1257C215.742 10.1257 215.496 9.68819 215.454 9.43331C215.436 9.32501 215.43 9.19121 215.43 9.07013V4.70339C215.43 4.54835 215.442 4.37633 215.472 4.25105C215.526 4.01525 215.73 3.55865 216.421 3.55865C217.154 3.55865 217.334 4.04075 217.376 4.25105C217.406 4.38905 217.406 4.61633 217.406 4.61423V5.14943H219.822V4.83083C219.816 4.83083 219.828 4.50587 219.798 4.20215C219.624 2.41175 218.14 1.84253 216.445 1.84253C214.745 1.84253 213.297 2.41601 213.086 4.20215C213.068 4.36145 213.044 4.66091 213.044 4.83083V8.84711C213.044 9.02765 213.05 9.15725 213.08 9.47579C213.243 11.2152 214.745 11.8355 216.445 11.8355C218.14 11.8355 219.648 11.2152 219.804 9.47579C219.834 9.15935 219.84 9.02765 219.84 8.84711V6.28997H216.451Z" fill="white" fill-opacity="0.75"/>
<path fill-rule="evenodd" clip-rule="evenodd" d="M13.8913 7.63379H1.74243C1.28099 7.63535 0.838757 7.81919 0.511904 8.14517C0.185651 8.47115 0.0018025 8.91281 0 9.37379V21.4998C0.0018025 21.9608 0.185651 22.4024 0.511904 22.7284C0.838757 23.0544 1.28099 23.2382 1.74243 23.2398H13.8913C14.3527 23.2382 14.7949 23.0544 15.1218 22.7284C15.448 22.4024 15.6319 21.9608 15.6337 21.4998V9.37379C15.6319 8.91281 15.448 8.47115 15.1218 8.14517C14.7949 7.81919 14.3527 7.63535 13.8913 7.63379ZM12.4673 16.1718L11.1455 17.4858C11.1268 17.5031 11.1022 17.5127 11.0764 17.5127C11.0505 17.5127 11.0259 17.5031 11.0073 17.4858L10.6828 17.1618V19.1418C10.6828 19.1672 10.6726 19.1916 10.6546 19.2096C10.6366 19.2276 10.6119 19.2378 10.5867 19.2378H8.72411C8.69828 19.2378 8.67304 19.2279 8.65381 19.2101C8.63519 19.1922 8.62375 19.1678 8.62194 19.1418V18.6798L7.22203 20.0778C7.21362 20.0879 7.2028 20.096 7.19078 20.1015C7.17937 20.1071 7.16616 20.11 7.15294 20.11C7.13972 20.11 7.12647 20.1071 7.11506 20.1015C7.10304 20.096 7.09222 20.0879 7.08381 20.0778L5.76799 18.7638C5.75777 18.7553 5.74997 18.7448 5.74397 18.7329C5.73856 18.721 5.73557 18.7079 5.73557 18.6948C5.73557 18.6817 5.73856 18.6686 5.74397 18.6567C5.74997 18.6448 5.75777 18.6342 5.76799 18.6258L6.09246 18.3018H4.10972C4.08388 18.3002 4.05924 18.2888 4.04121 18.2699C4.02319 18.2509 4.01356 18.2258 4.01356 18.1998V16.3398C4.01356 16.3143 4.02378 16.2899 4.0418 16.2719C4.05983 16.2539 4.08448 16.2438 4.10972 16.2438H4.57233L3.1664 14.8458C3.14898 14.8269 3.13934 14.8023 3.13934 14.7768C3.13934 14.7512 3.14898 14.7266 3.1664 14.7078L4.4702 13.3998C4.48883 13.3825 4.51346 13.3729 4.53929 13.3729C4.56513 13.3729 4.58976 13.3825 4.60838 13.3998L4.93887 13.7298V11.7498C4.93887 11.7237 4.94846 11.6987 4.96648 11.6797C4.98451 11.6607 5.00915 11.6493 5.03499 11.6478H6.89756C6.92339 11.6493 6.94803 11.6607 6.96606 11.6797C6.98408 11.6987 6.99371 11.7237 6.99371 11.7498V12.1998L8.39964 10.8018C8.41827 10.7845 8.44293 10.7749 8.46877 10.7749C8.4946 10.7749 8.51923 10.7845 8.53786 10.8018L9.8777 12.1098C9.88792 12.1182 9.89571 12.1288 9.90172 12.1407C9.90713 12.1526 9.91016 12.1656 9.91016 12.1788C9.91016 12.1919 9.90713 12.2049 9.90172 12.2169C9.89571 12.2288 9.88792 12.2393 9.8777 12.2478L9.55327 12.5778H11.536C11.5612 12.5778 11.5859 12.5879 11.6039 12.6059C11.6219 12.6239 11.6321 12.6484 11.6321 12.6738V14.5338C11.6321 14.5592 11.6219 14.5836 11.6039 14.6016C11.5859 14.6196 11.5612 14.6298 11.536 14.6298H11.0794L12.4853 16.0338C12.5004 16.0548 12.5069 16.0807 12.5033 16.1063C12.5003 16.1319 12.4871 16.1553 12.4673 16.1718Z" fill="white" fill-opacity="0.75"/>
<path d="M35.2569 8.5338L35.1367 10.5378C35.0946 11.2218 35.0526 11.8098 35.0045 12.3378C34.9324 13.1718 34.8483 15.1698 33.7668 15.1698C33.7668 15.1698 33.7668 15.1698 33.7247 15.1698C33.6671 15.1712 33.6124 15.1943 33.5709 15.2344C33.5301 15.2744 33.5054 15.3285 33.5024 15.3858V16.6758C33.5006 16.706 33.5054 16.7362 33.5156 16.7645C33.5265 16.7928 33.5421 16.8187 33.5631 16.8406C33.5842 16.8625 33.6088 16.88 33.637 16.8919C33.6647 16.9037 33.6947 16.9099 33.7247 16.9098H33.8209C34.2384 16.9649 34.6626 16.8985 35.043 16.7186C35.4233 16.5388 35.7441 16.253 35.9658 15.8958C36.1743 15.5884 36.3378 15.2531 36.4525 14.8998C36.5841 14.4949 36.6809 14.0793 36.7409 13.6578C36.813 13.1958 36.8731 12.6918 36.9152 12.1398C36.9572 11.5878 37.0053 10.9878 37.0473 10.3398L37.1014 9.4218H39.673V16.6638C39.673 16.6946 39.679 16.725 39.6916 16.7531C39.7036 16.7813 39.7217 16.8067 39.7445 16.8275C39.7667 16.8484 39.7938 16.8643 39.8226 16.8744C39.852 16.8844 39.8827 16.8883 39.9133 16.8858H41.4395C41.4713 16.8884 41.5031 16.8842 41.5332 16.8735C41.5632 16.8628 41.5902 16.8457 41.6131 16.8235C41.6359 16.8014 41.6534 16.7746 41.6648 16.7449C41.6768 16.7153 41.6816 16.6835 41.6798 16.6518V8.2998C41.6774 8.2113 41.6575 8.12412 41.6209 8.04342C41.5848 7.96266 41.5326 7.89006 41.4677 7.8297C41.4028 7.76934 41.3265 7.72254 41.243 7.692C41.1601 7.66146 41.0712 7.64778 40.9828 7.6518H35.9178C35.7568 7.65702 35.6029 7.72086 35.4858 7.83138C35.368 7.9419 35.2953 8.09142 35.2809 8.2518C35.2809 8.3358 35.2809 8.4198 35.2809 8.5158L35.2569 8.5338ZM19.4309 16.8858H22.8977C23.2979 16.9153 23.6998 16.8629 24.0789 16.7318C24.4581 16.6008 24.8066 16.3939 25.1034 16.1237C25.3996 15.8536 25.6375 15.5259 25.8028 15.1607C25.968 14.7955 26.0569 14.4005 26.0641 13.9998C26.0707 13.8233 26.0605 13.6465 26.0341 13.4718C25.9205 12.7772 25.5624 12.1462 25.0235 11.6927C24.4845 11.2393 23.8008 10.9935 23.096 10.9998H20.7587V9.3618H24.7423C24.7753 9.36468 24.8084 9.36024 24.839 9.34884C24.8697 9.33738 24.8979 9.31926 24.9207 9.29568C24.9435 9.27216 24.9616 9.24378 24.9718 9.2127C24.9826 9.18162 24.9862 9.1485 24.9826 9.1158V7.9158C24.9826 7.7538 24.9225 7.6218 24.7423 7.6278H19.491C19.4009 7.6194 19.3107 7.62996 19.2248 7.65882C19.1395 7.68762 19.0608 7.73412 18.9947 7.79526C18.9286 7.8564 18.8757 7.93074 18.8403 8.01354C18.8042 8.09634 18.7868 8.18574 18.788 8.2758V16.2378C18.7874 16.3226 18.803 16.4068 18.8355 16.4854C18.8673 16.564 18.9142 16.6354 18.9743 16.6957C19.0338 16.7559 19.1052 16.8037 19.1833 16.8364C19.2621 16.869 19.3462 16.8858 19.4309 16.8858ZM61.5494 16.6098V13.5198H63.7424C64.2315 13.515 64.7116 13.3885 65.14 13.1518C65.5678 12.9151 65.9295 12.5757 66.1932 12.1642C66.457 11.7527 66.6138 11.282 66.6492 10.7949C66.6853 10.3077 66.5988 9.8193 66.3981 9.3738C66.2305 8.994 65.9823 8.65476 65.6711 8.37936C65.3605 8.1039 64.9934 7.8987 64.5956 7.7778C64.2651 7.68732 63.9227 7.6449 63.5802 7.6518H60.2335C60.0653 7.64514 59.9013 7.704 59.7757 7.81596C59.6501 7.92792 59.5732 8.08416 59.5606 8.2518C59.5606 8.3058 59.5606 8.3658 59.5606 8.4258V16.6638C59.5606 16.6935 59.5666 16.7228 59.578 16.7502C59.5895 16.7775 59.6063 16.8023 59.6279 16.823C59.6489 16.8437 59.6742 16.8599 59.7018 16.8707C59.7294 16.8815 59.7595 16.8866 59.7889 16.8858H61.3451C61.3853 16.8859 61.425 16.8754 61.4599 16.8554C61.4941 16.8354 61.5235 16.8065 61.5434 16.7718C61.5554 16.7186 61.5572 16.6637 61.5494 16.6098ZM64.5535 10.6098C64.5535 10.9281 64.4268 11.2333 64.2015 11.4583C63.9761 11.6834 63.6703 11.8098 63.3519 11.8098H61.5494V9.4098H63.2677C63.4306 9.3984 63.594 9.42018 63.7478 9.47382C63.9016 9.52752 64.0434 9.61188 64.1636 9.72192C64.2838 9.83196 64.3805 9.96528 64.4478 10.1138C64.5145 10.2623 64.5505 10.423 64.5535 10.5858V10.6098ZM56.3341 14.9898L56.8508 16.6998C56.8929 16.8558 56.977 16.9098 57.0732 16.9098H58.7435C58.7789 16.9114 58.815 16.9045 58.8468 16.8895C58.8793 16.8745 58.9081 16.8518 58.9297 16.8236C58.9514 16.7953 58.9664 16.7623 58.9724 16.7271C58.9784 16.692 58.9766 16.6559 58.9658 16.6218L56.226 8.3958C56.0998 7.9938 55.9076 7.6758 55.4389 7.6758H54.2372C54.1219 7.66566 54.0053 7.68582 53.9001 7.73424C53.795 7.7826 53.7037 7.8576 53.6364 7.9518C53.5385 8.08488 53.4669 8.23566 53.4261 8.3958L50.7344 16.5918C50.7229 16.6252 50.7193 16.6609 50.7248 16.6959C50.7296 16.7309 50.7434 16.7641 50.7638 16.7929C50.7842 16.8216 50.8113 16.8451 50.8431 16.8612C50.8744 16.8774 50.9092 16.8858 50.9446 16.8858H52.5369C52.5843 16.892 52.6324 16.8825 52.6732 16.8586C52.7147 16.8347 52.7472 16.7979 52.7652 16.7538C52.7802 16.7167 52.7922 16.6786 52.8012 16.6398L53.3179 14.9658L56.3341 14.9898ZM53.7866 13.3518L54.2853 11.6838L54.79 9.8058H54.8681L55.3548 11.6838L55.8595 13.3518H53.7866ZM48.2289 11.9958V11.9298C48.5119 11.7554 48.7522 11.5196 48.9319 11.2398C49.1331 10.9441 49.2737 10.6118 49.3464 10.2618L49.9473 7.9098C49.9539 7.87764 49.9527 7.84446 49.9443 7.81272C49.9358 7.78098 49.9208 7.75158 49.8992 7.72668C49.8776 7.70184 49.8511 7.68216 49.8205 7.6692C49.7905 7.65624 49.758 7.6503 49.725 7.6518H48.331C48.2818 7.6407 48.2301 7.6407 48.1808 7.6518C48.152 7.66752 48.1268 7.68984 48.1081 7.7169C48.0895 7.74402 48.0769 7.77516 48.0727 7.8078L47.4718 10.0278C47.4172 10.2571 47.3216 10.4747 47.1894 10.6698C47.0879 10.8174 46.9545 10.9405 46.7989 11.0298C46.6643 11.1044 46.5183 11.1552 46.3663 11.1798C46.2287 11.1943 46.0893 11.1943 45.9517 11.1798H44.9123V7.8678C44.9105 7.80996 44.8864 7.75506 44.845 7.71468C44.8035 7.67436 44.7477 7.6518 44.69 7.6518H43.1398C43.1104 7.64934 43.0809 7.65294 43.0527 7.6623C43.0251 7.67166 42.9992 7.68666 42.977 7.70628C42.9554 7.72596 42.9373 7.7499 42.9253 7.77666C42.9127 7.80342 42.9061 7.8324 42.9055 7.8618V16.6758C42.9073 16.705 42.9145 16.7336 42.9271 16.7599C42.9397 16.7863 42.9571 16.8099 42.9788 16.8294C43.001 16.8489 43.0262 16.8639 43.0539 16.8736C43.0815 16.8833 43.1104 16.8874 43.1398 16.8858H44.6719C44.7014 16.8883 44.7314 16.8847 44.7597 16.8754C44.7879 16.8661 44.8144 16.8512 44.8366 16.8316C44.8588 16.8121 44.8774 16.7882 44.8901 16.7614C44.9033 16.7347 44.9105 16.7056 44.9123 16.6758V12.7638H45.9758C46.2389 12.7537 46.5021 12.782 46.7568 12.8478C46.9617 12.9039 47.1456 13.0186 47.2856 13.1778C47.446 13.382 47.5626 13.6168 47.6281 13.8678L48.4392 16.7298C48.4524 16.7752 48.48 16.8151 48.5179 16.8432C48.5557 16.8714 48.602 16.8863 48.6495 16.8858H50.1816C50.2152 16.8886 50.2495 16.8833 50.2813 16.8704C50.3126 16.8575 50.3408 16.8374 50.3631 16.8117C50.3853 16.786 50.4009 16.7554 50.4093 16.7224C50.4171 16.6894 50.4177 16.6549 50.4099 16.6218L49.5928 13.5678C49.5471 13.3847 49.4912 13.2044 49.4245 13.0278C49.3669 12.8731 49.29 12.7259 49.1962 12.5898C49.0935 12.4548 48.9697 12.3373 48.8297 12.2418C48.6489 12.125 48.453 12.0341 48.2469 11.9718L48.2289 11.9958ZM33.0458 16.6098V15.4098C33.0464 15.3802 33.0416 15.3506 33.0308 15.323C33.02 15.2954 33.0038 15.2702 32.9827 15.2489C32.9623 15.2277 32.937 15.2108 32.91 15.1993C32.8824 15.1877 32.8529 15.1818 32.8235 15.1818H29.2185C29.129 15.1813 29.0401 15.1622 28.9583 15.1261C28.876 15.0899 28.8021 15.0373 28.7414 14.9714C28.6807 14.9056 28.6339 14.828 28.6045 14.7434C28.575 14.6589 28.563 14.5691 28.5696 14.4798V12.6858H32.3789C32.4083 12.6866 32.4371 12.6817 32.4642 12.6712C32.4918 12.6608 32.5165 12.6451 32.5381 12.6251C32.5591 12.605 32.5759 12.581 32.588 12.5543C32.6 12.5277 32.6066 12.499 32.6072 12.4698V11.2338C32.6072 11.1018 32.5171 11.0118 32.3548 11.0118H28.5696V10.0278C28.569 9.94224 28.5852 9.85734 28.6171 9.77802C28.6495 9.6987 28.697 9.62652 28.7576 9.56574C28.8177 9.5049 28.8898 9.45666 28.9685 9.42372C29.0478 9.39078 29.1326 9.3738 29.2185 9.3738H32.8235C32.8535 9.37548 32.8842 9.37092 32.9124 9.36048C32.9407 9.3501 32.9665 9.33396 32.9887 9.3132C33.0104 9.29244 33.0278 9.26736 33.0398 9.23964C33.0518 9.21192 33.0578 9.18204 33.0578 9.1518V7.8738C33.0578 7.84254 33.0518 7.81158 33.0392 7.78296C33.026 7.75428 33.008 7.72866 32.9845 7.70772C32.9611 7.68672 32.934 7.67094 32.904 7.66128C32.874 7.65168 32.8427 7.64844 32.8115 7.6518H29.0863C28.4314 7.6533 27.8035 7.91118 27.3373 8.37006C26.871 8.82894 26.6037 9.45216 26.5929 10.1058V14.4798C26.6067 15.1181 26.8698 15.7259 27.3253 16.174C27.7807 16.6221 28.3929 16.8753 29.0322 16.8798H32.8295C32.8596 16.8815 32.8896 16.8769 32.9172 16.8665C32.9455 16.856 32.9713 16.8398 32.9923 16.8189C33.014 16.798 33.0308 16.7729 33.0422 16.7452C33.0536 16.7175 33.0584 16.6877 33.0578 16.6578L33.0458 16.6098ZM71.385 9.4098V16.6758C71.3844 16.7053 71.3778 16.7342 71.3652 16.761C71.3526 16.7877 71.3351 16.8116 71.3135 16.8313C71.2913 16.851 71.2655 16.866 71.2378 16.8754C71.2096 16.8847 71.1801 16.8883 71.1507 16.8858H69.6186C69.5591 16.8892 69.5002 16.869 69.4557 16.8298C69.4107 16.7905 69.3831 16.7353 69.3783 16.6758V9.3738H66.9749C66.9455 9.3723 66.9172 9.36504 66.8908 9.35244C66.8644 9.33984 66.8409 9.32214 66.8211 9.30042C66.8019 9.27864 66.7863 9.25332 66.7766 9.22572C66.767 9.19818 66.7628 9.16896 66.7646 9.1398V7.8858C66.7622 7.85646 66.7658 7.82694 66.7748 7.79904C66.7845 7.77108 66.7995 7.7454 66.8193 7.7235C66.8391 7.7016 66.8625 7.6839 66.8896 7.6716C66.9166 7.65924 66.9455 7.65252 66.9749 7.6518H73.8244C73.8539 7.65336 73.8821 7.66062 73.9085 7.67322C73.935 7.68582 73.9584 7.70352 73.9782 7.72524C73.9974 7.74696 74.0125 7.77234 74.0227 7.79988C74.0323 7.82748 74.0365 7.85664 74.0347 7.8858V9.1398C74.0365 9.1983 74.0155 9.25524 73.9764 9.2988C73.9374 9.34236 73.8827 9.36924 73.8244 9.3738L71.385 9.4098ZM23.9612 13.9218C23.9684 14.0902 23.9396 14.2582 23.8777 14.4148C23.8152 14.5714 23.7209 14.7133 23.6001 14.831C23.4793 14.9487 23.3351 15.0397 23.1771 15.0981C23.0185 15.1565 22.8496 15.1809 22.6814 15.1698H20.7648V12.6858H22.6934C22.8581 12.6743 23.0233 12.6968 23.1789 12.7519C23.3345 12.807 23.4775 12.8936 23.5983 13.0061C23.7185 13.1188 23.8146 13.255 23.8807 13.4063C23.9462 13.5577 23.9798 13.7209 23.9792 13.8858L23.9612 13.9218Z" fill="white" fill-opacity="0.75"/>
<path fill-rule="evenodd" clip-rule="evenodd" d="M73.0193 21.9438C73.0217 21.8263 72.979 21.7124 72.8991 21.6258C72.8535 21.5791 72.7982 21.5431 72.7369 21.5203C72.6756 21.4975 72.6095 21.4884 72.5446 21.4938H71.7635V22.3998H72.5506C72.6311 22.4021 72.7117 22.3857 72.785 22.3518C72.8426 22.3253 72.8943 22.2864 72.9352 22.2378C72.97 22.1915 72.9946 22.1383 73.0073 22.0818C73.0127 22.034 73.0127 21.9857 73.0073 21.9378L73.0193 21.9438ZM71.2048 23.1378C71.1435 23.1466 71.0804 23.1415 71.0215 23.1227C70.962 23.1041 70.9073 23.0723 70.8623 23.0298C70.8046 22.9475 70.777 22.848 70.7842 22.7478V19.7478C70.7842 19.6638 70.8322 19.6218 70.9284 19.6218H71.6013C71.6674 19.6218 71.7095 19.6218 71.7275 19.6218C71.7389 19.6359 71.7473 19.6523 71.7527 19.6698C71.7581 19.6873 71.7593 19.7057 71.7575 19.7238V20.7018H72.5927C72.8583 20.6879 73.1232 20.7351 73.3677 20.8398C73.5378 20.9114 73.6868 21.025 73.8004 21.1698C73.8947 21.2864 73.959 21.4245 73.9866 21.5718C74.0083 21.6826 74.0203 21.795 74.0227 21.9078C74.0251 22.0747 73.992 22.2402 73.9265 22.3938C73.8586 22.5372 73.7625 22.6657 73.6441 22.7718C73.5216 22.8838 73.3792 22.9714 73.2236 23.0298C73.0565 23.0927 72.8793 23.1252 72.7008 23.1258L71.2048 23.1378ZM69.5044 19.6098C69.5615 19.6022 69.6191 19.6069 69.6738 19.6234C69.7291 19.64 69.7796 19.668 69.8229 19.7058C69.8883 19.7958 69.9184 19.907 69.9069 20.0178V23.0178C69.9069 23.0718 69.9069 23.1078 69.9069 23.1258C69.8673 23.1359 69.8265 23.1359 69.7868 23.1258H69.1079C69.067 23.14 69.0225 23.14 68.9817 23.1258C68.9745 23.1087 68.9709 23.0903 68.9709 23.0718C68.9709 23.0533 68.9745 23.0349 68.9817 23.0178V20.4378H68.1525V20.7858C68.1285 21.1858 68.0985 21.5218 68.0624 21.7938C68.0348 22.0427 67.9741 22.2868 67.8821 22.5198C67.8052 22.7099 67.6815 22.8772 67.5217 23.0058C67.3414 23.1433 67.1377 23.2469 66.9208 23.3118C66.8782 23.3285 66.8313 23.3285 66.7886 23.3118C66.7592 23.2879 66.7364 23.257 66.7225 23.2218L66.5423 22.7658C66.5309 22.7246 66.5309 22.681 66.5423 22.6398C66.5423 22.6398 66.5783 22.5858 66.6384 22.5558C66.7448 22.5099 66.8439 22.4493 66.9328 22.3758C67.0134 22.294 67.0746 22.1957 67.1131 22.0878C67.1696 21.9248 67.2056 21.7556 67.2212 21.5838C67.2212 21.3738 67.2753 21.1038 67.2993 20.7618L67.3414 20.0298C67.3384 19.918 67.3775 19.8091 67.4496 19.7238C67.5379 19.6544 67.6502 19.6221 67.762 19.6338L69.5044 19.6098ZM65.0222 21.3738C65.0234 21.235 65.0114 21.0963 64.9861 20.9598C64.9675 20.846 64.9291 20.7363 64.872 20.6358C64.8197 20.5502 64.7476 20.4782 64.6617 20.4258C64.5223 20.3506 64.3595 20.3286 64.205 20.3639C64.05 20.3992 63.9137 20.4894 63.8205 20.6178C63.6956 20.8431 63.6355 21.0984 63.6463 21.3558C63.6313 21.6209 63.6853 21.8854 63.8025 22.1238C63.8578 22.2102 63.9359 22.2799 64.0278 22.3254C64.1203 22.3708 64.2231 22.3904 64.3252 22.3818C64.4364 22.3858 64.5469 22.3588 64.6437 22.3038C64.7338 22.255 64.8083 22.1823 64.86 22.0938C64.9207 21.9945 64.9615 21.8845 64.9801 21.7698C65.003 21.6511 65.015 21.5306 65.0162 21.4098L65.0222 21.3738ZM66.0376 21.3738C66.0694 21.8668 65.9174 22.3541 65.611 22.7418C65.4446 22.9127 65.2427 23.0449 65.0192 23.1289C64.7963 23.2129 64.5571 23.2466 64.3192 23.2278C64.0831 23.2483 63.8452 23.2152 63.6235 23.131C63.4024 23.0469 63.2023 22.9138 63.0394 22.7418C62.7504 22.3508 62.608 21.8709 62.6369 21.3858C62.6345 21.123 62.6747 20.8615 62.757 20.6118C62.8255 20.3902 62.9397 20.1857 63.0935 20.0118C63.2413 19.8547 63.4216 19.7318 63.6223 19.6518C63.8482 19.5627 64.0885 19.5179 64.3312 19.5198C64.5668 19.5032 64.8029 19.5386 65.0234 19.6237C65.2433 19.7087 65.4422 19.8413 65.605 20.0118C65.918 20.4006 66.0707 20.8943 66.0316 21.3918L66.0376 21.3738ZM61.0086 21.3738C61.0122 21.218 60.9942 21.0626 60.9546 20.9118C60.9251 20.7999 60.8716 20.6955 60.7983 20.6058C60.7256 20.5328 60.6373 20.4773 60.54 20.4438C60.4282 20.4134 60.3129 20.3993 60.1975 20.4018H59.9512C59.8616 20.4116 59.7733 20.4297 59.6868 20.4558V22.2918C59.7895 22.3183 59.8941 22.3383 59.9992 22.3518H60.2456C60.3489 22.3551 60.451 22.3365 60.5466 22.2972C60.6421 22.2579 60.7274 22.1988 60.7983 22.1238C60.9503 21.9089 61.0225 21.648 61.0026 21.3858L61.0086 21.3738ZM59.6868 24.4158C59.6988 24.4467 59.6988 24.481 59.6868 24.5118C59.6496 24.5215 59.6099 24.5215 59.5726 24.5118H58.8456C58.8102 24.5196 58.7729 24.5196 58.7375 24.5118C58.7375 24.5118 58.7074 24.4638 58.7074 24.4158V20.0358C58.6996 19.9982 58.6996 19.9594 58.7074 19.9218C58.7375 19.8814 58.7765 19.8485 58.8216 19.8258C59.0511 19.724 59.2938 19.6553 59.5426 19.6218C59.7949 19.5821 60.0503 19.562 60.3056 19.5618C60.5808 19.5536 60.8554 19.6026 61.1108 19.7058C61.3145 19.7906 61.4941 19.9246 61.6335 20.0958C61.7729 20.272 61.8714 20.4769 61.9219 20.6958C61.9832 20.9288 62.0138 21.1689 62.012 21.4098C62.0114 21.649 61.9796 21.8871 61.9159 22.1178C61.8588 22.3343 61.7609 22.5379 61.6275 22.7178C61.4941 22.8862 61.3234 23.0216 61.1288 23.1138C60.9083 23.2144 60.6679 23.2636 60.4258 23.2578C60.2996 23.2644 60.1735 23.2644 60.0473 23.2578C59.9175 23.245 59.7889 23.2229 59.6627 23.1918L59.6868 24.4158ZM56.8569 21.5598H56.3221H56.1238C56.0547 21.567 55.9875 21.5874 55.9256 21.6198C55.8625 21.6547 55.809 21.704 55.7694 21.7638C55.7279 21.8433 55.7069 21.9321 55.7093 22.0218C55.7033 22.0864 55.7153 22.1513 55.7441 22.2095C55.773 22.2677 55.8168 22.3169 55.8715 22.3518C56.0037 22.4185 56.1503 22.4495 56.2981 22.4418H56.4062H56.5504H56.7067L56.8569 22.3998V21.5598ZM57.8302 22.7238C57.8404 22.7733 57.8404 22.8243 57.8302 22.8738C57.8026 22.9232 57.7611 22.963 57.71 22.9878C57.6043 23.0384 57.4931 23.0786 57.3796 23.1078C57.2594 23.1358 57.1393 23.1598 57.0191 23.1798L56.6466 23.2218H56.2921C56.0367 23.2282 55.782 23.1979 55.535 23.1318C55.3608 23.0871 55.1968 23.0075 55.0544 22.8978C54.939 22.8029 54.8519 22.6784 54.802 22.5378C54.751 22.3974 54.7245 22.2492 54.7239 22.0998C54.7221 21.9354 54.7527 21.7723 54.814 21.6198C54.8723 21.4754 54.9624 21.3461 55.0784 21.2418C55.204 21.1264 55.3542 21.0404 55.517 20.9898C55.7207 20.9254 55.934 20.895 56.1479 20.8998H56.8869V20.7918C56.8959 20.7322 56.8959 20.6714 56.8869 20.6118C56.8749 20.5526 56.8454 20.4984 56.8028 20.4558C56.7535 20.4089 56.6934 20.374 56.6285 20.3538C56.5288 20.3247 56.4261 20.3105 56.3221 20.3118H56.0938H55.8415L55.5891 20.3538L55.3788 20.4078C55.3379 20.4203 55.2935 20.4203 55.2527 20.4078C55.2292 20.3832 55.2142 20.3516 55.2106 20.3178L55.1024 19.8498C55.0916 19.8363 55.0844 19.82 55.082 19.8028C55.0796 19.7856 55.082 19.768 55.0886 19.752C55.0952 19.736 55.1066 19.7221 55.1204 19.7119C55.1349 19.7016 55.1511 19.6953 55.1685 19.6938C55.3746 19.6194 55.5879 19.5671 55.8054 19.5378C56.0241 19.5069 56.2452 19.4909 56.4663 19.4898C56.849 19.4584 57.23 19.5695 57.5358 19.8018C57.6554 19.9228 57.7473 20.0678 57.8062 20.2271C57.8657 20.3864 57.8897 20.5564 57.8783 20.7258L57.8302 22.7238ZM53.8948 23.0298C53.8948 23.0838 53.8948 23.1138 53.8948 23.1318C53.8539 23.1459 53.8094 23.1459 53.7686 23.1318H53.0356C52.9454 23.1318 52.8974 23.0898 52.8974 22.9998V19.3578H51.0949V23.0418C51.1081 23.0746 51.1081 23.111 51.0949 23.1438C51.0564 23.1586 51.0132 23.1586 50.9747 23.1438H50.2357C50.1395 23.1438 50.0915 23.1018 50.0915 23.0118V18.9198C50.0831 18.7954 50.1191 18.6719 50.1936 18.5718C50.2381 18.5313 50.2904 18.5008 50.3474 18.4821C50.4039 18.4635 50.4646 18.4572 50.5241 18.4638H53.5283C53.5889 18.4568 53.6502 18.4627 53.7085 18.4814C53.7662 18.5 53.8197 18.5308 53.8647 18.5718C53.9374 18.6727 53.9711 18.7961 53.9608 18.9198L53.8948 23.0298ZM48.331 20.4378V23.0358C48.3449 23.0726 48.3449 23.1131 48.331 23.1498C48.2896 23.1591 48.2463 23.1591 48.2049 23.1498H47.5379C47.4358 23.1498 47.3817 23.1018 47.3817 23.0118V20.4378H46.4084C46.3182 20.4378 46.2762 20.3898 46.2762 20.2878V19.8018C46.2762 19.7358 46.2762 19.6938 46.2762 19.6758C46.2912 19.6639 46.3086 19.655 46.3272 19.6499C46.3459 19.6447 46.3651 19.6433 46.3843 19.6458H49.2924C49.3308 19.6421 49.3693 19.6528 49.4005 19.6758C49.4005 19.6758 49.4005 19.7358 49.4005 19.8018V20.2878C49.4005 20.3898 49.3585 20.4378 49.2683 20.4378H48.331ZM44.3656 20.3658C44.2814 20.3644 44.1973 20.3808 44.1198 20.4138C44.0423 20.4469 43.9726 20.496 43.9149 20.5578C43.7966 20.698 43.7269 20.8727 43.7166 21.0558H44.9724C44.982 20.964 44.982 20.8715 44.9724 20.7798C44.9549 20.7022 44.9225 20.6287 44.8763 20.5638C44.8276 20.5032 44.7657 20.4541 44.696 20.4198C44.5951 20.3782 44.4863 20.3597 44.3776 20.3658H44.3656ZM44.3656 19.5558C44.5825 19.5359 44.8011 19.5608 45.0078 19.6289C45.2145 19.6971 45.405 19.8069 45.5672 19.9518C45.706 20.1023 45.8123 20.2793 45.8808 20.4722C45.9487 20.6651 45.977 20.8697 45.9638 21.0738C45.983 21.2458 45.9337 21.4184 45.8256 21.5538C45.7757 21.5979 45.718 21.6317 45.6549 21.6533C45.5919 21.6749 45.5251 21.6839 45.459 21.6798H43.7046C43.7064 21.8032 43.7311 21.9252 43.7767 22.0398C43.8176 22.1276 43.8771 22.2055 43.951 22.2678C44.0261 22.3243 44.112 22.3651 44.2033 22.3878C44.3061 22.4076 44.4112 22.4176 44.5158 22.4178C44.6498 22.4189 44.7825 22.4027 44.9123 22.3698C45.0403 22.3434 45.1652 22.3032 45.2848 22.2498C45.3215 22.236 45.3623 22.236 45.399 22.2498C45.4242 22.2621 45.4435 22.2836 45.4531 22.3098L45.6694 22.7958C45.676 22.8098 45.6796 22.8252 45.6796 22.8408C45.6796 22.8564 45.676 22.8718 45.6694 22.8858C45.6519 22.9155 45.6273 22.9403 45.5973 22.9578C45.4128 23.0701 45.2091 23.1474 44.9964 23.1858C44.7994 23.2305 44.5981 23.2547 44.3956 23.2578C44.1601 23.2781 43.9221 23.2496 43.698 23.1743C43.4739 23.0989 43.2672 22.9783 43.0918 22.8198C42.7752 22.4328 42.6219 21.9377 42.6652 21.4398C42.6616 21.171 42.7024 20.9035 42.7854 20.6478C42.8557 20.4272 42.9704 20.223 43.1218 20.0478C43.2654 19.8872 43.4445 19.7619 43.6446 19.6818C43.8717 19.5918 44.115 19.5489 44.3595 19.5558H44.3656ZM39.7331 23.0358C39.7469 23.0726 39.7469 23.1131 39.7331 23.1498C39.6917 23.1591 39.6484 23.1591 39.6069 23.1498H38.898C38.8018 23.1498 38.7477 23.1018 38.7477 23.0118V19.7718C38.7477 19.6878 38.8018 19.6458 38.898 19.6458H39.5709C39.6123 19.6336 39.6556 19.6336 39.6971 19.6458C39.7103 19.6786 39.7103 19.715 39.6971 19.7478V20.8998H40.9528V19.7718C40.9528 19.6878 41.0009 19.6458 41.103 19.6458H41.776C41.8421 19.6458 41.8841 19.6458 41.9021 19.6458C41.9201 19.6458 41.9021 19.6938 41.9021 19.7478V23.0118C41.9021 23.0718 41.9021 23.1078 41.9021 23.1258C41.8607 23.1365 41.8174 23.1365 41.776 23.1258H41.121C41.0189 23.1258 40.9708 23.0778 40.9708 22.9878V21.6858H39.7151L39.7331 23.0358ZM36.9933 21.3858C36.9969 21.23 36.9789 21.0746 36.9392 20.9238C36.9092 20.8119 36.8563 20.7076 36.783 20.6178C36.7103 20.5448 36.622 20.4893 36.5247 20.4558C36.4129 20.4254 36.2976 20.4113 36.1822 20.4138H35.9359C35.8463 20.423 35.7574 20.4411 35.6715 20.4678V22.3038C35.7742 22.3308 35.8788 22.3508 35.9839 22.3638H36.2303C36.3336 22.3671 36.4358 22.3485 36.5313 22.3092C36.6268 22.2699 36.7121 22.2108 36.783 22.1358C36.9351 21.9165 37.0071 21.6518 36.9873 21.3858H36.9933ZM35.6715 24.4278C35.6811 24.4591 35.6811 24.4925 35.6715 24.5238C35.6318 24.5332 35.591 24.5332 35.5513 24.5238H34.8604C34.8249 24.5322 34.7877 24.5322 34.7522 24.5238C34.739 24.512 34.7282 24.4971 34.7222 24.4804C34.7155 24.4636 34.7138 24.4456 34.7162 24.4278V20.0478C34.7084 20.0102 34.7084 19.9714 34.7162 19.9338C34.7462 19.8934 34.7853 19.8605 34.8303 19.8378C35.0593 19.7353 35.3026 19.6666 35.5513 19.6338C35.8037 19.5939 36.059 19.5738 36.3144 19.5738C36.5896 19.5656 36.8642 19.6146 37.1195 19.7178C37.3232 19.8026 37.5028 19.9366 37.6422 20.1078C37.7816 20.284 37.8802 20.4889 37.9306 20.7078C37.9871 20.9416 38.0153 21.1813 38.0147 21.4218C38.0166 21.6608 37.9859 21.8989 37.9246 22.1298C37.8681 22.3477 37.7678 22.5518 37.6302 22.7298C37.5004 22.8994 37.331 23.0351 37.1375 23.1258C36.9146 23.2259 36.6725 23.2751 36.4285 23.2698C36.3042 23.2762 36.1804 23.2762 36.056 23.2698C35.9262 23.2575 35.7977 23.2355 35.6715 23.2038V24.4278ZM32.427 20.3658C32.3429 20.3644 32.2587 20.3808 32.1812 20.4138C32.1037 20.4469 32.0341 20.496 31.9764 20.5578C31.8562 20.6974 31.7847 20.8721 31.7721 21.0558H33.0338C33.0434 20.964 33.0434 20.8715 33.0338 20.7798C33.0146 20.7017 32.9798 20.6282 32.9317 20.5638C32.8854 20.5006 32.8235 20.4509 32.7514 20.4198C32.6475 20.3746 32.5339 20.356 32.421 20.3658H32.427ZM32.427 19.5558C32.6439 19.5363 32.862 19.5614 33.0687 19.6295C33.2754 19.6976 33.4658 19.8072 33.6287 19.9518C33.7675 20.1023 33.8738 20.2793 33.9423 20.4722C34.0102 20.6651 34.0384 20.8697 34.0252 21.0738C34.0444 21.2458 33.9952 21.4184 33.887 21.5538C33.7861 21.6423 33.6545 21.6875 33.5205 21.6798H31.7481C31.7499 21.8032 31.7745 21.9252 31.8202 22.0398C31.8586 22.1273 31.9163 22.2051 31.9884 22.2678C32.0635 22.3243 32.1494 22.3651 32.2407 22.3878C32.3435 22.4073 32.4486 22.4173 32.5532 22.4178C32.6871 22.4197 32.8205 22.4035 32.9497 22.3698C33.0801 22.3443 33.2069 22.304 33.3283 22.2498C33.3649 22.236 33.4057 22.236 33.4424 22.2498C33.4676 22.2621 33.4869 22.2836 33.4965 22.3098L33.7128 22.7958C33.7236 22.8248 33.7236 22.8568 33.7128 22.8858C33.6953 22.9155 33.6707 22.9403 33.6407 22.9578C33.4562 23.0701 33.2525 23.1474 33.0398 23.1858C32.8428 23.2305 32.6415 23.2547 32.439 23.2578C32.2035 23.2781 31.9655 23.2496 31.7414 23.1743C31.5173 23.0989 31.3106 22.9783 31.1352 22.8198C30.8186 22.4328 30.6653 21.9377 30.7086 21.4398C30.705 21.171 30.7459 20.9035 30.8288 20.6478C30.8967 20.426 31.0114 20.2214 31.1652 20.0478C31.3088 19.8872 31.4879 19.7619 31.688 19.6818C31.9151 19.5918 32.1584 19.5489 32.403 19.5558H32.427ZM29.4769 20.4378V23.0358C29.4769 23.0958 29.4769 23.1318 29.4469 23.1498C29.4072 23.1599 29.3663 23.1599 29.3267 23.1498H28.6598C28.5576 23.1498 28.5035 23.1018 28.5035 23.0118V20.4378H27.5482C27.4581 20.4378 27.416 20.3898 27.416 20.2878V19.8018C27.416 19.7358 27.416 19.6938 27.416 19.6758C27.416 19.6578 27.4641 19.6458 27.5242 19.6458H30.4322C30.4707 19.6421 30.5091 19.6528 30.5404 19.6758C30.5404 19.6758 30.5404 19.7358 30.5404 19.8018V20.2878C30.5404 20.3898 30.4983 20.4378 30.4082 20.4378H29.4769ZM24.6702 23.0358C24.6702 23.0958 24.6702 23.1318 24.6402 23.1498C24.5987 23.1605 24.5555 23.1605 24.514 23.1498H23.8471C23.745 23.1498 23.6969 23.1018 23.6969 23.0118V19.7718C23.6969 19.6878 23.745 19.6458 23.8471 19.6458H24.514C24.5801 19.6458 24.6222 19.6458 24.6402 19.6458C24.6582 19.6458 24.6702 19.6938 24.6702 19.7478V20.8998H25.932V19.7718C25.932 19.6878 25.9801 19.6458 26.0762 19.6458H26.7551C26.7942 19.6325 26.8362 19.6325 26.8753 19.6458C26.8867 19.66 26.8951 19.6763 26.9005 19.6938C26.9059 19.7113 26.9072 19.7297 26.9053 19.7478V23.0118C26.9102 23.0522 26.8993 23.0929 26.8753 23.1258C26.8356 23.1359 26.7948 23.1359 26.7551 23.1258H26.0762C26.057 23.1287 26.0377 23.1271 26.0191 23.1213C26.0011 23.1155 25.9843 23.1055 25.9704 23.0922C25.956 23.0788 25.9458 23.0625 25.9392 23.0444C25.9326 23.0263 25.9302 23.0069 25.932 22.9878V21.6858H24.6702V23.0358ZM21.7141 20.0358L21.1133 21.0438L19.9777 22.8798L19.8696 23.0358C19.8401 23.0705 19.8059 23.1008 19.7674 23.1258C19.7284 23.1469 19.6857 23.1611 19.6413 23.1678H19.473H19.2027C19.139 23.1762 19.0735 23.1692 19.0128 23.1472C18.9521 23.1253 18.898 23.0891 18.8542 23.0418C18.7905 22.9394 18.7592 22.8203 18.764 22.6998V18.5898C18.764 18.5058 18.8121 18.4638 18.9083 18.4638H19.6292C19.6893 18.4638 19.7314 18.4638 19.7434 18.4638C19.7554 18.4967 19.7554 18.5329 19.7434 18.5658V21.5658H19.7855L20.3863 20.6238L21.5519 18.7158C21.5819 18.6619 21.6186 18.6115 21.6601 18.5658C21.6859 18.5281 21.7184 18.4955 21.7562 18.4698C21.7947 18.4462 21.8379 18.4318 21.8824 18.4278H22.0506H22.321C22.446 18.415 22.5709 18.4516 22.6694 18.5298C22.7379 18.639 22.7698 18.7673 22.7596 18.8958V23.0058C22.7596 23.0958 22.7115 23.1378 22.6214 23.1378H21.8944C21.8559 23.1526 21.8127 23.1526 21.7742 23.1378C21.761 23.105 21.761 23.0686 21.7742 23.0358V20.0358H21.7141Z" fill="white" fill-opacity="0.75"/>
<path fill-rule="evenodd" clip-rule="evenodd" d="M9.03054 15.5058C9.02033 15.4974 9.01249 15.4869 9.00648 15.4749C9.00108 15.463 8.99809 15.45 8.99809 15.4368C8.99809 15.4237 9.00108 15.4107 9.00648 15.3988C9.01249 15.3868 9.02033 15.3763 9.03054 15.3678L9.76354 14.6298L10.3644 14.0298L9.63735 14.6298H8.74212C8.71628 14.6299 8.69104 14.62 8.67182 14.6021C8.65319 14.5843 8.64179 14.5599 8.63998 14.5338V12.6738L8.53785 13.5978L7.90097 14.2278C7.88235 14.2452 7.85768 14.2547 7.83185 14.2547C7.80601 14.2547 7.78138 14.2452 7.76276 14.2278L7.02375 13.4898L6.42292 12.8898L7.02375 13.6158V14.5098C7.02375 14.5353 7.01353 14.5597 6.99551 14.5777C6.97748 14.5957 6.95287 14.6058 6.92763 14.6058H5.07104L5.99631 14.7138L6.59714 15.3438C6.60736 15.3523 6.61519 15.3628 6.6212 15.3748C6.62661 15.3867 6.6296 15.3997 6.6296 15.4128C6.6296 15.426 6.62661 15.439 6.6212 15.4509C6.61519 15.4629 6.60736 15.4734 6.59714 15.4818L5.28132 16.7958L6.00834 16.1958H6.90357C6.92881 16.1958 6.95346 16.206 6.97149 16.224C6.98951 16.242 6.99973 16.2664 6.99973 16.2918V18.1998L7.10787 17.2818L7.73874 16.6458C7.75736 16.6285 7.78199 16.6189 7.80783 16.6189C7.83366 16.6189 7.85829 16.6285 7.87692 16.6458L9.19875 17.9658L8.59792 17.2338V16.3398C8.59972 16.3138 8.61113 16.2894 8.62975 16.2715C8.64898 16.2537 8.67422 16.2438 8.70005 16.2438H10.5627L9.63735 16.1418L9.03054 15.5058Z" fill="white" fill-opacity="0.75"/>
</svg>
