<svg width="41" height="26" viewBox="0 0 41 26" fill="none" xmlns="http://www.w3.org/2000/svg">
<path d="M40.0998 0.389404H0V25.8347H40.0998V0.389404Z" fill="white"/>
<path d="M16.1884 8.34563L12.1784 17.8969H9.56082L7.61153 10.2744C7.50014 9.81077 7.38875 9.62531 7.01746 9.43985C6.42339 9.12456 5.43946 8.80928 4.58548 8.62382L4.64117 8.34563H8.85536C9.39374 8.34563 9.87642 8.698 9.98781 9.31003L11.0274 14.8368L13.5894 8.34563H16.1884ZM26.4362 14.7811C26.4547 12.2589 22.946 12.129 22.9831 10.9977C22.9831 10.6639 23.3173 10.293 24.0227 10.2002C24.3755 10.1631 25.3594 10.1261 26.4547 10.6268L26.8817 8.60527C26.2876 8.38272 25.5265 8.17871 24.5611 8.17871C22.1106 8.17871 20.4026 9.47694 20.3841 11.3316C20.3655 12.704 21.6093 13.4644 22.5376 13.928C23.5029 14.3917 23.8185 14.6884 23.8185 15.115C23.8185 15.7641 23.0574 16.0423 22.3333 16.0423C21.0895 16.0608 20.3655 15.7084 19.79 15.4302L19.3444 17.526C19.9199 17.7856 20.9967 18.0267 22.092 18.0267C24.7282 18.0453 26.4176 16.7656 26.4362 14.7811ZM32.8781 17.8969H35.1616L33.1566 8.34563H31.0402C30.5575 8.34563 30.1677 8.62382 29.982 9.05038L26.2691 17.8969H28.8681L29.3879 16.4688H32.5625L32.8781 17.8969ZM30.112 14.5029L31.4115 10.9235L32.1541 14.5029H30.112ZM19.7157 8.34563L17.6736 17.8969H15.2045L17.2466 8.34563H19.7157Z" fill="#1A1F71"/>
</svg>
