<svg width="22" height="22" viewBox="0 0 22 22" fill="none" xmlns="http://www.w3.org/2000/svg">
<path d="M11 6.41667C10.0935 6.41667 9.20737 6.68548 8.45365 7.1891C7.69992 7.69272 7.11246 8.40854 6.76556 9.24604C6.41866 10.0835 6.3279 11.0051 6.50474 11.8942C6.68159 12.7832 7.11811 13.5999 7.7591 14.2409C8.40009 14.8819 9.21677 15.3184 10.1058 15.4953C10.9949 15.6721 11.9165 15.5814 12.754 15.2344C13.5915 14.8875 14.3073 14.3001 14.8109 13.5464C15.3145 12.7926 15.5833 11.9065 15.5833 11C15.5833 9.78443 15.1005 8.61864 14.2409 7.75909C13.3814 6.89955 12.2156 6.41667 11 6.41667V6.41667ZM11 13.75C10.4561 13.75 9.92443 13.5887 9.47219 13.2865C9.01996 12.9844 8.66748 12.5549 8.45934 12.0524C8.2512 11.5499 8.19674 10.997 8.30285 10.4635C8.40896 9.93005 8.67087 9.44005 9.05547 9.05546C9.44006 8.67086 9.93006 8.40895 10.4635 8.30284C10.997 8.19673 11.5499 8.25119 12.0524 8.45933C12.5549 8.66747 12.9844 9.01995 13.2866 9.47218C13.5887 9.92442 13.75 10.4561 13.75 11C13.75 11.7293 13.4603 12.4288 12.9446 12.9445C12.4288 13.4603 11.7294 13.75 11 13.75ZM15.5833 5.5C15.402 5.5 15.2248 5.55376 15.0741 5.65449C14.9233 5.75521 14.8058 5.89838 14.7365 6.06587C14.6671 6.23337 14.6489 6.41768 14.6843 6.5955C14.7197 6.77332 14.807 6.93665 14.9352 7.06485C15.0634 7.19305 15.2267 7.28035 15.4045 7.31572C15.5823 7.35109 15.7666 7.33294 15.9341 7.26356C16.1016 7.19418 16.2448 7.07669 16.3455 6.92594C16.4462 6.77519 16.5 6.59797 16.5 6.41667C16.5 6.17355 16.4034 5.94039 16.2315 5.76849C16.0596 5.59658 15.8265 5.5 15.5833 5.5ZM20.1117 7.55333C20.0965 6.76997 19.9477 5.99495 19.6717 5.26167C19.4157 4.59439 19.0223 3.98841 18.517 3.48306C18.0116 2.9777 17.4056 2.58428 16.7383 2.32833C16.0051 2.05232 15.23 1.90352 14.4467 1.88833C13.5575 1.83333 13.2642 1.83333 11 1.83333C8.73584 1.83333 8.44251 1.83333 7.55334 1.88833C6.76998 1.90352 5.99496 2.05232 5.26168 2.32833C4.5944 2.58428 3.98842 2.9777 3.48307 3.48306C2.97771 3.98841 2.58429 4.59439 2.32834 5.26167C2.05233 5.99495 1.90353 6.76997 1.88834 7.55333C1.83334 8.45167 1.83334 8.745 1.83334 11C1.83334 13.255 1.83334 13.5483 1.88834 14.4467C1.90353 15.23 2.05233 16.0051 2.32834 16.7383C2.58429 17.4056 2.97771 18.0116 3.48307 18.5169C3.98842 19.0223 4.5944 19.4157 5.26168 19.6717C5.99496 19.9477 6.76998 20.0965 7.55334 20.1117C8.47001 20.1117 8.73584 20.1667 11 20.1667C13.2642 20.1667 13.5575 20.1667 14.4467 20.1117C15.23 20.0965 16.0051 19.9477 16.7383 19.6717C17.4056 19.4157 18.0116 19.0223 18.517 18.5169C19.0223 18.0116 19.4157 17.4056 19.6717 16.7383C19.9477 16.0051 20.0965 15.23 20.1117 14.4467C20.1117 13.53 20.1667 13.255 20.1667 11C20.1667 8.745 20.1667 8.45167 20.1117 7.55333ZM18.2783 14.3642C18.2623 14.9459 18.154 15.5214 17.9575 16.0692C17.7951 16.5021 17.5383 16.8936 17.2058 17.215C16.8863 17.5476 16.4941 17.8017 16.06 17.9575C15.5109 18.162 14.9316 18.2735 14.3458 18.2875C13.4842 18.2875 13.2183 18.3333 10.9908 18.3333C8.76334 18.3333 8.50668 18.3333 7.64501 18.3333C7.0602 18.3182 6.48153 18.2099 5.93084 18.0125C5.49786 17.8501 5.10646 17.5933 4.78501 17.2608C4.4524 16.9413 4.19827 16.5491 4.04251 16.115C3.83883 15.5689 3.72731 14.9927 3.71251 14.41C3.71251 13.4933 3.71251 13.2642 3.71251 11.0458C3.71251 8.8275 3.71251 8.56167 3.71251 7.68167C3.72831 7.09611 3.83978 6.51707 4.04251 5.9675C4.20069 5.53725 4.45458 5.14857 4.78501 4.83083C5.10454 4.49823 5.49672 4.24409 5.93084 4.08833C6.47992 3.88382 7.05925 3.77229 7.64501 3.75833C8.50668 3.66667 8.77251 3.66667 11 3.66667C13.2275 3.66667 13.4933 3.66667 14.355 3.66667C14.9436 3.68163 15.5258 3.79312 16.0783 3.99667C16.5086 4.15485 16.8973 4.40874 17.215 4.73917C17.5476 5.05869 17.8018 5.45088 17.9575 5.885C18.1819 6.44285 18.309 7.03504 18.3333 7.63583C18.3333 8.5525 18.3792 8.78167 18.3792 11C18.3792 13.2183 18.3333 13.4842 18.3333 14.3642H18.2783Z" fill="black"/>
</svg>
