<svg width="12" height="12" viewBox="0 0 12 12" fill="none" xmlns="http://www.w3.org/2000/svg">
<path fill-rule="evenodd" clip-rule="evenodd" d="M9.36612 0.366117C9.85427 -0.122039 10.6457 -0.122039 11.1339 0.366117C11.622 0.854272 11.622 1.64573 11.1339 2.13388L7.51777 5.75L11.1339 9.36612C11.622 9.85427 11.622 10.6457 11.1339 11.1339C10.6457 11.622 9.85427 11.622 9.36612 11.1339L5.75 7.51777L2.13388 11.1339C1.64573 11.622 0.854271 11.622 0.366116 11.1339C-0.122039 10.6457 -0.122039 9.85427 0.366116 9.36612L3.98223 5.75L0.366117 2.13388C-0.122039 1.64573 -0.122039 0.854272 0.366117 0.366117C0.854272 -0.122039 1.64573 -0.122039 2.13388 0.366117L5.75 3.98223L9.36612 0.366117Z" fill="#FE4388"/>
</svg>
